<?xml version="1.0" encoding="UTF-8" standalone="no"?><!DOCTYPE svg PUBLIC "-//W3C//DTD SVG 1.1//EN" "http://www.w3.org/Graphics/SVG/1.1/DTD/svg11.dtd"><svg width="100%" height="100%" viewBox="0 0 61 55" version="1.1" xmlns="http://www.w3.org/2000/svg" xmlns:xlink="http://www.w3.org/1999/xlink" xml:space="preserve" xmlns:serif="http://www.serif.com/" style="fill-rule:evenodd;clip-rule:evenodd;stroke-linecap:round;stroke-linejoin:round;stroke-miterlimit:1.5;"><g><path d="M58.376,11.139l0.715,1.557l0.001,0.015l-0.603,1.604l-1.554,0.716l-0.008,0.001l-0.287,0.006l-0.283,0.007l-0.281,0.008l-0.281,0.009l-0.28,0.011l-0.279,0.012l-0.278,0.013l-0.278,0.014l-0.277,0.016l-0.276,0.016l-0.275,0.018l-0.275,0.019l-0.273,0.02l-0.273,0.021l-0.273,0.023l-0.271,0.024l-0.271,0.025l-0.27,0.026l-0.269,0.027l-0.269,0.029l-0.268,0.029l-0.267,0.031l-0.266,0.032l-0.266,0.033l-0.265,0.035l-0.264,0.035l-0.263,0.037l-0.263,0.038l-0.262,0.039l-0.261,0.04l-0.261,0.041l-0.26,0.043l-0.259,0.043l-0.259,0.045l-0.257,0.046l-0.257,0.047l-0.257,0.048l-0.255,0.05l-0.255,0.051l-0.255,0.051l-0.253,0.053l-0.253,0.054l-0.253,0.055l-0.251,0.057l-0.251,0.057l-0.25,0.059l-0.25,0.06l-0.249,0.061l-0.248,0.062l-0.248,0.063l-0.247,0.064l-0.246,0.066l-0.246,0.066l-0.245,0.068l-0.244,0.069l-0.244,0.07l-0.243,0.071l-0.243,0.073l-0.241,0.073l-0.242,0.074l-0.24,0.076l-0.24,0.077l-0.239,0.078l-0.239,0.079l-0.238,0.08l-0.238,0.082l-0.237,0.082l-0.236,0.084l-0.235,0.084l-0.235,0.086l-0.235,0.087l-0.234,0.088l-0.233,0.089l-0.233,0.091l-0.232,0.091l-0.231,0.093l-0.231,0.093l-0.23,0.095l-0.23,0.096l-0.229,0.097l-0.229,0.098l-0.228,0.099l-0.227,0.101l-0.227,0.101l-0.226,0.103l-0.226,0.103l-0.225,0.105l-0.225,0.106l-0.224,0.107l-0.224,0.108l-0.223,0.109l-0.222,0.111l-0.222,0.111l-0.221,0.113l-0.221,0.113l-0.22,0.115l-0.22,0.116l-0.219,0.117l-0.219,0.118l-0.218,0.119l-0.218,0.121l-0.217,0.121l-0.216,0.122l-0.216,0.124l-0.216,0.125l-0.215,0.126l-0.215,0.126l-0.214,0.128l-0.213,0.129l-0.213,0.131l-0.213,0.131l-0.212,0.132l-0.211,0.134l-0.211,0.134l-0.21,0.136l-0.21,0.137l-0.21,0.138l-0.209,0.139l-0.209,0.14l-0.208,0.141l-0.207,0.142l-0.207,0.143l-0.207,0.145l-0.206,0.145l-0.206,0.147l-0.205,0.147l-0.205,0.149l-0.204,0.15l-0.204,0.151l-0.203,0.152l-0.203,0.153l-0.202,0.154l-0.202,0.156l-0.202,0.156l-0.201,0.157l-0.2,0.159l-0.2,0.16l-0.2,0.16l-0.199,0.162l-0.199,0.163l-0.198,0.164l-0.198,0.165l-0.197,0.166l-0.197,0.167l-0.197,0.168l-0.196,0.17l-0.196,0.17l-0.195,0.171l-0.195,0.173l-0.194,0.174l-0.194,0.174l-0.194,0.176l-0.193,0.177l-0.192,0.178l-0.193,0.179l-0.192,0.18l-0.191,0.181l-0.191,0.182l-0.191,0.183l-0.19,0.185l-0.189,0.185l-0.19,0.186l-0.189,0.188l-0.188,0.188l-0.188,0.19l-0.188,0.191l-0.187,0.191l-0.187,0.193l-0.187,0.194l-0.186,0.195l-0.186,0.196l-0.185,0.197l-0.185,0.198l-0.184,0.199l-0.185,0.2l-0.183,0.202l-0.184,0.202l-0.183,0.203l-0.182,0.204l-0.182,0.206l-0.182,0.206l-0.182,0.208l-0.181,0.208l-0.181,0.21l-0.18,0.211l-0.18,0.211l-0.179,0.213l-0.18,0.214l-0.178,0.214l-0.179,0.216l-0.178,0.217l-0.178,0.218l-0.177,0.219l-0.177,0.22l-0.177,0.221l-0.176,0.222l-0.176,0.223l-0.176,0.224l-0.175,0.225l-0.175,0.226l-0.174,0.227l-0.174,0.228l-0.174,0.229l-0.174,0.231l-0.173,0.231l-0.173,0.232l-0.172,0.233l-0.172,0.235l-0.172,0.235l-0.171,0.236l-0.171,0.237l-0.171,0.239l-0.171,0.239l-0.17,0.24l-0.169,0.242l-0.17,0.242l-0.169,0.243l-0.169,0.245l-0.168,0.245l-0.168,0.246l-0.168,0.247l-0.168,0.249l-0.167,0.249l-0.167,0.25l-0.166,0.252l-0.166,0.252l-0.166,0.253l-0.166,0.255l-0.165,0.255l-0.165,0.256l-0.165,0.257l-0.164,0.259l-0.164,0.259l-0.164,0.26l-0.164,0.261l-0.163,0.262l-0.163,0.263l-0.162,0.264l-0.163,0.265l-0.162,0.266l-0.161,0.267l-0.162,0.268l-0.161,0.269l-0.161,0.27l-0.16,0.271l-0.161,0.272l-0.16,0.273l-0.16,0.274l-0.159,0.274l-0.159,0.276l-0.159,0.277l-0.159,0.277l-0.158,0.279l-0.158,0.279l-0.158,0.281l-0.158,0.282l-0.004,0.007l-0.723,0.573l-0.909,-0.087l-0.013,-0.007l-0.57,-0.713l0.084,-0.919l0.003,-0.006l0.151,-0.29l0.152,-0.289l0.153,-0.289l0.153,-0.288l0.153,-0.287l0.153,-0.286l0.154,-0.285l0.154,-0.284l0.154,-0.283l0.155,-0.283l0.155,-0.281l0.156,-0.281l0.155,-0.28l0.157,-0.279l0.156,-0.277l0.157,-0.277l0.157,-0.277l0.158,-0.275l0.158,-0.274l0.158,-0.273l0.159,-0.273l0.159,-0.271l0.16,-0.271l0.159,-0.269l0.161,-0.269l0.16,-0.268l0.161,-0.267l0.162,-0.266l0.161,-0.265l0.163,-0.264l0.162,-0.263l0.163,-0.262l0.164,-0.262l0.163,-0.26l0.165,-0.259l0.164,-0.259l0.165,-0.257l0.166,-0.257l0.165,-0.256l0.167,-0.255l0.166,-0.253l0.167,-0.253l0.168,-0.252l0.168,-0.251l0.168,-0.25l0.169,-0.249l0.169,-0.248l0.17,-0.248l0.17,-0.246l0.17,-0.245l0.171,-0.245l0.172,-0.243l0.171,-0.242l0.173,-0.242l0.172,-0.24l0.174,-0.24l0.173,-0.239l0.174,-0.237l0.175,-0.237l0.175,-0.236l0.175,-0.234l0.176,-0.234l0.177,-0.233l0.177,-0.232l0.177,-0.231l0.178,-0.23l0.178,-0.228l0.179,-0.228l0.179,-0.227l0.18,-0.226l0.18,-0.225l0.181,-0.224l0.181,-0.224l0.182,-0.222l0.182,-0.221l0.183,-0.22l0.183,-0.219l0.184,-0.218l0.184,-0.217l0.185,-0.216l0.185,-0.215l0.186,-0.215l0.186,-0.213l0.187,-0.212l0.187,-0.211l0.188,-0.21l0.188,-0.209l0.189,-0.209l0.19,-0.207l0.19,-0.206l0.19,-0.205l0.191,-0.204l0.192,-0.203l0.192,-0.202l0.192,-0.201l0.193,-0.2l0.194,-0.199l0.194,-0.198l0.195,-0.197l0.196,-0.196l0.196,-0.195l0.196,-0.194l0.197,-0.193l0.198,-0.192l0.198,-0.191l0.199,-0.19l0.199,-0.189l0.2,-0.187l0.2,-0.187l0.201,-0.186l0.202,-0.184l0.202,-0.184l0.203,-0.182l0.203,-0.182l0.204,-0.18l0.205,-0.18l0.205,-0.178l0.205,-0.177l0.207,-0.177l0.207,-0.175l0.207,-0.174l0.208,-0.173l0.209,-0.172l0.209,-0.171l0.21,-0.17l0.211,-0.168l0.211,-0.168l0.212,-0.167l0.212,-0.165l0.213,-0.165l0.213,-0.163l0.215,-0.163l0.215,-0.161l0.215,-0.16l0.216,-0.159l0.217,-0.158l0.217,-0.157l0.218,-0.156l0.219,-0.154l0.219,-0.154l0.22,-0.153l0.22,-0.151l0.222,-0.15l0.221,-0.15l0.223,-0.148l0.223,-0.147l0.224,-0.146l0.224,-0.145l0.225,-0.143l0.226,-0.143l0.226,-0.141l0.227,-0.141l0.228,-0.139l0.228,-0.138l0.229,-0.137l0.23,-0.136l0.23,-0.134l0.231,-0.134l0.232,-0.132l0.232,-0.132l0.233,-0.13l0.234,-0.129l0.234,-0.128l0.235,-0.127l0.236,-0.125l0.236,-0.125l0.237,-0.123l0.238,-0.122l0.238,-0.121l0.239,-0.12l0.24,-0.119l0.241,-0.118l0.241,-0.116l0.241,-0.115l0.243,-0.114l0.243,-0.113l0.244,-0.112l0.245,-0.111l0.245,-0.109l0.246,-0.108l0.247,-0.107l0.247,-0.106l0.248,-0.105l0.249,-0.104l0.249,-0.102l0.25,-0.101l0.251,-0.1l0.252,-0.099l0.252,-0.098l0.253,-0.096l0.254,-0.096l0.254,-0.094l0.256,-0.092l0.255,-0.092l0.257,-0.091l0.257,-0.089l0.258,-0.088l0.259,-0.087l0.259,-0.086l0.26,-0.084l0.261,-0.083l0.262,-0.083l0.262,-0.08l0.263,-0.08l0.264,-0.079l0.264,-0.077l0.266,-0.076l0.266,-0.075l0.266,-0.073l0.268,-0.073l0.268,-0.071l0.269,-0.07l0.269,-0.068l0.27,-0.068l0.272,-0.066l0.271,-0.065l0.273,-0.064l0.273,-0.063l0.274,-0.061l0.275,-0.06l0.275,-0.059l0.277,-0.058l0.276,-0.056l0.278,-0.055l0.279,-0.054l0.279,-0.053l0.28,-0.051l0.281,-0.05l0.281,-0.049l0.282,-0.048l0.283,-0.047l0.284,-0.045l0.284,-0.044l0.285,-0.043l0.286,-0.041l0.287,-0.04l0.288,-0.039l0.288,-0.038l0.289,-0.037l0.29,-0.035l0.29,-0.034l0.292,-0.033l0.292,-0.031l0.292,-0.03l0.294,-0.029l0.294,-0.028l0.296,-0.026l0.296,-0.026l0.296,-0.024l0.298,-0.022l0.298,-0.022l0.299,-0.02l0.3,-0.019l0.3,-0.017l0.302,-0.017l0.297,-0.014l0.008,-0.001l1.601,0.605Z" style="fill:#fff;"/><path d="M45.106,2.25l13.528,9.696l-7.65,16.042" style="fill:none;stroke:#fff;stroke-width:4.5px;"/></g></svg>