<?xml version="1.0" encoding="UTF-8" standalone="no"?><!DOCTYPE svg PUBLIC "-//W3C//DTD SVG 1.1//EN" "http://www.w3.org/Graphics/SVG/1.1/DTD/svg11.dtd"><svg width="100%" height="100%" viewBox="0 0 31 34" version="1.1" xmlns="http://www.w3.org/2000/svg" xmlns:xlink="http://www.w3.org/1999/xlink" xml:space="preserve" xmlns:serif="http://www.serif.com/" style="fill-rule:evenodd;clip-rule:evenodd;stroke-linejoin:round;stroke-miterlimit:2;"><path d="M15.361,5.863l0.138,0.003l0.137,0.004l0.137,0.007l0.136,0.007l0.136,0.01l0.135,0.011l0.135,0.013l0.135,0.014l0.133,0.017l0.134,0.017l0.133,0.02l0.132,0.021l0.132,0.023l0.131,0.024l0.131,0.026l0.13,0.027l0.129,0.029l0.129,0.031l0.129,0.032l0.127,0.034l0.127,0.035l0.127,0.037l0.126,0.038l0.125,0.04l0.124,0.042l0.124,0.042l0.123,0.045l0.122,0.045l0.122,0.047l0.121,0.049l0.12,0.05l0.12,0.051l0.118,0.053l0.118,0.055l0.118,0.055l0.116,0.057l0.116,0.059l0.114,0.059l0.114,0.061l0.114,0.063l0.112,0.063l0.111,0.065l0.111,0.067l0.11,0.067l0.109,0.069l0.107,0.07l0.108,0.072l0.106,0.072l0.105,0.074l0.104,0.076l0.104,0.076l0.102,0.077l0.101,0.079l0.101,0.08l0.099,0.081l0.099,0.083l0.097,0.083l0.097,0.085l0.095,0.085l0.095,0.087l0.093,0.088l0.092,0.089l0.091,0.09l0.091,0.091l0.089,0.093l0.088,0.093l0.086,0.094l0.086,0.096l0.085,0.096l0.083,0.098l0.082,0.098l0.082,0.1l0.079,0.1l0.079,0.102l0.078,0.102l0.076,0.103l0.075,0.105l0.074,0.105l0.073,0.106l0.071,0.107l0.07,0.108l0.069,0.109l0.068,0.11l0.066,0.11l0.065,0.112l0.064,0.112l0.062,0.113l0.061,0.114l0.06,0.115l0.059,0.116l0.057,0.116l0.055,0.117l0.054,0.118l0.053,0.119l0.052,0.119l0.05,0.121l0.048,0.121l0.047,0.121l0.046,0.123l0.044,0.123l0.043,0.123l0.041,0.125l0.04,0.125l0.039,0.126l0.036,0.126l0.036,0.127l0.033,0.128l0.033,0.128l0.03,0.129l0.029,0.13l0.028,0.13l0.026,0.131l0.024,0.131l0.023,0.132l0.021,0.132l0.019,0.133l0.018,0.133l0.016,0.134l0.015,0.135l0.013,0.134l0.011,0.136l0.009,0.136l0.008,0.136l0.006,0.137l0.005,0.137l0.002,0.138l0.001,0.138l-0.001,0.138l-0.002,0.137l-0.005,0.137l-0.006,0.137l-0.008,0.136l-0.009,0.136l-0.011,0.136l-0.013,0.135l-0.015,0.134l-0.016,0.134l-0.018,0.133l-0.019,0.133l-0.021,0.132l-0.023,0.132l-0.024,0.132l-0.026,0.13l-0.028,0.13l-0.029,0.13l-0.03,0.129l-0.033,0.128l-0.033,0.128l-0.036,0.127l-0.036,0.126l-0.039,0.126l-0.04,0.125l-0.041,0.125l-0.043,0.123l-0.044,0.123l-0.046,0.123l-0.047,0.122l-0.048,0.12l-0.05,0.121l-0.052,0.119l-0.053,0.119l-0.054,0.118l-0.055,0.117l-0.057,0.116l-0.059,0.116l-0.06,0.115l-0.061,0.114l-0.062,0.113l-0.064,0.112l-0.065,0.112l-0.066,0.11l-0.068,0.11l-0.069,0.109l-0.07,0.108l-0.071,0.107l-0.073,0.106l-0.074,0.105l-0.075,0.105l-0.076,0.103l-0.078,0.102l-0.079,0.102l-0.079,0.1l-0.082,0.1l-0.082,0.098l-0.083,0.098l-0.085,0.096l-0.086,0.096l-0.086,0.094l-0.088,0.093l-0.089,0.093l-0.091,0.091l-0.091,0.09l-0.092,0.089l-0.093,0.088l-0.095,0.087l-0.095,0.086l-0.097,0.084l-0.097,0.084l-0.099,0.082l-0.099,0.081l-0.101,0.08l-0.101,0.079l-0.102,0.077l-0.104,0.077l-0.104,0.075l-0.105,0.074l-0.106,0.072l-0.108,0.072l-0.107,0.07l-0.109,0.069l-0.11,0.067l-0.111,0.067l-0.111,0.065l-0.112,0.063l-0.114,0.063l-0.114,0.061l-0.114,0.06l-0.116,0.058l-0.116,0.057l-0.118,0.056l-0.118,0.054l-0.118,0.053l-0.12,0.051l-0.12,0.05l-0.121,0.049l-0.122,0.047l-0.122,0.046l-0.123,0.044l-0.124,0.043l-0.124,0.041l-0.125,0.04l-0.126,0.038l-0.127,0.037l-0.127,0.035l-0.127,0.034l-0.129,0.032l-0.129,0.031l-0.129,0.029l-0.13,0.027l-0.131,0.026l-0.131,0.024l-0.132,0.023l-0.132,0.021l-0.133,0.02l-0.134,0.018l-0.133,0.016l-0.135,0.014l-0.135,0.013l-0.135,0.011l-0.136,0.01l-0.136,0.008l-0.137,0.006l-0.137,0.004l-0.138,0.003l-0.138,0l-0.138,0l-0.138,-0.003l-0.137,-0.004l-0.136,-0.006l-0.137,-0.008l-0.136,-0.01l-0.135,-0.011l-0.135,-0.013l-0.134,-0.014l-0.134,-0.016l-0.134,-0.018l-0.132,-0.02l-0.133,-0.021l-0.132,-0.023l-0.131,-0.024l-0.131,-0.026l-0.13,-0.027l-0.129,-0.029l-0.129,-0.031l-0.128,-0.032l-0.128,-0.034l-0.127,-0.035l-0.127,-0.037l-0.125,-0.038l-0.125,-0.04l-0.125,-0.041l-0.124,-0.043l-0.123,-0.044l-0.122,-0.046l-0.122,-0.047l-0.121,-0.049l-0.12,-0.05l-0.12,-0.051l-0.118,-0.053l-0.118,-0.054l-0.117,-0.056l-0.117,-0.057l-0.115,-0.058l-0.115,-0.06l-0.114,-0.061l-0.113,-0.063l-0.113,-0.063l-0.111,-0.065l-0.111,-0.067l-0.109,-0.067l-0.109,-0.069l-0.108,-0.07l-0.107,-0.072l-0.106,-0.072l-0.106,-0.074l-0.104,-0.075l-0.103,-0.077l-0.103,-0.077l-0.101,-0.079l-0.101,-0.08l-0.099,-0.081l-0.099,-0.082l-0.097,-0.084l-0.097,-0.084l-0.095,-0.086l-0.094,-0.087l-0.094,-0.088l-0.092,-0.089l-0.091,-0.09l-0.09,-0.091l-0.089,-0.093l-0.088,-0.093l-0.087,-0.094l-0.086,-0.096l-0.084,-0.096l-0.084,-0.098l-0.082,-0.098l-0.081,-0.1l-0.08,-0.1l-0.079,-0.102l-0.078,-0.102l-0.076,-0.103l-0.075,-0.105l-0.074,-0.105l-0.073,-0.106l-0.071,-0.107l-0.07,-0.108l-0.069,-0.109l-0.068,-0.11l-0.066,-0.11l-0.065,-0.112l-0.064,-0.112l-0.062,-0.113l-0.061,-0.114l-0.06,-0.115l-0.058,-0.116l-0.057,-0.116l-0.056,-0.117l-0.054,-0.118l-0.053,-0.119l-0.051,-0.119l-0.05,-0.121l-0.049,-0.12l-0.047,-0.122l-0.046,-0.123l-0.044,-0.123l-0.043,-0.123l-0.041,-0.125l-0.04,-0.125l-0.038,-0.126l-0.037,-0.126l-0.035,-0.127l-0.034,-0.128l-0.032,-0.128l-0.031,-0.129l-0.029,-0.13l-0.028,-0.13l-0.025,-0.13l-0.025,-0.132l-0.022,-0.132l-0.022,-0.132l-0.019,-0.133l-0.018,-0.133l-0.016,-0.134l-0.015,-0.134l-0.012,-0.135l-0.012,-0.136l-0.009,-0.136l-0.008,-0.136l-0.006,-0.137l-0.004,-0.137l-0.003,-0.137l-0.001,-0.138l0.001,-0.138l0.003,-0.138l0.004,-0.137l0.006,-0.137l0.008,-0.136l0.009,-0.136l0.012,-0.136l0.012,-0.134l0.015,-0.135l0.016,-0.134l0.018,-0.133l0.019,-0.133l0.022,-0.132l0.022,-0.132l0.025,-0.131l0.025,-0.131l0.028,-0.13l0.029,-0.13l0.031,-0.129l0.032,-0.128l0.034,-0.128l0.035,-0.127l0.037,-0.126l0.038,-0.126l0.04,-0.125l0.041,-0.125l0.043,-0.123l0.044,-0.123l0.046,-0.123l0.047,-0.121l0.049,-0.121l0.05,-0.121l0.051,-0.119l0.053,-0.119l0.054,-0.118l0.056,-0.117l0.057,-0.116l0.058,-0.116l0.06,-0.115l0.061,-0.114l0.062,-0.113l0.064,-0.112l0.065,-0.112l0.066,-0.11l0.068,-0.11l0.069,-0.109l0.07,-0.108l0.071,-0.107l0.073,-0.106l0.074,-0.105l0.075,-0.105l0.076,-0.103l0.078,-0.102l0.079,-0.102l0.08,-0.1l0.081,-0.1l0.082,-0.098l0.084,-0.098l0.084,-0.096l0.086,-0.096l0.087,-0.094l0.088,-0.093l0.089,-0.093l0.09,-0.091l0.091,-0.09l0.092,-0.089l0.094,-0.088l0.094,-0.087l0.095,-0.085l0.097,-0.085l0.097,-0.083l0.099,-0.083l0.099,-0.081l0.101,-0.08l0.101,-0.079l0.103,-0.077l0.103,-0.076l0.104,-0.076l0.106,-0.074l0.106,-0.072l0.107,-0.072l0.108,-0.07l0.109,-0.069l0.109,-0.067l0.111,-0.067l0.111,-0.065l0.113,-0.063l0.113,-0.063l0.114,-0.061l0.115,-0.059l0.115,-0.059l0.117,-0.057l0.117,-0.055l0.118,-0.055l0.118,-0.053l0.12,-0.051l0.12,-0.05l0.121,-0.049l0.122,-0.047l0.122,-0.045l0.123,-0.045l0.124,-0.042l0.125,-0.042l0.125,-0.04l0.125,-0.038l0.127,-0.037l0.127,-0.035l0.128,-0.034l0.128,-0.032l0.129,-0.031l0.129,-0.029l0.13,-0.027l0.131,-0.026l0.131,-0.024l0.132,-0.023l0.133,-0.021l0.132,-0.02l0.134,-0.017l0.134,-0.017l0.134,-0.014l0.135,-0.013l0.135,-0.011l0.136,-0.01l0.137,-0.007l0.136,-0.007l0.137,-0.004l0.138,-0.003l0.138,0l0.138,0Zm-0.228,3.75l-0.09,0.002l-0.09,0.003l-0.089,0.004l-0.089,0.005l-0.089,0.006l-0.088,0.007l-0.088,0.009l-0.087,0.009l-0.087,0.011l-0.086,0.011l-0.086,0.013l-0.086,0.013l-0.085,0.015l-0.085,0.016l-0.085,0.017l-0.084,0.017l-0.084,0.019l-0.083,0.02l-0.083,0.021l-0.083,0.022l-0.082,0.022l-0.081,0.024l-0.082,0.025l-0.081,0.026l-0.08,0.026l-0.08,0.028l-0.08,0.029l-0.079,0.029l-0.078,0.031l-0.079,0.031l-0.077,0.032l-0.078,0.034l-0.076,0.034l-0.077,0.035l-0.076,0.036l-0.075,0.037l-0.075,0.038l-0.074,0.039l-0.074,0.039l-0.074,0.041l-0.073,0.041l-0.072,0.042l-0.072,0.043l-0.071,0.044l-0.071,0.045l-0.07,0.045l-0.069,0.047l-0.07,0.047l-0.068,0.048l-0.068,0.049l-0.067,0.05l-0.067,0.05l-0.066,0.052l-0.065,0.052l-0.065,0.052l-0.064,0.054l-0.064,0.054l-0.062,0.055l-0.063,0.056l-0.061,0.057l-0.061,0.057l-0.06,0.058l-0.059,0.059l-0.059,0.059l-0.058,0.061l-0.058,0.06l-0.056,0.062l-0.056,0.062l-0.055,0.063l-0.054,0.063l-0.054,0.065l-0.053,0.064l-0.052,0.066l-0.051,0.066l-0.051,0.066l-0.049,0.068l-0.049,0.067l-0.048,0.069l-0.048,0.069l-0.046,0.07l-0.046,0.07l-0.044,0.07l-0.044,0.072l-0.043,0.071l-0.042,0.073l-0.042,0.073l-0.04,0.073l-0.04,0.074l-0.039,0.074l-0.037,0.075l-0.037,0.076l-0.036,0.076l-0.035,0.076l-0.035,0.077l-0.033,0.077l-0.032,0.078l-0.032,0.078l-0.03,0.079l-0.03,0.079l-0.028,0.079l-0.028,0.08l-0.027,0.081l-0.025,0.081l-0.025,0.081l-0.024,0.082l-0.023,0.082l-0.022,0.082l-0.02,0.083l-0.02,0.084l-0.019,0.083l-0.018,0.084l-0.016,0.085l-0.016,0.085l-0.015,0.085l-0.014,0.086l-0.012,0.086l-0.012,0.087l-0.01,0.087l-0.01,0.087l-0.008,0.088l-0.007,0.088l-0.007,0.088l-0.005,0.089l-0.004,0.089l-0.002,0.09l-0.002,0.09l-0.001,0.091l0.001,0.09l0.002,0.09l0.002,0.09l0.004,0.089l0.005,0.089l0.007,0.088l0.007,0.088l0.008,0.088l0.01,0.088l0.01,0.086l0.012,0.087l0.012,0.086l0.014,0.086l0.015,0.085l0.016,0.085l0.016,0.085l0.018,0.084l0.019,0.084l0.02,0.083l0.02,0.083l0.022,0.082l0.023,0.082l0.024,0.082l0.025,0.081l0.025,0.081l0.027,0.081l0.028,0.08l0.028,0.079l0.03,0.079l0.03,0.079l0.032,0.078l0.032,0.078l0.033,0.077l0.035,0.077l0.035,0.076l0.036,0.076l0.037,0.076l0.037,0.075l0.039,0.074l0.04,0.074l0.04,0.073l0.042,0.073l0.042,0.073l0.043,0.071l0.044,0.072l0.044,0.07l0.046,0.071l0.046,0.069l0.048,0.069l0.048,0.069l0.049,0.067l0.049,0.068l0.051,0.066l0.051,0.066l0.052,0.066l0.053,0.065l0.054,0.064l0.054,0.063l0.055,0.063l0.056,0.062l0.056,0.062l0.058,0.061l0.058,0.06l0.059,0.059l0.059,0.059l0.06,0.058l0.061,0.057l0.061,0.057l0.063,0.056l0.062,0.055l0.064,0.054l0.064,0.054l0.065,0.053l0.065,0.052l0.066,0.051l0.067,0.05l0.067,0.05l0.068,0.049l0.068,0.048l0.07,0.047l0.069,0.047l0.07,0.045l0.071,0.045l0.071,0.044l0.072,0.043l0.072,0.042l0.073,0.041l0.074,0.041l0.074,0.04l0.074,0.038l0.075,0.038l0.075,0.037l0.076,0.036l0.077,0.035l0.076,0.034l0.078,0.034l0.077,0.032l0.079,0.031l0.078,0.031l0.079,0.029l0.08,0.029l0.08,0.028l0.08,0.026l0.081,0.026l0.082,0.025l0.081,0.024l0.082,0.022l0.083,0.022l0.083,0.021l0.083,0.02l0.084,0.019l0.084,0.017l0.085,0.017l0.085,0.016l0.085,0.015l0.086,0.013l0.086,0.013l0.086,0.011l0.087,0.011l0.087,0.009l0.088,0.009l0.088,0.007l0.089,0.006l0.089,0.005l0.089,0.004l0.09,0.003l0.09,0.002l0.09,0l0.091,0l0.09,-0.002l0.089,-0.003l0.09,-0.004l0.088,-0.005l0.089,-0.006l0.088,-0.007l0.088,-0.009l0.087,-0.009l0.087,-0.011l0.087,-0.011l0.086,-0.013l0.085,-0.013l0.086,-0.015l0.085,-0.016l0.084,-0.017l0.084,-0.017l0.084,-0.019l0.083,-0.02l0.083,-0.021l0.083,-0.022l0.082,-0.022l0.082,-0.024l0.081,-0.025l0.081,-0.026l0.08,-0.026l0.08,-0.028l0.08,-0.029l0.079,-0.029l0.079,-0.031l0.078,-0.031l0.078,-0.032l0.077,-0.034l0.077,-0.034l0.076,-0.035l0.076,-0.036l0.075,-0.037l0.075,-0.038l0.075,-0.038l0.074,-0.04l0.073,-0.041l0.073,-0.041l0.072,-0.042l0.072,-0.043l0.071,-0.044l0.071,-0.045l0.07,-0.045l0.07,-0.047l0.069,-0.047l0.068,-0.048l0.068,-0.049l0.067,-0.05l0.067,-0.05l0.066,-0.051l0.065,-0.052l0.065,-0.053l0.064,-0.054l0.064,-0.054l0.063,-0.055l0.062,-0.056l0.061,-0.057l0.061,-0.057l0.06,-0.058l0.06,-0.059l0.058,-0.059l0.059,-0.06l0.057,-0.061l0.056,-0.062l0.056,-0.062l0.055,-0.063l0.055,-0.063l0.053,-0.064l0.053,-0.065l0.052,-0.066l0.051,-0.066l0.051,-0.066l0.05,-0.068l0.048,-0.067l0.049,-0.069l0.047,-0.069l0.046,-0.069l0.046,-0.071l0.045,-0.07l0.043,-0.072l0.044,-0.071l0.042,-0.073l0.041,-0.073l0.041,-0.073l0.039,-0.074l0.039,-0.074l0.038,-0.075l0.037,-0.076l0.036,-0.076l0.035,-0.076l0.034,-0.077l0.033,-0.077l0.033,-0.078l0.031,-0.078l0.03,-0.079l0.03,-0.079l0.029,-0.079l0.027,-0.08l0.027,-0.081l0.026,-0.081l0.024,-0.081l0.024,-0.082l0.023,-0.082l0.022,-0.082l0.021,-0.083l0.019,-0.083l0.019,-0.084l0.018,-0.084l0.017,-0.085l0.015,-0.085l0.015,-0.085l0.014,-0.086l0.012,-0.086l0.012,-0.087l0.011,-0.086l0.009,-0.088l0.008,-0.087l0.008,-0.089l0.006,-0.088l0.005,-0.089l0.004,-0.089l0.003,-0.09l0.001,-0.09l0.001,-0.09l-0.001,-0.091l-0.001,-0.09l-0.003,-0.09l-0.004,-0.089l-0.005,-0.089l-0.006,-0.088l-0.008,-0.088l-0.008,-0.088l-0.009,-0.087l-0.011,-0.087l-0.012,-0.087l-0.012,-0.086l-0.014,-0.086l-0.015,-0.085l-0.015,-0.085l-0.017,-0.085l-0.018,-0.084l-0.019,-0.083l-0.019,-0.084l-0.021,-0.083l-0.022,-0.082l-0.023,-0.082l-0.024,-0.082l-0.024,-0.081l-0.026,-0.081l-0.027,-0.081l-0.027,-0.08l-0.029,-0.079l-0.03,-0.079l-0.03,-0.079l-0.031,-0.078l-0.033,-0.078l-0.033,-0.077l-0.034,-0.077l-0.035,-0.076l-0.036,-0.076l-0.037,-0.076l-0.038,-0.075l-0.039,-0.074l-0.039,-0.074l-0.041,-0.073l-0.041,-0.073l-0.042,-0.073l-0.044,-0.071l-0.043,-0.072l-0.045,-0.07l-0.046,-0.07l-0.046,-0.07l-0.047,-0.069l-0.049,-0.069l-0.048,-0.067l-0.05,-0.068l-0.051,-0.066l-0.051,-0.066l-0.052,-0.066l-0.053,-0.064l-0.053,-0.065l-0.055,-0.063l-0.055,-0.063l-0.056,-0.062l-0.056,-0.062l-0.057,-0.06l-0.059,-0.061l-0.058,-0.059l-0.06,-0.059l-0.06,-0.058l-0.061,-0.057l-0.061,-0.057l-0.062,-0.056l-0.063,-0.055l-0.064,-0.054l-0.064,-0.054l-0.065,-0.052l-0.065,-0.052l-0.066,-0.052l-0.067,-0.05l-0.067,-0.05l-0.068,-0.049l-0.068,-0.048l-0.069,-0.047l-0.07,-0.047l-0.07,-0.045l-0.071,-0.045l-0.071,-0.044l-0.072,-0.043l-0.072,-0.042l-0.073,-0.041l-0.073,-0.041l-0.074,-0.039l-0.075,-0.039l-0.075,-0.038l-0.075,-0.037l-0.076,-0.036l-0.076,-0.035l-0.077,-0.034l-0.077,-0.034l-0.078,-0.032l-0.078,-0.031l-0.079,-0.031l-0.079,-0.029l-0.08,-0.029l-0.08,-0.028l-0.08,-0.026l-0.081,-0.026l-0.081,-0.025l-0.082,-0.024l-0.082,-0.022l-0.083,-0.022l-0.083,-0.021l-0.083,-0.02l-0.084,-0.019l-0.084,-0.017l-0.084,-0.017l-0.085,-0.016l-0.086,-0.015l-0.085,-0.013l-0.086,-0.013l-0.087,-0.011l-0.087,-0.011l-0.087,-0.009l-0.088,-0.009l-0.088,-0.007l-0.089,-0.006l-0.088,-0.005l-0.09,-0.004l-0.089,-0.003l-0.09,-0.002l-0.091,0l-0.09,0Z" style="fill:#fff;"/></svg>