<?xml version="1.0" encoding="UTF-8" standalone="no"?><!DOCTYPE svg PUBLIC "-//W3C//DTD SVG 1.1//EN" "http://www.w3.org/Graphics/SVG/1.1/DTD/svg11.dtd"><svg width="100%" height="100%" viewBox="0 0 300 150" version="1.1" xmlns="http://www.w3.org/2000/svg" xmlns:xlink="http://www.w3.org/1999/xlink" xml:space="preserve" xmlns:serif="http://www.serif.com/" style="fill-rule:evenodd;clip-rule:evenodd;stroke-linecap:round;stroke-linejoin:round;stroke-miterlimit:1.5;"><g><path d="M69.402,90.517c-18.565,6.632 -38.759,-0.797 -48.918,-16.761c-1.632,-2.565 -3.005,-5.35 -4.07,-8.333c-7.698,-21.547 3.546,-45.291 25.094,-52.988c21.547,-7.698 45.29,3.547 52.988,25.094" style="fill:none;stroke:#000;stroke-width:5px;"/><path d="M184.828,23.471c55.844,0 101.182,27.468 101.182,61.3c0,33.832 -45.692,31.974 -101.536,31.974c-55.844,0 -100.828,1.858 -100.828,-31.974c0,-33.832 45.338,-61.3 101.182,-61.3Z" style="fill:none;stroke:#000;stroke-width:5px;"/><path d="M141.851,130.348c-0.638,5.843 -8.473,9.787 -17.485,8.804c-9.012,-0.984 -15.811,-6.527 -15.173,-12.37" style="fill:none;stroke:#000;stroke-width:5px;"/><path d="M256.82,127.992c0.466,5.86 -6.494,11.199 -15.531,11.917c-9.037,0.718 -16.752,-3.457 -17.218,-9.316" style="fill:none;stroke:#000;stroke-width:5px;"/><circle cx="49.834" cy="36.565" r="7.683"/><g><path d="M146.665,106.977c-0.248,0.216 -0.82,0.247 -1.717,0.092c-0.402,-0.061 -0.572,-0.726 -0.51,-1.994c0.093,-2.258 0.139,-3.233 0.139,-2.923c0.062,-3.093 0.093,-5.119 0.093,-6.078c0,-0.68 0.031,-1.856 0.092,-3.526c0.062,-1.485 0.078,-2.66 0.047,-3.526c0,-0.309 0.015,-2.273 0.046,-5.892c0.031,-3.402 0,-6.495 -0.093,-9.279c-0.123,-2.722 -0.216,-5.814 -0.278,-9.279c-0.062,-4.082 -0.093,-6.201 -0.093,-6.356l0.093,-9.139c0,-3.743 -0.093,-5.738 -0.278,-5.985c-0.155,-0.433 -2.196,-0.479 -6.124,-0.139c-0.928,0.062 -1.191,-0.511 -0.789,-1.717c0.155,-0.588 2.83,-0.758 8.026,-0.51c3.557,-0.093 5.97,-0.124 7.238,-0.093c1.082,0 1.623,0.278 1.623,0.835c0,0.804 -0.309,1.237 -0.927,1.299c-0.557,0.031 -1.856,0.031 -3.897,0c-1.083,0 -1.763,0.093 -2.042,0.279c-0.618,0.433 -0.928,3.278 -0.928,8.536c0,11.722 0.078,18.774 0.232,21.156c0.31,4.392 0.371,13.067 0.186,26.027c0,0.773 0.046,1.809 0.139,3.108c0.155,1.578 0.232,2.413 0.232,2.506c0.062,1.453 -0.108,2.319 -0.51,2.598Z" style="fill-rule:nonzero;stroke:#000;stroke-width:2px;stroke-linecap:butt;stroke-miterlimit:1.41421;"/><path d="M180.996,92.641c0.155,6.619 -1.268,10.995 -4.268,13.129c-1.299,0.928 -3.077,1.392 -5.335,1.392c-2.103,0 -4.006,-0.943 -5.707,-2.83c-1.484,-1.639 -2.675,-3.912 -3.572,-6.82c-0.804,-2.752 -1.284,-6.773 -1.438,-12.062l0,-20.646c0,-3.773 0.031,-7.825 0.092,-12.155c0.031,-1.237 0.047,-2.598 0.047,-4.083c0.031,-1.237 0.046,-1.933 0.046,-2.087c0,-0.371 -0.031,-1.067 -0.093,-2.088c-0.061,-1.083 -0.092,-1.794 -0.092,-2.134c0,-1.114 0.433,-1.624 1.299,-1.531c0.928,0.062 1.438,0.618 1.531,1.67c-0.031,-0.309 -0.047,1.284 -0.047,4.779c-0.371,16.732 -0.479,26.522 -0.324,29.367c0.402,8.691 0.603,13.083 0.603,13.176c0.402,3.712 0.788,6.248 1.16,7.609c0.649,2.319 1.5,3.99 2.551,5.01c1.609,1.547 3.124,2.274 4.547,2.181c1.825,-0.124 3.139,-0.727 3.943,-1.81c1.423,-1.917 2.336,-4.871 2.738,-8.861c0.154,-1.608 0.154,-4.887 0,-9.835l-0.047,-5.382c-0.123,-5.691 -0.17,-9.82 -0.139,-12.387c0.031,-1.578 0.046,-5.042 0.046,-10.393c-0.278,-8.196 -0.433,-12.619 -0.464,-13.268c-0.061,-1.299 0.418,-1.949 1.439,-1.949c0.742,0 1.221,0.464 1.438,1.392c0.155,0.742 0.201,3.325 0.139,7.748c-0.031,2.041 -0.093,6.773 -0.185,14.196c0.03,10.887 0.046,16.594 0.046,17.12l0.046,11.552Z" style="fill-rule:nonzero;stroke:#000;stroke-width:2px;stroke-linecap:butt;stroke-miterlimit:1.41421;"/><path d="M192.409,59.005c0,0.99 0.093,3.047 0.279,6.171c0.216,3.154 0.324,6.062 0.324,8.722c-0.587,19.733 -0.634,29.707 -0.139,29.924c2.475,1.484 5.104,0.912 7.887,-1.717c2.011,-2.103 3.65,-5.211 4.918,-9.325c1.794,-5.846 2.443,-13.3 1.949,-22.362c-0.836,-18.496 -5.305,-27.697 -13.408,-27.604c-1.145,0.03 -1.748,0.355 -1.81,0.974l0,15.217Zm-1.902,19.903c0,-0.68 -0.031,-3.696 -0.093,-9.047c-0.062,-4.484 -0.108,-8.041 -0.139,-10.67c0,-2.753 -0.062,-6.449 -0.185,-11.089c-0.341,-3.866 -0.495,-6 -0.464,-6.402c0,-0.897 1.484,-1.283 4.453,-1.16c3.217,0 5.954,1.083 8.212,3.248c1.578,1.515 3.016,4.299 4.315,8.351c2.01,5.474 3.016,13.361 3.016,23.661c0,5.165 -0.248,9.31 -0.743,12.433c-1.082,6.836 -3.015,12.047 -5.799,15.635c-1.608,2.042 -4.176,3.124 -7.701,3.248c-2.97,0.124 -4.702,-0.108 -5.197,-0.696c-0.278,-0.093 -0.17,-9.263 0.325,-27.512Z" style="fill-rule:nonzero;stroke:#000;stroke-width:2px;stroke-linecap:butt;stroke-miterlimit:1.41421;"/><path d="M220.478,104.703c0.433,0.341 2.443,0.433 6.031,0.279c4.145,-0.217 6.155,0.263 6.031,1.438c0.093,0.649 -3.309,0.881 -10.206,0.696c-2.908,0.062 -4.423,-0.031 -4.547,-0.279c-0.155,-0.185 -0.217,-1.917 -0.186,-5.196c-0.031,-0.711 -0.031,-3 0,-6.866c0.062,-4.361 0.093,-7.268 0.093,-8.722c-0.062,-21.156 -0.139,-34.363 -0.232,-39.621c-0.278,-3.742 0.418,-5.644 2.088,-5.706c3.309,-0.155 5.567,-0.155 6.773,0c0.186,0.031 0.681,0.046 1.485,0.046c0.835,0 1.485,0.016 1.949,0.047c1.577,0.123 2.227,0.541 1.948,1.252c-0.216,0.526 -2.32,0.727 -6.309,0.603c-3.774,-0.092 -5.63,0.31 -5.568,1.207l-0.185,13.454c0.309,7.176 0.556,10.995 0.742,11.459c0.031,0.31 1.933,0.294 5.706,-0.046c0.526,0 1.006,0.448 1.439,1.345c0.433,0.866 0.324,1.284 -0.325,1.253c-2.474,-0.124 -4.005,-0.139 -4.593,-0.046c-1.547,0.247 -2.32,0.695 -2.32,1.345c-0.464,16.238 -0.68,25.022 -0.649,26.352c0.031,3.34 0.309,5.242 0.835,5.706Z" style="fill-rule:nonzero;stroke:#000;stroke-width:2px;stroke-linecap:butt;stroke-miterlimit:1.41421;"/></g></g></svg>