<?xml version="1.0" encoding="UTF-8" standalone="no"?><!DOCTYPE svg PUBLIC "-//W3C//DTD SVG 1.1//EN" "http://www.w3.org/Graphics/SVG/1.1/DTD/svg11.dtd"><svg width="100%" height="100%" viewBox="0 0 2048 512" version="1.1" xmlns="http://www.w3.org/2000/svg" xmlns:xlink="http://www.w3.org/1999/xlink" xml:space="preserve" xmlns:serif="http://www.serif.com/" style="fill-rule:evenodd;clip-rule:evenodd;stroke-linejoin:round;stroke-miterlimit:2;"><g id="Right"><path d="M1814.1,0c11.046,0 20,8.954 20,20c0,2.42 0,4.931 0,7.455c0,16.569 13.431,30 30,30l6.05,0c5.304,0 10.391,2.107 14.142,5.858c3.751,3.751 5.858,8.838 5.858,14.142c0,6.603 0,14.195 0,21.734c0,10.466 4.158,20.503 11.558,27.904c7.401,7.4 17.438,11.558 27.904,11.558l0.003,0c10.466,0 20.504,-4.158 27.904,-11.558c7.401,-7.401 11.559,-17.438 11.559,-27.904c0,-25.856 0,-58.564 0,-79.189c0,-11.046 8.954,-20 20,-20c23.381,0 58.923,0 58.923,0l-233.901,0Z" style="fill:#1c1b22;"/><g opacity="0.5"><path d="M1189.94,-31.192c0,-5.991 -4.864,-10.855 -10.856,-10.855c-5.991,0 -10.855,4.864 -10.855,10.855l0,38.936c0,5.991 4.864,10.856 10.855,10.856c5.992,0 10.856,-4.865 10.856,-10.856l0,-38.936Z" style="fill:#3e3842;"/><path d="M1648.74,-18.93c0,-5.991 -4.864,-10.855 -10.856,-10.855c-5.991,0 -10.855,4.864 -10.855,10.855l0,50.985c0,5.991 4.864,10.855 10.855,10.855c5.992,0 10.856,-4.864 10.856,-10.855l0,-50.985Z" style="fill:#3e3842;"/><path d="M2048,-25.16c0,-5.991 -4.864,-10.855 -10.855,-10.855c-5.992,0 -10.856,4.864 -10.856,10.855l0,50.32c0,5.991 4.864,10.855 10.856,10.855c5.991,0 10.855,-4.864 10.855,-10.855l0,-50.32Z" style="fill:#3e3842;"/></g><g><path d="M1743.58,-16.271c-0.774,-3.924 -4.588,-6.481 -8.512,-5.708c-3.924,0.774 -6.481,4.588 -5.708,8.512l6.498,32.956c0.774,3.924 4.588,6.482 8.512,5.708c3.924,-0.773 6.481,-4.587 5.708,-8.511l-6.498,-32.957Z" style="fill:#3e3842;"/><path d="M1761.32,6.133c2.627,0.108 5.104,1.255 6.885,3.189c1.781,1.934 2.722,4.496 2.614,7.123c-0.001,0.001 -0.001,0.001 -0.001,0.001c-0.705,17.161 -15.211,30.521 -32.372,29.816c-17.161,-0.706 -30.522,-15.211 -29.816,-32.372c0,-0.001 0,-0.001 0,-0.001c0.225,-5.471 4.842,-9.723 10.313,-9.498c11.227,0.461 31.149,1.28 42.377,1.742Z" style="fill:#3e3842;"/></g></g></svg>