<?xml version="1.0" encoding="UTF-8" standalone="no"?><!DOCTYPE svg PUBLIC "-//W3C//DTD SVG 1.1//EN" "http://www.w3.org/Graphics/SVG/1.1/DTD/svg11.dtd"><svg width="100%" height="100%" viewBox="0 0 2048 512" version="1.1" xmlns="http://www.w3.org/2000/svg" xmlns:xlink="http://www.w3.org/1999/xlink" xml:space="preserve" xmlns:serif="http://www.serif.com/" style="fill-rule:evenodd;clip-rule:evenodd;stroke-linejoin:round;stroke-miterlimit:2;"><g id="Left"><path d="M1086.48,0c-11.046,0 -20,8.954 -20,20c0,2.42 0,4.931 0,7.455c0,16.569 -13.432,30 -30,30l-6.05,0c-5.305,0 -10.392,2.107 -14.142,5.858c-3.751,3.751 -5.858,8.838 -5.858,14.142c0,6.603 0,14.195 0,21.734c0,10.466 -4.158,20.503 -11.558,27.904c-7.401,7.4 -17.438,11.558 -27.904,11.558l-0.004,0c-10.466,0 -20.503,-4.158 -27.904,-11.558c-7.4,-7.401 -11.558,-17.438 -11.558,-27.904c0,-25.856 0,-58.564 0,-79.189c0,-11.046 -8.954,-20 -20,-20c-23.381,0 -58.923,0 -58.923,0l233.901,0Z" style="fill:#1c1b22;"/><path d="M892.41,0c-11.046,0 -20,8.954 -20,20c0,11.413 0,23.468 0,23.468c0,21.818 -17.714,39.532 -39.533,39.532c-21.818,0 -39.532,-17.714 -39.532,-39.532l0,-23.468c0,-11.046 -8.954,-20 -20,-20l-13.276,0l132.341,0Z" style="fill:#1c1b22;"/><path d="M132.341,0c-11.046,0 -20,8.954 -20,20c0,11.413 0,23.468 0,23.468c0,21.818 -17.714,39.532 -39.532,39.532c-21.819,0 -39.533,-17.714 -39.533,-39.532l0,-23.468c0,-11.046 -8.954,-20 -20,-20l-13.276,0l0,-60l0,60l132.341,0Z" style="fill:#1c1b22;"/><path d="M491.51,0c-11.046,0 -20,8.954 -20,20c0,31.369 0,93.496 0,141.358c0,35.701 -28.941,64.642 -64.642,64.642l-0.002,0c-35.701,0 -64.642,-28.941 -64.642,-64.642l0,-43.78c0,-7.399 -5.997,-13.396 -13.396,-13.396c-0.001,0 -0.001,0 -0.002,0c-7.398,0 -13.396,5.997 -13.396,13.396c0,1.37 0,2.795 0,4.248c0,15.161 -12.291,27.452 -27.452,27.452c-0.001,0 -0.001,0 -0.002,0c-7.281,0 -14.263,-2.892 -19.412,-8.041c-5.148,-5.148 -8.04,-12.13 -8.04,-19.411l0,-101.826c0,-5.304 -2.107,-10.391 -5.858,-14.142c-3.751,-3.751 -8.838,-5.858 -14.142,-5.858l250.986,0Z" style="fill:#1c1b22;"/><g opacity="0.5"><path d="M172.769,-5.979c0,-5.992 -4.864,-10.856 -10.855,-10.856c-5.992,0 -10.856,4.864 -10.856,10.856l0,38.936c0,5.991 4.864,10.855 10.856,10.855c5.991,0 10.855,-4.864 10.855,-10.855l0,-38.936Z" style="fill:#3e3842;"/><path d="M21.711,-31.192c0,-5.991 -4.864,-10.855 -10.856,-10.855c-5.991,0 -10.855,4.864 -10.855,10.855l0,38.936c0,5.991 4.864,10.856 10.855,10.856c5.992,0 10.856,-4.865 10.856,-10.856l0,-38.936Z" style="fill:#3e3842;"/><path d="M521.478,-11.444c0,-5.992 -4.864,-10.856 -10.855,-10.856c-5.991,0 -10.856,4.864 -10.856,10.856l0,55.974c0,5.991 4.865,10.855 10.856,10.855c5.991,0 10.855,-4.864 10.855,-10.855l0,-55.974Z" style="fill:#3e3842;"/><path d="M210.877,-8.478c0,-5.991 -4.865,-10.856 -10.856,-10.856c-5.991,0 -10.855,4.865 -10.855,10.856l0,11.111c0,5.991 4.864,10.856 10.855,10.856c5.991,0 10.856,-4.865 10.856,-10.856l0,-11.111Z" style="fill:#3e3842;"/><path d="M172.769,64.35c0,-5.991 -4.864,-10.855 -10.855,-10.855c-5.992,0 -10.856,4.864 -10.856,10.855l0,19.031c0,5.992 4.864,10.856 10.856,10.856c5.991,0 10.855,-4.864 10.855,-10.856l0,-19.031Z" style="fill:#3e3842;"/><path d="M21.711,39.138c0,-5.992 -4.864,-10.856 -10.856,-10.856c-5.991,0 -10.855,4.864 -10.855,10.856l0,3.501c0,5.992 4.864,10.856 10.855,10.856c5.992,0 10.856,-4.864 10.856,-10.856l0,-3.501Z" style="fill:#3e3842;"/><path d="M521.478,84.301c0,-5.991 -4.864,-10.855 -10.855,-10.855c-5.991,0 -10.856,4.864 -10.856,10.855l0,16.812c0,5.991 4.865,10.855 10.856,10.855c5.991,0 10.855,-4.864 10.855,-10.855l0,-16.812Z" style="fill:#3e3842;"/><path d="M622.994,-25.16c0,-5.991 -4.865,-10.855 -10.856,-10.855c-5.991,0 -10.855,4.864 -10.855,10.855l0,50.32c0,5.991 4.864,10.855 10.855,10.855c5.991,0 10.856,-4.864 10.856,-10.855l0,-50.32Z" style="fill:#3e3842;"/><path d="M1132.13,-52.491c0,-5.991 -4.865,-10.856 -10.856,-10.856c-5.991,0 -10.855,4.865 -10.855,10.856l0,50.32c0,5.991 4.864,10.855 10.855,10.855c5.991,0 10.856,-4.864 10.856,-10.855l0,-50.32Z" style="fill:#3e3842;"/><path d="M1132.13,27.398c0,-5.991 -4.865,-10.855 -10.856,-10.855c-5.991,0 -10.855,4.864 -10.855,10.855l0,7.332c0,5.992 4.864,10.856 10.855,10.856c5.991,0 10.856,-4.864 10.856,-10.856l0,-7.332Z" style="fill:#3e3842;"/></g><g><path d="M739.111,-11.378c0.838,-5.932 -3.299,-11.429 -9.231,-12.266c-5.933,-0.838 -11.429,3.299 -12.267,9.231l-7.033,49.827c-0.837,5.932 3.299,11.428 9.232,12.266c5.932,0.837 11.429,-3.299 12.266,-9.232l7.033,-49.826Z" style="fill:#3e3842;"/><path d="M750.156,19.614c8.097,-1.307 15.72,4.197 17.027,12.294c0,0.001 0,0.002 0,0.002c4.099,25.401 -13.195,49.352 -38.596,53.451c-25.401,4.099 -49.351,-13.195 -53.45,-38.596c0,0 -0.001,-0.001 -0.001,-0.002c-1.306,-8.096 4.198,-15.719 12.295,-17.026c16.618,-2.682 46.107,-7.441 62.725,-10.123Z" style="fill:#3e3842;"/></g></g></svg>