<?xml version="1.0" encoding="UTF-8" standalone="no"?><!DOCTYPE svg PUBLIC "-//W3C//DTD SVG 1.1//EN" "http://www.w3.org/Graphics/SVG/1.1/DTD/svg11.dtd"><svg width="100%" height="100%" viewBox="0 0 45 56" version="1.1" xmlns="http://www.w3.org/2000/svg" xmlns:xlink="http://www.w3.org/1999/xlink" xml:space="preserve" xmlns:serif="http://www.serif.com/" style="fill-rule:evenodd;clip-rule:evenodd;stroke-linecap:round;stroke-linejoin:round;stroke-miterlimit:1.5;"><g><path d="M15.093,7.973l0.005,0.005l0.246,0.296l0.248,0.3l0.245,0.299l0.243,0.299l0.241,0.298l0.238,0.299l0.236,0.299l0.233,0.298l0.231,0.299l0.228,0.298l0.226,0.299l0.224,0.299l0.221,0.298l0.219,0.299l0.216,0.299l0.213,0.299l0.211,0.3l0.207,0.298l0.104,0.151l0.103,0.15l0.101,0.15l0.101,0.15l0.101,0.151l0.1,0.15l0.099,0.15l0.098,0.151l0.098,0.15l0.097,0.151l0.096,0.151l0.096,0.151l0.095,0.15l0.094,0.152l0.094,0.151l0.092,0.151l0.093,0.151l0.091,0.152l0.091,0.152l0.09,0.151l0.089,0.152l0.088,0.152l0.088,0.152l0.087,0.153l0.087,0.152l0.085,0.153l0.085,0.153l0.084,0.152l0.084,0.153l0.082,0.154l0.082,0.153l0.081,0.154l0.081,0.153l0.079,0.154l0.079,0.154l0.078,0.154l0.078,0.155l0.076,0.154l0.076,0.155l0.075,0.155l0.074,0.155l0.073,0.156l0.073,0.155l0.072,0.156l0.071,0.156l0.07,0.156l0.069,0.156l0.069,0.157l0.068,0.157l0.067,0.157l0.066,0.157l0.065,0.157l0.064,0.158l0.064,0.158l0.063,0.158l0.062,0.158l0.061,0.159l0.06,0.159l0.06,0.159l0.058,0.159l0.058,0.159l0.057,0.16l0.056,0.16l0.055,0.16l0.054,0.161l0.054,0.16l0.052,0.161l0.052,0.161l0.051,0.162l0.05,0.162l0.049,0.162l0.048,0.162l0.047,0.162l0.047,0.163l0.045,0.163l0.045,0.164l0.043,0.163l0.043,0.164l0.042,0.164l0.041,0.164l0.04,0.165l0.039,0.165l0.038,0.165l0.037,0.166l0.037,0.166l0.035,0.166l0.034,0.166l0.034,0.167l0.033,0.167l0.031,0.167l0.031,0.167l0.03,0.168l0.028,0.168l0.028,0.169l0.027,0.169l0.026,0.169l0.025,0.169l0.024,0.169l0.023,0.17l0.022,0.171l0.021,0.17l0.02,0.171l0.019,0.171l0.019,0.172l0.017,0.171l0.016,0.173l0.015,0.172l0.015,0.173l0.013,0.173l0.012,0.173l0.011,0.174l0.011,0.174l0.009,0.174l0.008,0.175l0.008,0.175l0.006,0.175l0.005,0.176l0.004,0.176l0.004,0.176l0.002,0.177l0.001,0.177l0,0.177l0,0.178l-0.002,0.178l-0.003,0.179l-0.004,0.178l-0.005,0.179l-0.005,0.18l-0.007,0.18l-0.008,0.18l-0.009,0.18l-0.01,0.181l-0.011,0.182l-0.012,0.181l-0.013,0.182l-0.014,0.183l-0.016,0.182l-0.016,0.183l-0.017,0.184l-0.018,0.184l-0.02,0.184l-0.02,0.185l-0.021,0.185l-0.023,0.185l-0.023,0.186l-0.025,0.186l-0.025,0.187l-0.027,0.187l-0.028,0.187l-0.028,0.188l-0.03,0.188l-0.031,0.189l-0.032,0.189l-0.033,0.189l-0.034,0.19l-0.035,0.19l-0.036,0.191l-0.037,0.191l-0.039,0.192l-0.039,0.192l-0.041,0.192l-0.041,0.193l-0.043,0.194l-0.043,0.193l-0.045,0.195l-0.046,0.194l-0.047,0.195l-0.048,0.196l-0.049,0.196l-0.05,0.197l-0.051,0.197l-0.053,0.197l-0.053,0.198l-0.055,0.198l-0.055,0.199l-0.057,0.2l-0.058,0.2l-0.058,0.2l-0.06,0.201l-0.061,0.201l-0.063,0.202l-0.063,0.202l-0.064,0.203l-0.066,0.204l-0.066,0.203l-0.068,0.205l-0.069,0.205l-0.07,0.205l-0.071,0.206l-0.072,0.207l-0.073,0.207l-0.075,0.207l-0.075,0.208l-0.077,0.209l-0.078,0.209l-0.079,0.21l-0.08,0.21l-0.081,0.211l-0.082,0.212l-0.083,0.212l-0.085,0.212l-0.086,0.214l-0.087,0.213l-0.087,0.215l-0.09,0.215l-0.09,0.215l-0.091,0.216l-0.093,0.217l-0.094,0.217l-0.094,0.218l-0.096,0.219l-0.098,0.219l-0.098,0.219l-0.099,0.221l-0.101,0.221l-0.102,0.221l-0.103,0.223l-0.104,0.222l-0.105,0.224l-0.106,0.222l-0.003,0.007l-0.682,0.624l-0.91,-0.018l-0.013,-0.006l-0.618,-0.667l0.012,-0.924l0.097,-0.23l0.092,-0.221l0.091,-0.22l0.09,-0.22l0.089,-0.218l0.087,-0.218l0.087,-0.217l0.085,-0.216l0.084,-0.215l0.083,-0.215l0.082,-0.214l0.081,-0.213l0.079,-0.212l0.079,-0.211l0.077,-0.211l0.076,-0.21l0.076,-0.209l0.074,-0.209l0.072,-0.208l0.072,-0.207l0.071,-0.206l0.069,-0.206l0.069,-0.204l0.067,-0.205l0.066,-0.203l0.065,-0.203l0.064,-0.201l0.063,-0.202l0.062,-0.2l0.061,-0.2l0.059,-0.199l0.059,-0.198l0.057,-0.198l0.057,-0.197l0.055,-0.196l0.054,-0.195l0.054,-0.195l0.052,-0.194l0.051,-0.194l0.05,-0.193l0.049,-0.192l0.048,-0.191l0.047,-0.191l0.045,-0.19l0.045,-0.189l0.044,-0.189l0.042,-0.188l0.042,-0.187l0.041,-0.187l0.039,-0.186l0.039,-0.186l0.037,-0.184l0.037,-0.185l0.035,-0.183l0.035,-0.183l0.033,-0.182l0.032,-0.182l0.032,-0.181l0.03,-0.18l0.03,-0.18l0.028,-0.179l0.027,-0.178l0.027,-0.178l0.025,-0.177l0.025,-0.177l0.023,-0.176l0.022,-0.175l0.022,-0.175l0.02,-0.174l0.02,-0.174l0.018,-0.173l0.018,-0.173l0.017,-0.171l0.015,-0.172l0.015,-0.171l0.014,-0.17l0.013,-0.169l0.012,-0.17l0.01,-0.168l0.01,-0.168l0.009,-0.167l0.009,-0.167l0.007,-0.167l0.006,-0.166l0.005,-0.165l0.005,-0.165l0.003,-0.164l0.003,-0.164l0.001,-0.163l0.001,-0.162l0,-0.163l-0.001,-0.161l-0.002,-0.162l-0.003,-0.16l-0.004,-0.16l-0.005,-0.16l-0.005,-0.159l-0.007,-0.159l-0.007,-0.159l-0.008,-0.157l-0.009,-0.158l-0.01,-0.157l-0.011,-0.156l-0.012,-0.156l-0.013,-0.156l-0.013,-0.155l-0.015,-0.155l-0.015,-0.154l-0.016,-0.154l-0.017,-0.153l-0.018,-0.153l-0.018,-0.153l-0.02,-0.152l-0.02,-0.152l-0.021,-0.151l-0.022,-0.151l-0.023,-0.151l-0.024,-0.15l-0.025,-0.15l-0.025,-0.15l-0.026,-0.149l-0.027,-0.149l-0.028,-0.148l-0.029,-0.148l-0.029,-0.148l-0.031,-0.147l-0.031,-0.147l-0.032,-0.147l-0.033,-0.147l-0.033,-0.146l-0.035,-0.145l-0.035,-0.146l-0.036,-0.145l-0.037,-0.145l-0.038,-0.144l-0.038,-0.145l-0.039,-0.144l-0.041,-0.143l-0.04,-0.144l-0.042,-0.143l-0.043,-0.143l-0.043,-0.142l-0.044,-0.143l-0.045,-0.142l-0.046,-0.142l-0.046,-0.141l-0.047,-0.141l-0.048,-0.142l-0.049,-0.14l-0.05,-0.141l-0.05,-0.141l-0.051,-0.14l-0.052,-0.14l-0.053,-0.139l-0.053,-0.14l-0.055,-0.139l-0.055,-0.14l-0.056,-0.139l-0.056,-0.138l-0.058,-0.139l-0.058,-0.138l-0.059,-0.139l-0.059,-0.138l-0.061,-0.138l-0.061,-0.137l-0.062,-0.138l-0.063,-0.137l-0.063,-0.138l-0.065,-0.137l-0.065,-0.137l-0.066,-0.137l-0.066,-0.136l-0.067,-0.137l-0.069,-0.136l-0.068,-0.137l-0.07,-0.136l-0.07,-0.136l-0.071,-0.136l-0.072,-0.136l-0.073,-0.136l-0.073,-0.135l-0.074,-0.136l-0.075,-0.136l-0.076,-0.135l-0.076,-0.135l-0.077,-0.135l-0.078,-0.136l-0.079,-0.135l-0.079,-0.135l-0.08,-0.135l-0.081,-0.134l-0.081,-0.135l-0.082,-0.135l-0.083,-0.135l-0.084,-0.134l-0.085,-0.135l-0.085,-0.134l-0.086,-0.135l-0.086,-0.134l-0.088,-0.135l-0.088,-0.134l-0.089,-0.134l-0.089,-0.135l-0.09,-0.134l-0.091,-0.134l-0.092,-0.135l-0.093,-0.134l-0.093,-0.134l-0.094,-0.134l-0.094,-0.135l-0.095,-0.134l-0.096,-0.134l-0.097,-0.134l-0.097,-0.135l-0.099,-0.134l-0.098,-0.134l-0.1,-0.134l-0.1,-0.135l-0.101,-0.134l-0.101,-0.133l-0.206,-0.27l-0.208,-0.269l-0.211,-0.269l-0.213,-0.269l-0.217,-0.27l-0.219,-0.27l-0.221,-0.27l-0.225,-0.27l-0.227,-0.27l-0.23,-0.271l-0.232,-0.271l-0.235,-0.272l-0.238,-0.272l-0.24,-0.272l-0.243,-0.273l-0.245,-0.274l-0.248,-0.273l-0.254,-0.278l-0.005,-0.006l-0.537,-1.622l0.759,-1.535l0.011,-0.01l1.625,-0.543l1.534,0.753Z" style="fill:#fff;"/><path d="M7.225,23.971l4.807,-15.934l17.654,2.059" style="fill:none;stroke:#fff;stroke-width:4.5px;"/></g></svg>