<?xml version="1.0" encoding="UTF-8" standalone="no"?><!DOCTYPE svg PUBLIC "-//W3C//DTD SVG 1.1//EN" "http://www.w3.org/Graphics/SVG/1.1/DTD/svg11.dtd"><svg width="100%" height="100%" viewBox="0 0 175 175" version="1.1" xmlns="http://www.w3.org/2000/svg" xmlns:xlink="http://www.w3.org/1999/xlink" xml:space="preserve" xmlns:serif="http://www.serif.com/" style="fill-rule:evenodd;clip-rule:evenodd;stroke-linejoin:round;stroke-miterlimit:2;"><g><circle cx="6.72" cy="6.72" r="6.72" style="fill:#1f2023;"/><circle cx="6.72" cy="47.04" r="6.72" style="fill:#1f2023;"/><circle cx="6.72" cy="87.36" r="6.72" style="fill:#1f2023;"/><circle cx="6.72" cy="127.68" r="6.72" style="fill:#1f2023;"/><circle cx="6.72" cy="168" r="6.72" style="fill:#1f2023;"/><circle cx="47.04" cy="6.72" r="6.72" style="fill:#1f2023;"/><circle cx="47.04" cy="47.04" r="6.72" style="fill:#1f2023;"/><circle cx="47.04" cy="87.36" r="6.72" style="fill:#1f2023;"/><circle cx="47.04" cy="127.68" r="6.72" style="fill:#1f2023;"/><circle cx="47.04" cy="168" r="6.72" style="fill:#1f2023;"/><circle cx="87.36" cy="6.72" r="6.72" style="fill:#1f2023;"/><circle cx="87.36" cy="47.04" r="6.72" style="fill:#1f2023;"/><circle cx="87.36" cy="87.36" r="6.72" style="fill:#1f2023;"/><circle cx="87.36" cy="127.68" r="6.72" style="fill:#1f2023;"/><circle cx="87.36" cy="168" r="6.72" style="fill:#1f2023;"/><circle cx="127.68" cy="6.72" r="6.72" style="fill:#1f2023;"/><circle cx="127.68" cy="47.04" r="6.72" style="fill:#1f2023;"/><circle cx="127.68" cy="87.36" r="6.72" style="fill:#1f2023;"/><circle cx="127.68" cy="127.68" r="6.72" style="fill:#1f2023;"/><circle cx="127.68" cy="168" r="6.72" style="fill:#1f2023;"/><circle cx="168" cy="6.72" r="6.72" style="fill:#1f2023;"/><circle cx="168" cy="47.04" r="6.72" style="fill:#1f2023;"/><circle cx="168" cy="87.36" r="6.72" style="fill:#1f2023;"/><circle cx="168" cy="127.68" r="6.72" style="fill:#1f2023;"/><circle cx="168" cy="168" r="6.72" style="fill:#1f2023;"/></g></svg>