<?xml version="1.0" encoding="UTF-8" standalone="no"?><!DOCTYPE svg PUBLIC "-//W3C//DTD SVG 1.1//EN" "http://www.w3.org/Graphics/SVG/1.1/DTD/svg11.dtd"><svg width="100%" height="100%" viewBox="0 0 233 133" version="1.1" xmlns="http://www.w3.org/2000/svg" xmlns:xlink="http://www.w3.org/1999/xlink" xml:space="preserve" xmlns:serif="http://www.serif.com/" style="fill-rule:evenodd;clip-rule:evenodd;stroke-linejoin:round;stroke-miterlimit:2;"><g><g><path d="M214.128,22.205c0,-2.07 -1.68,-3.75 -3.75,-3.75l-188.173,0c-2.07,0 -3.75,1.68 -3.75,3.75l0,18.52c0,2.07 1.68,3.75 3.75,3.75l188.173,0c2.07,0 3.75,-1.68 3.75,-3.75l0,-18.52Z" style="fill:#2d2a32;"/><g><clipPath id="_clip1"><path d="M214.128,22.205c0,-2.07 -1.68,-3.75 -3.75,-3.75l-188.173,0c-2.07,0 -3.75,1.68 -3.75,3.75l0,18.52c0,2.07 1.68,3.75 3.75,3.75l188.173,0c2.07,0 3.75,-1.68 3.75,-3.75l0,-18.52Z"/></clipPath><g clip-path="url(#_clip1)"><path d="M37.063,31.465c0,3.092 -2.51,5.598 -5.607,5.598c-2.569,0 -4.731,-1.722 -5.395,-4.072l2.149,0.887c0.144,0.725 0.788,1.273 1.555,1.273c0.885,0 1.623,-0.731 1.585,-1.659l1.907,-1.359c1.176,0.029 2.163,-0.923 2.163,-2.11c0,-1.165 -0.948,-2.111 -2.115,-2.111c-1.167,0 -2.115,0.948 -2.115,2.111l0,0.027l-1.337,1.934c-0.35,-0.02 -0.693,0.077 -0.982,0.273l-3.004,-1.241c0.23,-2.883 2.643,-5.149 5.589,-5.149c3.097,0 5.607,2.505 5.607,5.598Zm-7.682,2.896l-0.688,-0.284c0.126,0.262 0.345,0.47 0.614,0.582c0.607,0.253 1.305,-0.036 1.557,-0.641c0.122,-0.294 0.125,-0.616 0.003,-0.91c-0.122,-0.293 -0.35,-0.523 -0.644,-0.645c-0.291,-0.122 -0.602,-0.118 -0.878,-0.014l0.711,0.294c0.447,0.185 0.66,0.697 0.472,1.144c-0.187,0.449 -0.7,0.659 -1.147,0.474Zm3.924,-2.932c-0.777,0 -1.409,-0.632 -1.409,-1.406c0,-0.775 0.632,-1.407 1.409,-1.407c0.776,0 1.408,0.632 1.408,1.407c0,0.774 -0.63,1.406 -1.408,1.406Zm0.002,-0.352c0.585,0 1.059,-0.474 1.059,-1.057c0,-0.584 -0.474,-1.056 -1.059,-1.056c-0.585,0 -1.059,0.474 -1.059,1.056c0.002,0.583 0.477,1.057 1.059,1.057Z" style="fill:#fff;fill-opacity:0.4;fill-rule:nonzero;"/><path d="M46.139,28.546l0,5.838l-1.651,0l0,-4.562l-1.084,0l0,-1.276l2.735,0Z" style="fill:#fff;fill-opacity:0.7;fill-rule:nonzero;"/><path d="M51.526,33.074l0,1.31l-4.545,0l0,-1.034l2.185,-2.044c0.211,-0.2 0.353,-0.371 0.425,-0.512c0.073,-0.142 0.109,-0.285 0.109,-0.43c0,-0.189 -0.064,-0.336 -0.192,-0.442c-0.128,-0.105 -0.314,-0.158 -0.559,-0.158c-0.216,0 -0.415,0.048 -0.596,0.146c-0.181,0.097 -0.329,0.237 -0.446,0.421l-1.226,-0.684c0.228,-0.378 0.548,-0.676 0.959,-0.892c0.411,-0.217 0.898,-0.326 1.459,-0.326c0.445,0 0.839,0.073 1.18,0.217c0.342,0.145 0.609,0.352 0.801,0.622c0.192,0.269 0.288,0.582 0.288,0.938c0,0.317 -0.068,0.615 -0.205,0.896c-0.136,0.281 -0.398,0.599 -0.788,0.955l-1.1,1.017l2.251,0Z" style="fill:#fff;fill-opacity:0.7;fill-rule:nonzero;"/><path d="M52.986,34.459c-0.267,0 -0.492,-0.089 -0.676,-0.267c-0.183,-0.178 -0.275,-0.403 -0.275,-0.676c0,-0.278 0.09,-0.503 0.271,-0.675c0.181,-0.172 0.407,-0.259 0.68,-0.259c0.278,0 0.506,0.087 0.683,0.259c0.178,0.172 0.267,0.397 0.267,0.675c0,0.273 -0.09,0.498 -0.271,0.676c-0.18,0.178 -0.407,0.267 -0.679,0.267Z" style="fill:#fff;fill-opacity:0.7;fill-rule:nonzero;"/><path d="M56.588,28.429c0.84,0 1.501,0.248 1.985,0.743c0.484,0.494 0.725,1.206 0.725,2.134c0,0.668 -0.129,1.242 -0.387,1.723c-0.259,0.48 -0.623,0.846 -1.093,1.096c-0.47,0.25 -1.013,0.375 -1.63,0.375c-0.328,0 -0.642,-0.037 -0.942,-0.112c-0.301,-0.075 -0.556,-0.179 -0.768,-0.313l0.601,-1.184c0.283,0.2 0.642,0.3 1.076,0.3c0.417,0 0.754,-0.115 1.013,-0.346c0.258,-0.231 0.41,-0.566 0.454,-1.005c-0.333,0.284 -0.77,0.426 -1.309,0.426c-0.367,0 -0.703,-0.077 -1.009,-0.23c-0.306,-0.153 -0.549,-0.37 -0.73,-0.65c-0.18,-0.281 -0.271,-0.602 -0.271,-0.963c0,-0.395 0.102,-0.744 0.305,-1.047c0.203,-0.303 0.478,-0.537 0.825,-0.701c0.348,-0.164 0.733,-0.246 1.155,-0.246Zm0.117,2.652c0.239,0 0.434,-0.068 0.584,-0.204c0.15,-0.136 0.225,-0.315 0.225,-0.538c0,-0.217 -0.074,-0.393 -0.221,-0.529c-0.147,-0.137 -0.346,-0.205 -0.596,-0.205c-0.234,0 -0.424,0.067 -0.572,0.2c-0.147,0.134 -0.221,0.315 -0.221,0.542c0,0.223 0.074,0.401 0.221,0.534c0.148,0.134 0.341,0.2 0.58,0.2Z" style="fill:#fff;fill-opacity:0.7;fill-rule:nonzero;"/><path d="M62,28.429c0.84,0 1.501,0.248 1.985,0.743c0.484,0.494 0.726,1.206 0.726,2.134c0,0.668 -0.13,1.242 -0.388,1.723c-0.259,0.48 -0.623,0.846 -1.093,1.096c-0.469,0.25 -1.013,0.375 -1.63,0.375c-0.328,0 -0.642,-0.037 -0.942,-0.112c-0.3,-0.075 -0.556,-0.179 -0.767,-0.313l0.6,-1.184c0.284,0.2 0.642,0.3 1.076,0.3c0.417,0 0.754,-0.115 1.013,-0.346c0.259,-0.231 0.41,-0.566 0.454,-1.005c-0.333,0.284 -0.77,0.426 -1.309,0.426c-0.367,0 -0.703,-0.077 -1.009,-0.23c-0.306,-0.153 -0.549,-0.37 -0.73,-0.65c-0.18,-0.281 -0.271,-0.602 -0.271,-0.963c0,-0.395 0.102,-0.744 0.305,-1.047c0.203,-0.303 0.478,-0.537 0.825,-0.701c0.348,-0.164 0.733,-0.246 1.155,-0.246Zm0.117,2.652c0.239,0 0.434,-0.068 0.584,-0.204c0.15,-0.136 0.225,-0.315 0.225,-0.538c0,-0.217 -0.074,-0.393 -0.221,-0.529c-0.147,-0.137 -0.346,-0.205 -0.596,-0.205c-0.234,0 -0.424,0.067 -0.571,0.2c-0.148,0.134 -0.221,0.315 -0.221,0.542c0,0.223 0.073,0.401 0.221,0.534c0.147,0.134 0.34,0.2 0.579,0.2Z" style="fill:#fff;fill-opacity:0.7;fill-rule:nonzero;"/><path d="M69.314,33.133c0.539,0 0.998,-0.228 1.376,-0.684l1.051,0.951c-0.284,0.355 -0.64,0.628 -1.068,0.817c-0.428,0.189 -0.909,0.283 -1.442,0.283c-0.484,0 -0.934,-0.084 -1.351,-0.254c-0.417,-0.169 -0.773,-0.409 -1.068,-0.717c-0.294,-0.309 -0.508,-0.669 -0.642,-1.08l-0.926,0l0,-0.817l0.776,0l0,-0.167l0,-0.167l-0.776,0l0,-0.817l0.926,0c0.134,-0.412 0.348,-0.771 0.642,-1.08c0.295,-0.309 0.651,-0.548 1.068,-0.717c0.417,-0.17 0.867,-0.255 1.351,-0.255c0.533,0 1.014,0.095 1.442,0.284c0.428,0.189 0.784,0.461 1.068,0.817l-1.051,0.951c-0.378,-0.456 -0.837,-0.684 -1.376,-0.684c-0.295,0 -0.559,0.06 -0.792,0.179c-0.234,0.12 -0.42,0.288 -0.559,0.505l1.785,0l0,0.817l-2.052,0c-0.005,0.039 -0.008,0.095 -0.008,0.167c0,0.072 0.003,0.128 0.008,0.167l2.052,0l0,0.817l-1.785,0c0.139,0.217 0.325,0.385 0.559,0.505c0.233,0.119 0.497,0.179 0.792,0.179Z" style="fill:#fff;fill-opacity:0.7;fill-rule:nonzero;"/><path d="M79.456,28.932c0.538,0 0.961,0.128 1.266,0.386c0.306,0.257 0.458,0.611 0.458,1.061c0,0.451 -0.152,0.803 -0.458,1.059c-0.305,0.255 -0.728,0.383 -1.266,0.383l-1.134,0l0,1.333l-0.447,0l0,-4.222l1.581,0Zm-0.013,2.497c0.419,0 0.738,-0.092 0.959,-0.275c0.222,-0.183 0.332,-0.441 0.332,-0.775c0,-0.341 -0.11,-0.604 -0.332,-0.787c-0.221,-0.183 -0.54,-0.274 -0.959,-0.274l-1.121,0l0,2.111l1.121,0Z" style="fill:#fff;fill-opacity:0.2;fill-rule:nonzero;"/><path d="M83.876,33.19c-0.546,0 -0.973,-0.157 -1.278,-0.471c-0.306,-0.313 -0.459,-0.77 -0.459,-1.369l0,-2.418l0.447,0l0,2.4c0,0.491 0.11,0.857 0.332,1.098c0.221,0.241 0.54,0.362 0.958,0.362c0.423,0 0.744,-0.121 0.966,-0.362c0.221,-0.241 0.331,-0.607 0.331,-1.098l0,-2.4l0.434,0l0,2.418c0,0.599 -0.151,1.056 -0.455,1.369c-0.303,0.314 -0.729,0.471 -1.276,0.471Z" style="fill:#fff;fill-opacity:0.2;fill-rule:nonzero;"/><path d="M89.998,32.768l0,0.386l-3.462,0l0,-0.308l2.799,-3.528l-2.756,0l0,-0.386l3.347,0l0,0.307l-2.793,3.529l2.865,0Z" style="fill:#fff;fill-opacity:0.2;fill-rule:nonzero;"/><path d="M93.925,32.768l0,0.386l-3.462,0l0,-0.308l2.798,-3.528l-2.756,0l0,-0.386l3.347,0l0,0.307l-2.792,3.529l2.865,0Z" style="fill:#fff;fill-opacity:0.2;fill-rule:nonzero;"/><path d="M94.805,28.932l0.447,0l0,3.836l2.364,0l0,0.386l-2.811,0l0,-4.222Z" style="fill:#fff;fill-opacity:0.2;fill-rule:nonzero;"/><path d="M101.343,32.768l0,0.386l-2.985,0l0,-4.222l2.895,0l0,0.386l-2.449,0l0,1.502l2.183,0l0,0.38l-2.183,0l0,1.568l2.539,0Z" style="fill:#fff;fill-opacity:0.2;fill-rule:nonzero;"/><path d="M102.411,32.526c0.092,0 0.169,0.032 0.229,0.094c0.06,0.062 0.09,0.14 0.09,0.232c0,0.048 -0.007,0.101 -0.021,0.157c-0.014,0.056 -0.035,0.121 -0.063,0.193l-0.253,0.832l-0.29,0l0.205,-0.874c-0.064,-0.02 -0.116,-0.058 -0.157,-0.112c-0.04,-0.054 -0.06,-0.119 -0.06,-0.196c0,-0.092 0.03,-0.17 0.091,-0.232c0.06,-0.062 0.136,-0.094 0.229,-0.094Z" style="fill:#fff;fill-opacity:0.2;fill-rule:nonzero;"/><path d="M106.476,33.19c-0.314,0 -0.614,-0.05 -0.902,-0.151c-0.287,-0.1 -0.509,-0.233 -0.666,-0.398l0.175,-0.344c0.152,0.153 0.355,0.277 0.609,0.371c0.253,0.095 0.514,0.142 0.784,0.142c0.378,0 0.661,-0.069 0.85,-0.208c0.189,-0.139 0.284,-0.319 0.284,-0.54c0,-0.169 -0.052,-0.304 -0.154,-0.404c-0.103,-0.101 -0.228,-0.178 -0.377,-0.232c-0.149,-0.055 -0.356,-0.114 -0.621,-0.178c-0.318,-0.081 -0.571,-0.158 -0.76,-0.232c-0.189,-0.075 -0.351,-0.188 -0.486,-0.341c-0.134,-0.153 -0.202,-0.36 -0.202,-0.621c0,-0.214 0.057,-0.408 0.169,-0.582c0.113,-0.175 0.286,-0.315 0.519,-0.42c0.233,-0.104 0.523,-0.156 0.868,-0.156c0.242,0 0.478,0.033 0.709,0.099c0.231,0.066 0.431,0.158 0.6,0.275l-0.151,0.355c-0.177,-0.116 -0.366,-0.204 -0.567,-0.262c-0.201,-0.058 -0.398,-0.087 -0.591,-0.087c-0.37,0 -0.648,0.071 -0.835,0.214c-0.187,0.142 -0.28,0.326 -0.28,0.552c0,0.168 0.051,0.304 0.153,0.407c0.103,0.102 0.232,0.181 0.386,0.235c0.155,0.054 0.363,0.113 0.625,0.178c0.309,0.076 0.559,0.152 0.75,0.226c0.191,0.074 0.353,0.187 0.486,0.338c0.133,0.151 0.199,0.355 0.199,0.612c0,0.213 -0.057,0.407 -0.172,0.582c-0.114,0.175 -0.29,0.314 -0.528,0.416c-0.237,0.103 -0.528,0.154 -0.874,0.154Z" style="fill:#fff;fill-opacity:0.2;fill-rule:nonzero;"/><rect x="109.021" y="28.932" width="0.446" height="4.222" style="fill:#fff;fill-opacity:0.2;"/><path d="M114.371,28.932l0,4.222l-0.368,0l-2.714,-3.426l0,3.426l-0.446,0l0,-4.222l0.367,0l2.721,3.426l0,-3.426l0.44,0Z" style="fill:#fff;fill-opacity:0.2;fill-rule:nonzero;"/><path d="M118.719,31.043l0.429,0l0,1.61c-0.197,0.173 -0.431,0.306 -0.7,0.398c-0.269,0.093 -0.553,0.139 -0.85,0.139c-0.423,0 -0.803,-0.093 -1.14,-0.278c-0.338,-0.185 -0.603,-0.441 -0.796,-0.769c-0.193,-0.327 -0.29,-0.694 -0.29,-1.1c0,-0.406 0.097,-0.773 0.29,-1.101c0.193,-0.328 0.458,-0.584 0.796,-0.769c0.337,-0.185 0.719,-0.277 1.146,-0.277c0.321,0 0.617,0.051 0.886,0.153c0.27,0.103 0.497,0.255 0.682,0.456l-0.278,0.283c-0.333,-0.329 -0.758,-0.494 -1.272,-0.494c-0.342,0 -0.651,0.075 -0.926,0.226c-0.276,0.151 -0.492,0.36 -0.648,0.627c-0.157,0.267 -0.236,0.566 -0.236,0.896c0,0.329 0.079,0.627 0.236,0.892c0.156,0.266 0.371,0.475 0.645,0.628c0.273,0.152 0.581,0.229 0.923,0.229c0.434,0 0.802,-0.109 1.103,-0.326l0,-1.423Z" style="fill:#fff;fill-opacity:0.2;fill-rule:nonzero;"/><path d="M120.408,28.932l0.446,0l0,3.836l2.365,0l0,0.386l-2.811,0l0,-4.222Z" style="fill:#fff;fill-opacity:0.2;fill-rule:nonzero;"/><path d="M126.946,32.768l0,0.386l-2.985,0l0,-4.222l2.895,0l0,0.386l-2.449,0l0,1.502l2.183,0l0,0.38l-2.183,0l0,1.568l2.539,0Z" style="fill:#fff;fill-opacity:0.2;fill-rule:nonzero;"/><path d="M129.576,28.932c0.539,0 0.961,0.128 1.266,0.386c0.306,0.257 0.459,0.611 0.459,1.061c0,0.451 -0.153,0.803 -0.459,1.059c-0.305,0.255 -0.727,0.383 -1.266,0.383l-1.134,0l0,1.333l-0.446,0l0,-4.222l1.58,0Zm-0.012,2.497c0.418,0 0.738,-0.092 0.959,-0.275c0.221,-0.183 0.331,-0.441 0.331,-0.775c0,-0.341 -0.11,-0.604 -0.331,-0.787c-0.221,-0.183 -0.541,-0.274 -0.959,-0.274l-1.122,0l0,2.111l1.122,0Z" style="fill:#fff;fill-opacity:0.2;fill-rule:nonzero;"/></g></g><path d="M149.582,25.291c-0.107,-0.433 -0.309,-0.815 -0.57,-1.143c-2.051,-3.447 -7.278,-1.867 -14.853,-0.189c-1.267,0.281 -0.922,-1.416 -1.304,-4.859c-0.248,-2.239 -2.439,-5.231 -4.739,-4.662c-3.793,0.937 0.611,3.092 -0.876,11.479c-0.794,4.481 -5.359,3.209 -4.356,7.266l2.281,9.234c0.39,1.579 0.917,3.06 3.152,2.772c2.168,-0.278 2.073,1.373 5.113,0.622l15.216,-3.759c1.55,-0.382 2.492,-1.983 2.101,-3.566c-0.162,-0.657 -0.535,-1.199 -1.018,-1.593c0.738,-0.705 1.099,-1.779 0.833,-2.856c-0.162,-0.655 -0.534,-1.197 -1.016,-1.591c0.742,-0.704 1.104,-1.78 0.838,-2.859c-0.194,-0.783 -0.679,-1.416 -1.308,-1.812c0.509,-0.684 0.728,-1.583 0.506,-2.484Z" style="fill:#ffdb5e;fill-rule:nonzero;"/><path d="M140.226,30.649l7.255,-1.792c0.987,-0.244 1.78,-1.012 2.07,-2.004c0.119,-0.409 -0.111,-0.843 -0.514,-0.969c-0.403,-0.127 -0.826,0.105 -0.946,0.514c-0.137,0.472 -0.515,0.835 -0.983,0.951l-7.429,1.835c-0.736,0.182 -1.486,-0.282 -1.672,-1.034c-0.186,-0.752 0.262,-1.511 0.998,-1.693l4.964,-1.227c0.408,-0.1 0.655,-0.52 0.552,-0.936c-0.103,-0.416 -0.517,-0.672 -0.924,-0.571l-4.965,1.226c-1.55,0.383 -2.493,1.983 -2.102,3.566c0.219,0.883 0.812,1.566 1.558,1.941c-0.39,0.649 -0.534,1.453 -0.337,2.252c0.219,0.886 0.816,1.57 1.565,1.944c-0.387,0.647 -0.528,1.447 -0.331,2.245c0.238,0.965 0.92,1.7 1.765,2.044c-0.316,0.616 -0.429,1.345 -0.249,2.076c0.391,1.583 1.97,2.56 3.52,2.177l4.624,-1.142c0.987,-0.244 1.781,-1.012 2.071,-2.004c0.12,-0.409 -0.11,-0.843 -0.513,-0.969c-0.402,-0.124 -0.827,0.104 -0.946,0.512c-0.138,0.473 -0.516,0.837 -0.984,0.953l-4.624,1.142c-0.737,0.182 -1.486,-0.282 -1.672,-1.034c-0.186,-0.752 0.262,-1.511 0.998,-1.693l5.486,-1.355c0.987,-0.244 1.781,-1.013 2.07,-2.005c0.12,-0.409 -0.11,-0.843 -0.512,-0.969c-0.407,-0.129 -0.828,0.104 -0.946,0.513c-0.14,0.479 -0.509,0.835 -0.984,0.953l-5.956,1.471c-0.737,0.182 -1.487,-0.283 -1.672,-1.035c-0.186,-0.752 0.261,-1.511 0.998,-1.693l6.823,-1.686c0.986,-0.243 1.78,-1.011 2.07,-2.003c0.12,-0.409 -0.11,-0.843 -0.512,-0.969c-0.404,-0.125 -0.828,0.103 -0.947,0.512c-0.14,0.479 -0.508,0.835 -0.984,0.953l-7.009,1.731c-0.736,0.182 -1.486,-0.282 -1.672,-1.034c-0.186,-0.752 0.261,-1.512 0.998,-1.694Z" style="fill:#ee9547;fill-rule:nonzero;"/></g><g opacity="0.5"><path d="M214.128,59.938c0,-2.07 -1.68,-3.75 -3.75,-3.75l-188.173,0c-2.07,0 -3.75,1.68 -3.75,3.75l0,18.52c0,2.07 1.68,3.75 3.75,3.75l188.173,0c2.07,0 3.75,-1.68 3.75,-3.75l0,-18.52Z" style="fill:#2d2a32;"/><g><clipPath id="_clip2"><path d="M214.128,59.938c0,-2.07 -1.68,-3.75 -3.75,-3.75l-188.173,0c-2.07,0 -3.75,1.68 -3.75,3.75l0,18.52c0,2.07 1.68,3.75 3.75,3.75l188.173,0c2.07,0 3.75,-1.68 3.75,-3.75l0,-18.52Z"/></clipPath><g clip-path="url(#_clip2)"><path id="path24" d="M35.417,63.6c0.697,0 0.954,0.257 0.954,0.954l0,8.412c0,0.079 -0.003,0.152 -0.01,0.22c-0.016,0.152 -0.019,0.299 -0.16,0.467c-0.014,0.017 -0.159,0.124 -0.159,0.124c-0.077,0.038 -0.13,0.066 -0.218,0.102l-4.233,1.773c-0.22,0.101 -0.312,0.14 -0.471,0.137l-0.002,0c-0.159,0.003 -0.251,-0.036 -0.471,-0.137l-4.233,-1.773c-0.088,-0.036 -0.141,-0.064 -0.218,-0.102c0,0 -0.145,-0.107 -0.159,-0.124c-0.141,-0.168 -0.144,-0.315 -0.16,-0.467c-0.007,-0.068 -0.01,-0.141 -0.01,-0.22l0,-8.412c0,-0.697 0.257,-0.954 0.954,-0.954l8.596,0Zm-6.323,10.519l4.069,0l-2.077,0.685l-1.992,-0.685Zm-0.861,-3.11l-0.021,-0.002l-0.022,-0.002l-0.083,0l-0.019,0.002l-0.019,0.002l-0.02,0.002l-0.019,0.002l-0.019,0.004l-0.02,0.002l-0.019,0.004l-0.017,0.005l-0.02,0.004l-0.017,0.006l-0.017,0.004l-0.018,0.008l-0.019,0.006l-0.016,0.005l-0.019,0.01l-0.017,0.008l-0.018,0.008l-0.017,0.009l-0.017,0.01l-0.018,0.01l-0.015,0.009l-0.016,0.01l-0.015,0.012l-0.016,0.009l-0.015,0.012l-0.014,0.012l-0.015,0.013l-0.013,0.012l-0.014,0.014l-0.014,0.013l-0.011,0.014l-0.014,0.013l-0.011,0.014l-0.012,0.015l-0.011,0.016l-0.012,0.015l-0.01,0.016l-0.009,0.015l-0.01,0.016l-0.01,0.016l-0.009,0.017l-0.008,0.017l-0.008,0.018l-0.008,0.017l-0.007,0.018l-0.008,0.019l-0.006,0.018l-0.006,0.019l-0.005,0.018l-0.004,0.019l-0.006,0.019l-0.004,0.018l-0.002,0.019l-0.004,0.02l-0.002,0.021l-0.001,0.019l0,0.02l-0.002,0.021l0,0.064l0.002,0.019l0.001,0.02l0.004,0.037l0.004,0.019l0.002,0.018l0.004,0.019l0.006,0.017l0.004,0.02l0.005,0.017l0.004,0.018l0.008,0.017l0.006,0.016l0.007,0.017l0.008,0.018l0.008,0.017l0.008,0.018l0.009,0.015l0.01,0.018l0.01,0.015l0.009,0.016l0.012,0.015l0.01,0.016l0.011,0.013l0.012,0.016l0.011,0.013l0.014,0.014l0.013,0.014l0.014,0.011l0.013,0.014l0.014,0.011l0.013,0.012l0.016,0.012l0.015,0.011l0.016,0.012l0.015,0.01l0.016,0.009l0.017,0.01l0.016,0.01l0.017,0.009l0.017,0.008l0.018,0.008l0.017,0.008l0.019,0.007l0.018,0.006l0.017,0.008l0.018,0.006l0.019,0.004l0.017,0.005l0.02,0.004l0.017,0.004l0.019,0.004l0.02,0.004l0.038,0.004l0.041,0.004l0.019,0.002l0.083,0l0.021,-0.002l0.02,-0.002l0.021,-0.002l0.019,-0.002l0.022,-0.002l0.019,-0.002l0.019,-0.004l0.019,-0.004l0.018,-0.004l0.019,-0.003l0.018,-0.006l0.019,-0.006l0.017,-0.006l0.018,-0.006l0.017,-0.006l0.017,-0.007l0.02,-0.008l0.017,-0.008l0.019,-0.008l0.018,-0.009l0.017,-0.008l0.018,-0.01l0.017,-0.009l0.017,-0.01l0.016,-0.01l0.015,-0.009l0.016,-0.012l0.015,-0.01l0.016,-0.011l0.013,-0.01l0.016,-0.012l0.013,-0.011l0,-0.631l-0.637,0l0,0.283l0.282,0l0,0.177l-0.016,0.01l-0.013,0.007l-0.018,0.008l-0.015,0.008l-0.018,0.008l-0.017,0.003l-0.019,0.006l-0.02,0.004l-0.019,0.004l-0.019,0.002l-0.021,0.002l-0.022,0.002l-0.044,0l-0.021,-0.002l-0.02,-0.002l-0.019,-0.004l-0.019,-0.004l-0.02,-0.006l-0.019,-0.005l-0.017,-0.008l-0.018,-0.008l-0.017,-0.008l-0.016,-0.009l-0.015,-0.01l-0.015,-0.012l-0.016,-0.011l-0.013,-0.012l-0.012,-0.014l-0.013,-0.013l-0.012,-0.014l-0.012,-0.015l-0.019,-0.031l-0.01,-0.018l-0.007,-0.017l-0.008,-0.02l-0.006,-0.015l-0.006,-0.018l-0.004,-0.017l-0.003,-0.018l-0.004,-0.017l-0.002,-0.019l-0.002,-0.018l-0.002,-0.019l0,-0.045l0.002,-0.019l0.002,-0.02l0.004,-0.021l0.004,-0.018l0.003,-0.019l0.006,-0.019l0.008,-0.018l0.006,-0.017l0.007,-0.018l0.01,-0.015l0.01,-0.018l0.009,-0.015l0.01,-0.014l0.012,-0.015l0.013,-0.014l0.012,-0.013l0.013,-0.012l0.014,-0.012l0.013,-0.011l0.016,-0.01l0.015,-0.01l0.016,-0.009l0.017,-0.008l0.017,-0.008l0.018,-0.006l0.017,-0.006l0.018,-0.003l0.019,-0.004l0.017,-0.002l0.02,-0.002l0.04,0l0.043,0.004l0.019,0.002l0.019,0.003l0.02,0.004l0.017,0.004l0.017,0.006l0.018,0.006l0.015,0.006l0.016,0.007l0.015,0.008l0.018,0.01l0.015,0.01l0.015,0.009l0.016,0.01l0.015,0.012l0.016,0.009l0.015,0.014l0.016,0.012l0.011,-0.016l0.014,-0.014l0.011,-0.015l0.014,-0.016l0.011,-0.015l0.012,-0.014l0.014,-0.015l0.011,-0.016l0.014,-0.015l0.011,-0.014l0.012,-0.015l0.013,-0.016l0.012,-0.013l0.012,-0.016l0.013,-0.015l0.012,-0.016l0.013,-0.014l0.012,-0.015l-0.016,-0.012l-0.015,-0.013l-0.016,-0.012l-0.015,-0.012l-0.015,-0.009l-0.016,-0.012l-0.017,-0.01l-0.016,-0.009l-0.017,-0.01l-0.016,-0.01l-0.017,-0.008l-0.017,-0.009l-0.018,-0.008l-0.017,-0.008l-0.017,-0.007l-0.018,-0.006l-0.015,-0.006l-0.018,-0.004l-0.017,-0.006l-0.017,-0.004l-0.018,-0.004l-0.017,-0.003l-0.02,-0.004l-0.019,-0.004l-0.017,-0.002l-0.022,-0.004l-0.019,-0.002l-0.019,0Zm6.089,0.004l-0.021,-0.002l-0.022,-0.002l-0.083,0l-0.019,0.002l-0.019,0.002l-0.02,0.002l-0.019,0.002l-0.017,0.004l-0.02,0.004l-0.017,0.003l-0.017,0.004l-0.016,0.004l-0.017,0.006l-0.02,0.008l-0.019,0.006l-0.017,0.007l-0.018,0.01l-0.017,0.008l-0.018,0.009l-0.015,0.01l-0.015,0.012l-0.016,0.011l-0.013,0.01l-0.016,0.014l-0.013,0.015l-0.014,0.014l-0.013,0.015l-0.012,0.016l-0.012,0.015l-0.009,0.018l-0.01,0.017l-0.008,0.018l-0.007,0.017l-0.008,0.018l-0.004,0.017l-0.006,0.018l-0.004,0.017l-0.003,0.018l-0.002,0.019l-0.002,0.017l-0.002,0.02l0,0.044l0.002,0.022l0.002,0.019l0.002,0.02l0.003,0.017l0.004,0.019l0.006,0.016l0.006,0.017l0.006,0.016l0.007,0.013l0.01,0.018l0.01,0.015l0.009,0.014l0.012,0.014l0.025,0.027l0.027,0.025l0.016,0.01l0.015,0.011l0.017,0.01l0.016,0.01l0.019,0.009l0.018,0.01l0.038,0.016l0.02,0.007l0.021,0.008l0.017,0.006l0.018,0.006l0.017,0.006l0.019,0.004l0.018,0.005l0.019,0.006l0.019,0.004l0.02,0.006l0.019,0.004l0.021,0.006l0.019,0.003l0.022,0.006l0.019,0.004l0.019,0.006l0.018,0.004l0.017,0.006l0.016,0.004l0.013,0.003l0.023,0.01l0.02,0.008l0.032,0.015l0.016,0.012l0.013,0.012l0.01,0.013l0.008,0.02l0.002,0.023l0,0.004l-0.002,0.019l-0.006,0.018l-0.008,0.015l-0.011,0.014l-0.016,0.011l-0.013,0.008l-0.016,0.006l-0.017,0.004l-0.018,0.004l-0.019,0.004l-0.021,0.002l-0.043,0l-0.021,-0.002l-0.019,0l-0.02,-0.004l-0.021,-0.002l-0.038,-0.008l-0.02,-0.004l-0.017,-0.006l-0.019,-0.005l-0.02,-0.006l-0.017,-0.008l-0.017,-0.006l-0.018,-0.008l-0.017,-0.007l-0.018,-0.008l-0.015,-0.01l-0.017,-0.008l-0.016,-0.009l-0.017,-0.012l-0.016,-0.01l-0.017,-0.011l-0.016,-0.012l-0.017,-0.012l-0.015,-0.011l-0.012,0.015l-0.013,0.014l-0.012,0.015l-0.014,0.016l-0.011,0.014l-0.012,0.015l-0.013,0.016l-0.012,0.013l-0.013,0.016l-0.012,0.013l-0.014,0.016l-0.011,0.015l-0.012,0.014l-0.013,0.015l-0.012,0.016l-0.013,0.014l-0.012,0.015l0.015,0.014l0.014,0.011l0.015,0.012l0.016,0.012l0.031,0.023l0.015,0.01l0.016,0.009l0.017,0.01l0.016,0.01l0.017,0.009l0.017,0.008l0.018,0.01l0.017,0.007l0.018,0.008l0.019,0.008l0.017,0.006l0.019,0.006l0.018,0.007l0.019,0.006l0.02,0.006l0.017,0.004l0.019,0.006l0.02,0.004l0.019,0.003l0.019,0.004l0.02,0.004l0.019,0.002l0.019,0.004l0.041,0.004l0.019,0.002l0.021,0l0.02,0.002l0.081,0l0.019,-0.002l0.021,-0.002l0.02,-0.002l0.017,-0.002l0.019,-0.002l0.02,-0.004l0.017,-0.004l0.017,-0.004l0.02,-0.003l0.017,-0.006l0.019,-0.006l0.02,-0.006l0.019,-0.008l0.019,-0.007l0.018,-0.01l0.017,-0.008l0.018,-0.01l0.015,-0.011l0.015,-0.01l0.016,-0.011l0.013,-0.012l0.016,-0.014l0.011,-0.011l0.014,-0.014l0.011,-0.013l0.01,-0.016l0.012,-0.015l0.009,-0.016l0.01,-0.016l0.008,-0.017l0.008,-0.016l0.007,-0.017l0.006,-0.019l0.004,-0.018l0.006,-0.019l0.004,-0.02l0.001,-0.021l0.002,-0.019l0.002,-0.022l0,-0.046l-0.002,-0.022l-0.002,-0.019l-0.007,-0.039l-0.004,-0.017l-0.006,-0.018l-0.006,-0.017l-0.007,-0.016l-0.01,-0.017l-0.01,-0.016l-0.011,-0.017l-0.012,-0.016l-0.013,-0.013l-0.014,-0.016l-0.015,-0.013l-0.016,-0.014l-0.015,-0.01l-0.016,-0.011l-0.015,-0.01l-0.018,-0.01l-0.017,-0.009l-0.019,-0.01l-0.02,-0.008l-0.019,-0.01l-0.021,-0.007l-0.018,-0.006l-0.017,-0.006l-0.019,-0.006l-0.018,-0.006l-0.019,-0.005l-0.019,-0.006l-0.02,-0.004l-0.021,-0.006l-0.019,-0.006l-0.021,-0.004l-0.022,-0.005l-0.021,-0.006l-0.021,-0.006l-0.019,-0.004l-0.018,-0.006l-0.017,-0.004l-0.016,-0.005l-0.015,-0.004l-0.023,-0.008l-0.022,-0.008l-0.019,-0.008l-0.015,-0.009l-0.018,-0.01l-0.013,-0.014l-0.008,-0.011l-0.01,-0.022l-0.002,-0.025l0,-0.004l0.002,-0.019l0.008,-0.018l0.012,-0.017l0.017,-0.016l0.014,-0.007l0.015,-0.008l0.017,-0.004l0.02,-0.004l0.021,-0.004l0.042,0l0.037,0.004l0.02,0.002l0.057,0.012l0.02,0.006l0.019,0.005l0.021,0.006l0.016,0.008l0.017,0.006l0.016,0.008l0.017,0.007l0.015,0.008l0.018,0.008l0.015,0.01l0.018,0.007l0.015,0.012l0.016,0.01l0.017,0.009l0.015,0.012l0.012,-0.016l0.01,-0.015l0.011,-0.016l0.012,-0.015l0.011,-0.018l0.01,-0.015l0.012,-0.016l0.011,-0.015l0.01,-0.016l0.011,-0.015l0.012,-0.016l0.01,-0.015l0.011,-0.018l0.012,-0.015l0.012,-0.016l0.009,-0.015l0.012,-0.016l-0.016,-0.011l-0.015,-0.012l-0.016,-0.012l-0.015,-0.009l-0.017,-0.012l-0.016,-0.01l-0.017,-0.009l-0.018,-0.01l-0.015,-0.008l-0.017,-0.01l-0.02,-0.007l-0.017,-0.008l-0.018,-0.008l-0.017,-0.006l-0.019,-0.007l-0.018,-0.004l-0.017,-0.006l-0.019,-0.006l-0.018,-0.004l-0.019,-0.004l-0.019,-0.004l-0.018,-0.003l-0.019,-0.004l-0.021,-0.002l-0.02,-0.004l-0.021,-0.002l-0.019,0Zm-0.826,0.339l0,-0.32l-1.116,0l0,1.413l1.126,0l0,-0.32l-0.757,0l0,-0.241l0.672,0l0,-0.301l-0.672,0l0,-0.231l0.747,0Zm-1.401,1.093l0,-1.413l-0.396,0l-0.01,0.016l-0.009,0.017l-0.012,0.016l-0.01,0.017l-0.009,0.016l-0.01,0.017l-0.012,0.016l-0.009,0.017l-0.01,0.016l-0.01,0.015l-0.011,0.017l-0.01,0.016l-0.01,0.017l-0.009,0.016l-0.012,0.017l-0.009,0.016l-0.01,0.015l-0.01,0.018l-0.009,0.015l-0.012,0.018l-0.01,0.015l-0.009,0.017l-0.01,0.016l-0.012,0.017l-0.009,0.016l-0.01,0.015l-0.01,0.018l-0.011,0.015l-0.01,0.018l-0.009,0.015l-0.01,0.018l-0.012,0.015l-0.009,0.018l-0.01,0.015l-0.01,-0.015l-0.009,-0.018l-0.012,-0.015l-0.01,-0.018l-0.009,-0.015l-0.01,-0.018l-0.01,-0.015l-0.011,-0.018l-0.01,-0.015l-0.009,-0.016l-0.01,-0.017l-0.01,-0.016l-0.011,-0.017l-0.01,-0.015l-0.01,-0.018l-0.009,-0.015l-0.01,-0.018l-0.012,-0.015l-0.009,-0.016l-0.01,-0.017l-0.01,-0.016l-0.011,-0.017l-0.01,-0.016l-0.009,-0.017l-0.01,-0.015l-0.01,-0.016l-0.011,-0.017l-0.01,-0.016l-0.01,-0.017l-0.009,-0.016l-0.01,-0.017l-0.012,-0.016l-0.009,-0.017l-0.01,-0.016l-0.396,0l0,1.413l0.367,0l0,-0.832l0.012,0.016l0.009,0.017l0.012,0.016l0.01,0.017l0.011,0.016l0.01,0.017l0.011,0.016l0.01,0.017l0.012,0.016l0.009,0.017l0.012,0.016l0.01,0.018l0.011,0.015l0.01,0.018l0.011,0.015l0.01,0.018l0.012,0.015l0.011,0.018l0.01,0.015l0.011,0.018l0.022,0.033l0.009,0.015l0.022,0.033l0.011,0.018l0.022,0.033l0.009,0.015l0.012,0.018l0.009,0.015l0.012,0.018l0.01,0.016l0.011,0.017l0.008,0l0.01,-0.016l0.011,-0.017l0.01,-0.016l0.012,-0.015l0.009,-0.018l0.012,-0.015l0.009,-0.016l0.01,-0.017l0.012,-0.016l0.009,-0.015l0.012,-0.016l0.01,-0.017l0.011,-0.016l0.01,-0.015l0.009,-0.018l0.012,-0.016l0.01,-0.015l0.011,-0.018l0.01,-0.015l0.012,-0.016l0.009,-0.017l0.01,-0.016l0.011,-0.015l0.01,-0.018l0.012,-0.015l0.009,-0.016l0.012,-0.015l0.01,-0.018l0.009,-0.015l0.012,-0.016l0.01,-0.017l0.011,-0.016l0.01,-0.015l0.011,-0.018l0.01,-0.016l0,0.836l0.373,0Zm-1.635,0l-0.008,-0.018l-0.007,-0.017l-0.008,-0.018l-0.006,-0.019l-0.008,-0.018l-0.007,-0.017l-0.008,-0.018l-0.016,-0.034l-0.007,-0.02l-0.008,-0.017l-0.006,-0.018l-0.007,-0.017l-0.008,-0.018l-0.008,-0.017l-0.008,-0.02l-0.007,-0.017l-0.008,-0.017l-0.008,-0.018l-0.006,-0.017l-0.007,-0.018l-0.008,-0.019l-0.008,-0.018l-0.007,-0.017l-0.008,-0.018l-0.008,-0.017l-0.008,-0.018l-0.005,-0.019l-0.008,-0.017l-0.008,-0.018l-0.008,-0.017l-0.007,-0.018l-0.008,-0.017l-0.008,-0.02l-0.008,-0.017l-0.005,-0.018l-0.008,-0.017l-0.008,-0.018l-0.008,-0.017l-0.007,-0.019l-0.008,-0.018l-0.008,-0.017l-0.007,-0.018l-0.006,-0.017l-0.008,-0.018l-0.008,-0.017l-0.007,-0.019l-0.008,-0.018l-0.008,-0.017l-0.008,-0.018l-0.007,-0.017l-0.006,-0.018l-0.008,-0.019l-0.008,-0.018l-0.007,-0.017l-0.008,-0.018l-0.008,-0.017l-0.007,-0.017l-0.008,-0.02l-0.006,-0.017l-0.008,-0.018l-0.007,-0.017l-0.008,-0.018l-0.008,-0.017l-0.008,-0.02l-0.015,-0.035l-0.006,-0.017l-0.008,-0.017l-0.007,-0.018l-0.008,-0.019l-0.008,-0.018l-0.008,-0.017l-0.007,-0.018l-0.008,-0.017l-0.006,-0.018l-0.008,-0.019l-0.007,-0.017l-0.008,-0.018l-0.008,-0.017l-0.357,0l-0.008,0.017l-0.007,0.018l-0.008,0.017l-0.006,0.019l-0.008,0.018l-0.007,0.017l-0.008,0.018l-0.008,0.017l-0.008,0.018l-0.007,0.019l-0.008,0.018l-0.006,0.017l-0.008,0.017l-0.007,0.018l-0.008,0.017l-0.008,0.02l-0.008,0.017l-0.007,0.018l-0.008,0.017l-0.006,0.018l-0.008,0.017l-0.007,0.02l-0.008,0.017l-0.008,0.017l-0.007,0.018l-0.008,0.017l-0.008,0.018l-0.006,0.019l-0.007,0.018l-0.008,0.017l-0.008,0.018l-0.007,0.017l-0.008,0.018l-0.008,0.019l-0.008,0.017l-0.005,0.018l-0.008,0.017l-0.008,0.018l-0.008,0.017l-0.007,0.018l-0.008,0.019l-0.008,0.017l-0.008,0.018l-0.005,0.017l-0.008,0.018l-0.008,0.017l-0.008,0.02l-0.007,0.017l-0.008,0.018l-0.008,0.017l-0.007,0.018l-0.006,0.017l-0.008,0.019l-0.015,0.035l-0.008,0.018l-0.008,0.017l-0.008,0.018l-0.007,0.019l-0.006,0.018l-0.008,0.017l-0.008,0.018l-0.007,0.017l-0.008,0.017l-0.008,0.02l-0.007,0.017l-0.008,0.018l-0.006,0.017l-0.008,0.018l-0.007,0.017l-0.008,0.02l-0.008,0.017l-0.008,0.017l-0.007,0.018l-0.008,0.017l-0.006,0.018l-0.008,0.019l-0.007,0.018l-0.008,0.017l-0.008,0.018l0.39,0l0.008,-0.018l0.006,-0.017l0.008,-0.018l0.007,-0.019l0.006,-0.018l0.008,-0.017l0.008,-0.018l0.005,-0.017l0.008,-0.017l0.008,-0.018l0.006,-0.017l0.007,-0.02l0.008,-0.017l0.006,-0.018l0.008,-0.017l0.554,0l0.008,0.017l0.006,0.018l0.007,0.017l0.008,0.02l0.006,0.017l0.008,0.018l0.007,0.017l0.006,0.017l0.008,0.018l0.007,0.017l0.006,0.018l0.008,0.019l0.008,0.018l0.006,0.017l0.007,0.018l0.398,0Zm-0.626,-0.582l-0.006,-0.018l-0.007,-0.019l-0.008,-0.018l-0.006,-0.017l-0.007,-0.018l-0.008,-0.019l-0.006,-0.018l-0.008,-0.017l-0.007,-0.018l-0.006,-0.017l-0.008,-0.02l-0.006,-0.017l-0.007,-0.018l-0.008,-0.017l-0.006,-0.018l-0.008,-0.019l-0.007,-0.018l-0.006,-0.017l-0.008,-0.018l-0.008,-0.019l-0.006,-0.018l-0.007,-0.017l-0.008,0.017l-0.006,0.018l-0.007,0.019l-0.008,0.018l-0.006,0.017l-0.008,0.018l-0.007,0.019l-0.008,0.018l-0.006,0.017l-0.008,0.018l-0.007,0.017l-0.006,0.02l-0.008,0.017l-0.008,0.018l-0.006,0.017l-0.007,0.018l-0.008,0.019l-0.008,0.018l-0.005,0.017l-0.008,0.018l-0.008,0.019l-0.006,0.018l-0.007,0.017l0.326,0l-0.008,-0.017Zm4.974,-4.867l0,-0.955c0,-0.581 -0.279,-0.861 -0.857,-0.861l-0.345,0c-0.578,0 -0.864,0.287 -0.864,0.868l0,3.017c0,0.581 0.286,0.868 0.864,0.868l0.352,0c0.578,0 0.863,-0.287 0.863,-0.868l0,-1.088l-0.697,0l0,1.055c0,0.187 -0.087,0.274 -0.266,0.274l-0.133,0c-0.186,0 -0.272,-0.087 -0.272,-0.274l0,-2.951c0,-0.187 0.086,-0.274 0.272,-0.274l0.12,0c0.179,0 0.266,0.087 0.266,0.274l0,0.915l0.697,0Zm-2.442,2.897l0,-4.673l-0.711,0l0,4.673l0.711,0Zm-1.895,-1.696c0.578,0 0.863,-0.287 0.863,-0.867l0,-1.242c0,-0.581 -0.285,-0.868 -0.863,-0.868l-1.117,0l0,4.673l0.711,0l0,-1.696l0.406,0Zm-1.473,-2.33l0,-0.647l-1.581,0l0,4.673l1.594,0l0,-0.647l-0.884,0l0,-1.409l0.838,0l0,-0.648l-0.838,0l0,-1.322l0.871,0Zm1.36,-0.02c0.179,0 0.265,0.087 0.265,0.274l0,1.175c0,0.187 -0.086,0.274 -0.265,0.274l-0.293,0l0,-1.723l0.293,0Z" style="fill:#fff;fill-opacity:0.3;"/><path d="M47.528,66.162c0.839,0 1.501,0.248 1.984,0.743c0.484,0.494 0.726,1.206 0.726,2.135c0,0.667 -0.129,1.241 -0.388,1.722c-0.259,0.48 -0.623,0.846 -1.092,1.096c-0.47,0.25 -1.014,0.375 -1.631,0.375c-0.328,0 -0.642,-0.037 -0.942,-0.112c-0.3,-0.075 -0.556,-0.179 -0.767,-0.313l0.6,-1.184c0.284,0.2 0.642,0.3 1.076,0.3c0.417,0 0.755,-0.115 1.013,-0.346c0.259,-0.231 0.41,-0.566 0.455,-1.005c-0.334,0.284 -0.77,0.426 -1.31,0.426c-0.367,0 -0.703,-0.077 -1.009,-0.23c-0.306,-0.153 -0.549,-0.369 -0.729,-0.65c-0.181,-0.281 -0.271,-0.602 -0.271,-0.963c0,-0.395 0.101,-0.744 0.304,-1.047c0.203,-0.303 0.478,-0.537 0.826,-0.701c0.347,-0.164 0.732,-0.246 1.155,-0.246Zm0.116,2.652c0.239,0 0.434,-0.068 0.584,-0.204c0.15,-0.136 0.225,-0.315 0.225,-0.538c0,-0.217 -0.073,-0.393 -0.221,-0.529c-0.147,-0.137 -0.346,-0.205 -0.596,-0.205c-0.234,0 -0.424,0.067 -0.571,0.2c-0.148,0.134 -0.221,0.315 -0.221,0.542c0,0.223 0.073,0.401 0.221,0.534c0.147,0.134 0.34,0.2 0.579,0.2Z" style="fill:#fff;fill-opacity:0.7;fill-rule:nonzero;"/><path d="M51.58,72.192c-0.266,0 -0.492,-0.089 -0.675,-0.267c-0.184,-0.178 -0.275,-0.403 -0.275,-0.676c0,-0.278 0.09,-0.503 0.271,-0.675c0.18,-0.172 0.407,-0.259 0.679,-0.259c0.278,0 0.506,0.087 0.684,0.259c0.178,0.172 0.267,0.397 0.267,0.675c0,0.273 -0.09,0.498 -0.271,0.676c-0.181,0.178 -0.407,0.267 -0.68,0.267Z" style="fill:#fff;fill-opacity:0.7;fill-rule:nonzero;"/><path d="M55.183,66.162c0.84,0 1.501,0.248 1.985,0.743c0.483,0.494 0.725,1.206 0.725,2.135c0,0.667 -0.129,1.241 -0.387,1.722c-0.259,0.48 -0.623,0.846 -1.093,1.096c-0.47,0.25 -1.013,0.375 -1.63,0.375c-0.328,0 -0.642,-0.037 -0.943,-0.112c-0.3,-0.075 -0.556,-0.179 -0.767,-0.313l0.601,-1.184c0.283,0.2 0.642,0.3 1.075,0.3c0.417,0 0.755,-0.115 1.014,-0.346c0.258,-0.231 0.41,-0.566 0.454,-1.005c-0.333,0.284 -0.77,0.426 -1.309,0.426c-0.367,0 -0.703,-0.077 -1.009,-0.23c-0.306,-0.153 -0.549,-0.369 -0.73,-0.65c-0.181,-0.281 -0.271,-0.602 -0.271,-0.963c0,-0.395 0.101,-0.744 0.304,-1.047c0.203,-0.303 0.479,-0.537 0.826,-0.701c0.347,-0.164 0.732,-0.246 1.155,-0.246Zm0.117,2.652c0.239,0 0.433,-0.068 0.584,-0.204c0.15,-0.136 0.225,-0.315 0.225,-0.538c0,-0.217 -0.074,-0.393 -0.221,-0.529c-0.148,-0.137 -0.346,-0.205 -0.597,-0.205c-0.233,0 -0.423,0.067 -0.571,0.2c-0.147,0.134 -0.221,0.315 -0.221,0.542c0,0.223 0.074,0.401 0.221,0.534c0.148,0.134 0.341,0.2 0.58,0.2Z" style="fill:#fff;fill-opacity:0.7;fill-rule:nonzero;"/><path d="M60.645,68.406c0.818,0 1.422,0.167 1.814,0.5c0.392,0.334 0.588,0.778 0.588,1.334c0,0.362 -0.093,0.694 -0.279,0.997c-0.187,0.303 -0.47,0.545 -0.851,0.725c-0.381,0.181 -0.852,0.271 -1.413,0.271c-0.412,0 -0.819,-0.05 -1.222,-0.15c-0.403,-0.1 -0.749,-0.241 -1.038,-0.425l0.592,-1.242c0.233,0.155 0.49,0.275 0.771,0.358c0.281,0.083 0.563,0.125 0.846,0.125c0.284,0 0.511,-0.054 0.68,-0.162c0.17,-0.109 0.254,-0.26 0.254,-0.455c0,-0.195 -0.083,-0.342 -0.25,-0.442c-0.166,-0.1 -0.461,-0.15 -0.884,-0.15l-1.584,0l0.292,-3.411l3.719,0l0,1.276l-2.352,0l-0.075,0.851l0.392,0Z" style="fill:#fff;fill-opacity:0.7;fill-rule:nonzero;"/><path d="M67.559,70.866c0.539,0 0.998,-0.228 1.376,-0.684l1.05,0.951c-0.283,0.356 -0.639,0.628 -1.067,0.817c-0.428,0.189 -0.909,0.283 -1.443,0.283c-0.483,0 -0.934,-0.084 -1.351,-0.254c-0.417,-0.169 -0.773,-0.408 -1.067,-0.717c-0.295,-0.309 -0.509,-0.669 -0.642,-1.08l-0.926,0l0,-0.817l0.776,0l0,-0.167l0,-0.167l-0.776,0l0,-0.817l0.926,0c0.133,-0.411 0.347,-0.771 0.642,-1.08c0.294,-0.309 0.65,-0.548 1.067,-0.717c0.417,-0.17 0.868,-0.255 1.351,-0.255c0.534,0 1.015,0.095 1.443,0.284c0.428,0.189 0.784,0.461 1.067,0.817l-1.05,0.951c-0.378,-0.456 -0.837,-0.684 -1.376,-0.684c-0.295,0 -0.559,0.06 -0.793,0.179c-0.233,0.12 -0.419,0.288 -0.558,0.505l1.784,0l0,0.817l-2.051,0c-0.006,0.039 -0.009,0.095 -0.009,0.167c0,0.072 0.003,0.128 0.009,0.167l2.051,0l0,0.817l-1.784,0c0.139,0.217 0.325,0.385 0.558,0.505c0.234,0.119 0.498,0.179 0.793,0.179Z" style="fill:#fff;fill-opacity:0.7;fill-rule:nonzero;"/><path d="M78.322,67.051l0,1.658l2.183,0l0,0.386l-2.183,0l0,1.792l-0.447,0l0,-4.222l2.895,0l0,0.386l-2.448,0Z" style="fill:#fff;fill-opacity:0.2;fill-rule:nonzero;"/><rect x="81.693" y="66.665" width="0.446" height="4.222" style="fill:#fff;fill-opacity:0.2;"/><path d="M86.398,70.887l-0.965,-1.357c-0.109,0.012 -0.222,0.018 -0.338,0.018l-1.134,0l0,1.339l-0.446,0l0,-4.222l1.58,0c0.539,0 0.961,0.128 1.266,0.386c0.306,0.257 0.459,0.611 0.459,1.061c0,0.33 -0.084,0.608 -0.251,0.836c-0.166,0.227 -0.405,0.391 -0.714,0.491l1.031,1.448l-0.488,0Zm-1.315,-1.719c0.418,0 0.738,-0.093 0.959,-0.278c0.221,-0.185 0.331,-0.444 0.331,-0.778c0,-0.341 -0.11,-0.604 -0.331,-0.787c-0.221,-0.183 -0.541,-0.274 -0.959,-0.274l-1.122,0l0,2.117l1.122,0Z" style="fill:#fff;fill-opacity:0.2;fill-rule:nonzero;"/><path d="M89.039,70.923c-0.313,0 -0.614,-0.05 -0.901,-0.151c-0.288,-0.1 -0.51,-0.233 -0.667,-0.398l0.175,-0.344c0.153,0.153 0.356,0.277 0.609,0.371c0.254,0.095 0.515,0.142 0.784,0.142c0.378,0 0.662,-0.069 0.851,-0.208c0.189,-0.139 0.283,-0.319 0.283,-0.54c0,-0.169 -0.051,-0.304 -0.154,-0.404c-0.102,-0.101 -0.228,-0.178 -0.377,-0.232c-0.148,-0.055 -0.355,-0.114 -0.621,-0.178c-0.317,-0.081 -0.571,-0.158 -0.76,-0.232c-0.189,-0.075 -0.351,-0.188 -0.485,-0.341c-0.135,-0.153 -0.202,-0.36 -0.202,-0.621c0,-0.213 0.056,-0.407 0.169,-0.582c0.112,-0.175 0.285,-0.315 0.518,-0.42c0.233,-0.104 0.523,-0.156 0.869,-0.156c0.241,0 0.477,0.033 0.708,0.099c0.232,0.066 0.432,0.158 0.601,0.275l-0.151,0.355c-0.177,-0.116 -0.366,-0.204 -0.567,-0.262c-0.201,-0.058 -0.398,-0.087 -0.591,-0.087c-0.37,0 -0.649,0.071 -0.836,0.214c-0.187,0.142 -0.28,0.326 -0.28,0.552c0,0.168 0.051,0.304 0.154,0.407c0.102,0.102 0.231,0.181 0.386,0.235c0.155,0.054 0.363,0.114 0.624,0.178c0.31,0.076 0.56,0.152 0.751,0.226c0.191,0.074 0.353,0.187 0.485,0.338c0.133,0.151 0.199,0.355 0.199,0.612c0,0.213 -0.057,0.407 -0.171,0.582c-0.115,0.175 -0.291,0.314 -0.528,0.416c-0.237,0.103 -0.529,0.154 -0.875,0.154Z" style="fill:#fff;fill-opacity:0.2;fill-rule:nonzero;"/><path d="M92.344,67.051l-1.483,0l0,-0.386l3.413,0l0,0.386l-1.483,0l0,3.836l-0.447,0l0,-3.836Z" style="fill:#fff;fill-opacity:0.2;fill-rule:nonzero;"/><path d="M98.147,66.665c0.538,0 0.961,0.128 1.266,0.386c0.306,0.257 0.459,0.611 0.459,1.061c0,0.451 -0.153,0.804 -0.459,1.059c-0.305,0.255 -0.728,0.383 -1.266,0.383l-1.134,0l0,1.333l-0.447,0l0,-4.222l1.581,0Zm-0.012,2.497c0.418,0 0.737,-0.092 0.959,-0.275c0.221,-0.183 0.331,-0.441 0.331,-0.775c0,-0.341 -0.11,-0.604 -0.331,-0.787c-0.222,-0.183 -0.541,-0.274 -0.959,-0.274l-1.122,0l0,2.111l1.122,0Z" style="fill:#fff;fill-opacity:0.2;fill-rule:nonzero;"/><path d="M103.822,70.501l0,0.386l-2.985,0l0,-4.222l2.895,0l0,0.386l-2.449,0l0,1.502l2.183,0l0,0.38l-2.183,0l0,1.568l2.539,0Z" style="fill:#fff;fill-opacity:0.2;fill-rule:nonzero;"/><path d="M107.754,70.887l-0.965,-1.357c-0.108,0.012 -0.221,0.018 -0.337,0.018l-1.134,0l0,1.339l-0.446,0l0,-4.222l1.58,0c0.539,0 0.961,0.128 1.266,0.386c0.306,0.257 0.459,0.611 0.459,1.061c0,0.33 -0.084,0.608 -0.251,0.836c-0.166,0.227 -0.405,0.391 -0.714,0.491l1.031,1.448l-0.489,0Zm-1.314,-1.719c0.418,0 0.737,-0.093 0.959,-0.278c0.221,-0.185 0.331,-0.444 0.331,-0.778c0,-0.341 -0.11,-0.604 -0.331,-0.787c-0.222,-0.183 -0.541,-0.274 -0.959,-0.274l-1.122,0l0,2.117l1.122,0Z" style="fill:#fff;fill-opacity:0.2;fill-rule:nonzero;"/><path d="M110.396,70.923c-0.313,0 -0.614,-0.05 -0.901,-0.151c-0.288,-0.1 -0.51,-0.233 -0.667,-0.398l0.175,-0.344c0.153,0.153 0.356,0.277 0.609,0.371c0.253,0.095 0.515,0.142 0.784,0.142c0.378,0 0.662,-0.069 0.851,-0.208c0.189,-0.139 0.283,-0.319 0.283,-0.54c0,-0.169 -0.051,-0.304 -0.154,-0.404c-0.102,-0.101 -0.228,-0.178 -0.377,-0.232c-0.148,-0.055 -0.356,-0.114 -0.621,-0.178c-0.318,-0.081 -0.571,-0.158 -0.76,-0.232c-0.189,-0.075 -0.351,-0.188 -0.485,-0.341c-0.135,-0.153 -0.202,-0.36 -0.202,-0.621c0,-0.213 0.056,-0.407 0.168,-0.582c0.113,-0.175 0.286,-0.315 0.519,-0.42c0.233,-0.104 0.523,-0.156 0.869,-0.156c0.241,0 0.477,0.033 0.708,0.099c0.232,0.066 0.432,0.158 0.6,0.275l-0.15,0.355c-0.177,-0.116 -0.366,-0.204 -0.567,-0.262c-0.201,-0.058 -0.398,-0.087 -0.591,-0.087c-0.37,0 -0.649,0.071 -0.836,0.214c-0.187,0.142 -0.28,0.326 -0.28,0.552c0,0.168 0.051,0.304 0.154,0.407c0.102,0.102 0.231,0.181 0.386,0.235c0.154,0.054 0.363,0.114 0.624,0.178c0.31,0.076 0.56,0.152 0.751,0.226c0.191,0.074 0.353,0.187 0.485,0.338c0.133,0.151 0.199,0.355 0.199,0.612c0,0.213 -0.057,0.407 -0.172,0.582c-0.114,0.175 -0.29,0.314 -0.527,0.416c-0.237,0.103 -0.529,0.154 -0.875,0.154Z" style="fill:#fff;fill-opacity:0.2;fill-rule:nonzero;"/><path d="M114.787,70.923c-0.418,0 -0.797,-0.094 -1.137,-0.281c-0.34,-0.187 -0.605,-0.443 -0.796,-0.769c-0.191,-0.325 -0.287,-0.691 -0.287,-1.097c0,-0.406 0.096,-0.772 0.287,-1.098c0.191,-0.326 0.456,-0.582 0.796,-0.769c0.34,-0.187 0.719,-0.28 1.137,-0.28c0.418,0 0.795,0.092 1.131,0.277c0.336,0.185 0.6,0.441 0.793,0.769c0.193,0.328 0.289,0.695 0.289,1.101c0,0.406 -0.096,0.773 -0.289,1.1c-0.193,0.328 -0.457,0.585 -0.793,0.769c-0.336,0.185 -0.713,0.278 -1.131,0.278Zm0,-0.398c0.334,0 0.635,-0.076 0.905,-0.226c0.269,-0.151 0.48,-0.36 0.633,-0.628c0.153,-0.267 0.229,-0.566 0.229,-0.895c0,-0.33 -0.076,-0.628 -0.229,-0.896c-0.153,-0.267 -0.364,-0.476 -0.633,-0.627c-0.27,-0.151 -0.571,-0.226 -0.905,-0.226c-0.334,0 -0.636,0.075 -0.908,0.226c-0.271,0.151 -0.484,0.36 -0.639,0.627c-0.155,0.268 -0.232,0.566 -0.232,0.896c0,0.329 0.077,0.628 0.232,0.895c0.155,0.268 0.368,0.477 0.639,0.628c0.272,0.15 0.574,0.226 0.908,0.226Z" style="fill:#fff;fill-opacity:0.2;fill-rule:nonzero;"/><path d="M121.53,66.665l0,4.222l-0.368,0l-2.714,-3.426l0,3.426l-0.446,0l0,-4.222l0.368,0l2.72,3.426l0,-3.426l0.44,0Z" style="fill:#fff;fill-opacity:0.2;fill-rule:nonzero;"/><path d="M122.863,70.259c0.092,0 0.169,0.032 0.229,0.094c0.06,0.062 0.091,0.14 0.091,0.232c0,0.048 -0.007,0.101 -0.022,0.157c-0.014,0.056 -0.035,0.121 -0.063,0.193l-0.253,0.832l-0.29,0l0.205,-0.874c-0.064,-0.02 -0.116,-0.058 -0.156,-0.112c-0.041,-0.054 -0.061,-0.119 -0.061,-0.196c0,-0.092 0.03,-0.17 0.091,-0.232c0.06,-0.062 0.136,-0.094 0.229,-0.094Z" style="fill:#fff;fill-opacity:0.2;fill-rule:nonzero;"/><path d="M128.412,69.759l-2.352,0l-0.507,1.128l-0.465,0l1.931,-4.222l0.44,0l1.93,4.222l-0.471,0l-0.506,-1.128Zm-0.163,-0.362l-1.013,-2.268l-1.014,2.268l2.027,0Z" style="fill:#fff;fill-opacity:0.2;fill-rule:nonzero;"/><path d="M131.862,70.923c-0.419,0 -0.795,-0.093 -1.131,-0.278c-0.336,-0.184 -0.599,-0.441 -0.79,-0.769c-0.191,-0.327 -0.287,-0.694 -0.287,-1.1c0,-0.406 0.096,-0.773 0.287,-1.101c0.191,-0.328 0.455,-0.584 0.793,-0.769c0.338,-0.185 0.716,-0.277 1.134,-0.277c0.313,0 0.603,0.052 0.868,0.156c0.266,0.105 0.491,0.258 0.676,0.459l-0.284,0.283c-0.329,-0.333 -0.746,-0.5 -1.248,-0.5c-0.334,0 -0.638,0.076 -0.911,0.229c-0.273,0.153 -0.488,0.362 -0.642,0.627c-0.155,0.266 -0.233,0.563 -0.233,0.893c0,0.329 0.078,0.627 0.233,0.892c0.154,0.266 0.369,0.475 0.642,0.628c0.273,0.152 0.577,0.229 0.911,0.229c0.506,0 0.923,-0.169 1.248,-0.507l0.284,0.284c-0.185,0.201 -0.411,0.355 -0.679,0.461c-0.267,0.107 -0.558,0.16 -0.871,0.16Z" style="fill:#fff;fill-opacity:0.2;fill-rule:nonzero;"/><path d="M135.131,67.051l-1.484,0l0,-0.386l3.414,0l0,0.386l-1.484,0l0,3.836l-0.446,0l0,-3.836Z" style="fill:#fff;fill-opacity:0.2;fill-rule:nonzero;"/><rect x="137.772" y="66.665" width="0.446" height="4.222" style="fill:#fff;fill-opacity:0.2;"/><path d="M141.439,70.923c-0.418,0 -0.797,-0.094 -1.137,-0.281c-0.339,-0.187 -0.605,-0.443 -0.796,-0.769c-0.191,-0.325 -0.286,-0.691 -0.286,-1.097c0,-0.406 0.095,-0.772 0.286,-1.098c0.191,-0.326 0.457,-0.582 0.796,-0.769c0.34,-0.187 0.719,-0.28 1.137,-0.28c0.419,0 0.796,0.092 1.131,0.277c0.336,0.185 0.6,0.441 0.793,0.769c0.193,0.328 0.29,0.695 0.29,1.101c0,0.406 -0.097,0.773 -0.29,1.1c-0.193,0.328 -0.457,0.585 -0.793,0.769c-0.335,0.185 -0.712,0.278 -1.131,0.278Zm0,-0.398c0.334,0 0.636,-0.076 0.905,-0.226c0.269,-0.151 0.481,-0.36 0.633,-0.628c0.153,-0.267 0.23,-0.566 0.23,-0.895c0,-0.33 -0.077,-0.628 -0.23,-0.896c-0.152,-0.267 -0.364,-0.476 -0.633,-0.627c-0.269,-0.151 -0.571,-0.226 -0.905,-0.226c-0.333,0 -0.636,0.075 -0.907,0.226c-0.272,0.151 -0.485,0.36 -0.64,0.627c-0.154,0.268 -0.232,0.566 -0.232,0.896c0,0.329 0.078,0.628 0.232,0.895c0.155,0.268 0.368,0.477 0.64,0.628c0.271,0.15 0.574,0.226 0.907,0.226Z" style="fill:#fff;fill-opacity:0.2;fill-rule:nonzero;"/><path d="M148.182,66.665l0,4.222l-0.368,0l-2.714,-3.426l0,3.426l-0.446,0l0,-4.222l0.368,0l2.72,3.426l0,-3.426l0.44,0Z" style="fill:#fff;fill-opacity:0.2;fill-rule:nonzero;"/></g></g><path d="M161.879,71.295c-0.062,0.252 -0.179,0.474 -0.331,0.665c-1.194,2.006 -4.234,1.086 -8.642,0.11c-0.736,-0.164 -0.536,0.824 -0.758,2.827c-0.144,1.303 -1.419,3.043 -2.757,2.712c-2.207,-0.545 0.355,-1.799 -0.51,-6.678c-0.462,-2.607 -3.117,-1.867 -2.534,-4.227l1.327,-5.373c0.227,-0.918 0.533,-1.78 1.834,-1.612c1.261,0.162 1.206,-0.799 2.974,-0.362l8.853,2.187c0.901,0.222 1.45,1.153 1.222,2.075c-0.094,0.381 -0.311,0.697 -0.592,0.926c0.429,0.41 0.639,1.035 0.485,1.662c-0.095,0.381 -0.311,0.696 -0.591,0.925c0.431,0.41 0.642,1.036 0.487,1.663c-0.113,0.456 -0.395,0.824 -0.761,1.055c0.296,0.398 0.424,0.921 0.294,1.445Z" style="fill:#ffdb5e;fill-rule:nonzero;"/><path d="M156.436,68.178l4.221,1.043c0.574,0.142 1.035,0.588 1.204,1.166c0.069,0.237 -0.064,0.49 -0.299,0.563c-0.234,0.074 -0.48,-0.061 -0.55,-0.299c-0.08,-0.274 -0.3,-0.486 -0.572,-0.553l-4.322,-1.068c-0.428,-0.106 -0.865,0.164 -0.973,0.602c-0.108,0.437 0.153,0.879 0.581,0.985l2.888,0.713c0.237,0.059 0.381,0.303 0.321,0.545c-0.06,0.242 -0.301,0.391 -0.538,0.332l-2.888,-0.713c-0.902,-0.223 -1.45,-1.153 -1.223,-2.075c0.127,-0.513 0.472,-0.91 0.906,-1.129c-0.226,-0.377 -0.31,-0.845 -0.195,-1.31c0.127,-0.515 0.474,-0.913 0.91,-1.131c-0.225,-0.376 -0.308,-0.842 -0.193,-1.306c0.139,-0.561 0.535,-0.989 1.027,-1.189c-0.184,-0.359 -0.25,-0.783 -0.145,-1.208c0.228,-0.921 1.146,-1.489 2.048,-1.267l2.69,0.665c0.574,0.142 1.036,0.588 1.205,1.165c0.07,0.238 -0.064,0.491 -0.298,0.564c-0.235,0.073 -0.481,-0.06 -0.551,-0.298c-0.08,-0.274 -0.3,-0.487 -0.572,-0.554l-2.691,-0.664c-0.428,-0.106 -0.864,0.164 -0.972,0.601c-0.108,0.438 0.152,0.88 0.58,0.985l3.192,0.789c0.574,0.142 1.036,0.589 1.205,1.166c0.069,0.238 -0.064,0.491 -0.299,0.564c-0.236,0.075 -0.481,-0.061 -0.55,-0.298c-0.081,-0.28 -0.296,-0.487 -0.572,-0.555l-3.466,-0.856c-0.428,-0.106 -0.864,0.164 -0.972,0.602c-0.108,0.438 0.152,0.879 0.58,0.985l3.97,0.981c0.574,0.142 1.036,0.588 1.204,1.165c0.07,0.238 -0.064,0.491 -0.298,0.564c-0.235,0.073 -0.481,-0.06 -0.55,-0.298c-0.082,-0.278 -0.296,-0.486 -0.573,-0.554l-4.078,-1.007c-0.428,-0.106 -0.864,0.164 -0.972,0.601c-0.109,0.438 0.151,0.88 0.58,0.986Z" style="fill:#ee9547;fill-rule:nonzero;"/></g><g opacity="0.2"><path d="M214.128,97.535c0,-2.07 -1.68,-3.75 -3.75,-3.75l-188.173,0c-2.07,0 -3.75,1.68 -3.75,3.75l0,18.521c0,2.069 1.68,3.75 3.75,3.75l188.173,0c2.07,0 3.75,-1.681 3.75,-3.75l0,-18.521Z" style="fill:#2d2a32;"/><g><clipPath id="_clip3"><path d="M214.128,97.535c0,-2.07 -1.68,-3.75 -3.75,-3.75l-188.173,0c-2.07,0 -3.75,1.68 -3.75,3.75l0,18.521c0,2.069 1.68,3.75 3.75,3.75l188.173,0c2.07,0 3.75,-1.681 3.75,-3.75l0,-18.521Z"/></clipPath><g clip-path="url(#_clip3)"><path id="path76" d="M35.971,101.611c0.219,0 0.417,0.088 0.56,0.232c0.143,0.143 0.233,0.341 0.233,0.56l0,8.784c0,0.219 -0.09,0.418 -0.233,0.561c-0.143,0.143 -0.341,0.232 -0.56,0.232l-9.312,0c-0.218,0 -0.417,-0.089 -0.56,-0.232c-0.143,-0.143 -0.232,-0.342 -0.232,-0.561l0,-8.784c0,-0.219 0.089,-0.417 0.232,-0.56c0.143,-0.144 0.342,-0.232 0.56,-0.232l9.312,0Zm-0.405,8.526l0,-2.472l-2.547,0c-0.259,0 -0.468,0.209 -0.468,0.466l0,2.007l0.603,0l0,-1.69c0,-0.1 0.08,-0.181 0.18,-0.181l0.423,0l0,1.87l0.603,0l0,-1.689c0,-0.1 0.08,-0.181 0.18,-0.181l0.423,0l0,1.87l0.603,0Zm-6.452,-1.87l0,-0.602l-1.582,0c-0.259,0 -0.468,0.209 -0.468,0.466l0,1.538c0,0.258 0.209,0.468 0.468,0.468l0,0.001l1.582,0l0,-0.603l-1.268,0c-0.099,0 -0.179,-0.082 -0.179,-0.181l0,-0.001l0,-0.904l0,-0.001c0,-0.1 0.08,-0.181 0.179,-0.181l1.268,0Zm2.487,1.869c0.258,0 0.467,-0.209 0.467,-0.467l0,-1.538c0,-0.257 -0.209,-0.466 -0.467,-0.466l-1.537,0c-0.259,0 -0.468,0.209 -0.468,0.466l0,1.538c0,0.258 0.209,0.467 0.468,0.467l1.537,0Zm-0.314,-1.869c0.099,0 0.179,0.081 0.179,0.181l0,0.905c0,0.1 -0.08,0.181 -0.179,0.181c-0.001,0 -0.001,-0.001 -0.002,-0.001l0,0.001l-0.905,0l0,-0.001l-0.001,0.001c-0.1,0 -0.18,-0.081 -0.18,-0.181l0,-0.905c0,-0.1 0.08,-0.181 0.18,-0.181l0.908,0Zm3.807,-1.204c0.261,0 0.474,-0.212 0.474,-0.475l0,-2.661c0,-0.262 -0.213,-0.475 -0.474,-0.475l-1.56,0c-0.263,0 -0.475,0.213 -0.475,0.475l0,1.56c0,0.262 0.212,0.474 0.475,0.474l1.055,0l0,-0.611l-0.736,0c-0.1,0 -0.182,-0.082 -0.182,-0.183l0,-0.92c0,-0.101 0.082,-0.183 0.182,-0.183l0.921,0c0.102,0 0.183,0.082 0.183,0.183l0,2.021c0,0.101 -0.081,0.183 -0.183,0.183l-1.715,0l0,0.612l2.035,0Zm-5.997,0c0.262,0 0.474,-0.212 0.474,-0.475l0,-2.661c0,-0.262 -0.212,-0.475 -0.474,-0.475l-1.56,0c-0.263,0 -0.475,0.213 -0.475,0.475l0,1.56c0,0.262 0.212,0.474 0.475,0.474l1.055,0l0,-0.611l-0.736,0c-0.101,0 -0.182,-0.082 -0.182,-0.183l0,-0.92c0,-0.101 0.081,-0.183 0.182,-0.183l0.922,0c0.101,0 0.182,0.082 0.182,0.183l0,2.021c0,0.101 -0.081,0.183 -0.182,0.183l-1.716,0l0,0.612l2.035,0Zm2.998,-1.102c0.262,0 0.475,-0.212 0.475,-0.474l0,-1.56c0,-0.262 -0.213,-0.475 -0.475,-0.475l-1.56,0c-0.262,0 -0.474,0.213 -0.474,0.475l0,1.56c0,0.262 0.212,0.474 0.474,0.474l1.56,0Zm-0.319,-1.897c0.101,0 0.18,0.082 0.18,0.183l0,0.92c0,0.101 -0.079,0.183 -0.18,0.183l-0.921,0c-0.102,0 -0.182,-0.082 -0.182,-0.183l0,-0.92c0,-0.101 0.08,-0.183 0.182,-0.183l0.921,0Z" style="fill:#fff;fill-opacity:0.4;fill-rule:nonzero;"/><path d="M47.277,106.003c0.818,0 1.422,0.167 1.814,0.5c0.392,0.334 0.588,0.779 0.588,1.335c0,0.361 -0.093,0.693 -0.279,0.996c-0.187,0.303 -0.47,0.545 -0.851,0.726c-0.381,0.18 -0.852,0.271 -1.413,0.271c-0.412,0 -0.819,-0.05 -1.222,-0.15c-0.403,-0.101 -0.749,-0.242 -1.038,-0.426l0.592,-1.242c0.233,0.155 0.49,0.275 0.771,0.358c0.281,0.084 0.563,0.125 0.847,0.125c0.283,0 0.51,-0.054 0.679,-0.162c0.17,-0.109 0.255,-0.26 0.255,-0.455c0,-0.194 -0.084,-0.342 -0.251,-0.442c-0.166,-0.1 -0.461,-0.15 -0.884,-0.15l-1.584,0l0.292,-3.411l3.719,0l0,1.276l-2.352,0l-0.075,0.851l0.392,0Z" style="fill:#fff;fill-opacity:0.7;fill-rule:nonzero;"/><path d="M51.047,109.789c-0.267,0 -0.492,-0.089 -0.676,-0.267c-0.183,-0.178 -0.275,-0.403 -0.275,-0.675c0,-0.278 0.09,-0.504 0.271,-0.676c0.181,-0.172 0.407,-0.258 0.68,-0.258c0.278,0 0.506,0.086 0.684,0.258c0.177,0.172 0.266,0.398 0.266,0.676c0,0.272 -0.09,0.497 -0.271,0.675c-0.18,0.178 -0.407,0.267 -0.679,0.267Z" style="fill:#fff;fill-opacity:0.7;fill-rule:nonzero;"/><path d="M54.975,109.831c-0.501,0 -0.946,-0.12 -1.335,-0.359c-0.389,-0.239 -0.693,-0.588 -0.913,-1.047c-0.22,-0.458 -0.329,-1.002 -0.329,-1.63c0,-0.628 0.109,-1.172 0.329,-1.63c0.22,-0.459 0.524,-0.808 0.913,-1.047c0.389,-0.239 0.834,-0.358 1.335,-0.358c0.494,0 0.936,0.119 1.325,0.358c0.39,0.239 0.694,0.588 0.914,1.047c0.219,0.458 0.329,1.002 0.329,1.63c0,0.628 -0.11,1.172 -0.329,1.63c-0.22,0.459 -0.524,0.808 -0.914,1.047c-0.389,0.239 -0.831,0.359 -1.325,0.359Zm0,-1.351c0.278,0 0.498,-0.135 0.663,-0.405c0.164,-0.269 0.246,-0.696 0.246,-1.28c0,-0.584 -0.082,-1.01 -0.246,-1.28c-0.165,-0.27 -0.385,-0.404 -0.663,-0.404c-0.284,0 -0.508,0.134 -0.672,0.404c-0.164,0.27 -0.246,0.696 -0.246,1.28c0,0.584 0.082,1.011 0.246,1.28c0.164,0.27 0.388,0.405 0.672,0.405Z" style="fill:#fff;fill-opacity:0.7;fill-rule:nonzero;"/><path d="M60.687,109.831c-0.5,0 -0.945,-0.12 -1.334,-0.359c-0.389,-0.239 -0.694,-0.588 -0.913,-1.047c-0.22,-0.458 -0.33,-1.002 -0.33,-1.63c0,-0.628 0.11,-1.172 0.33,-1.63c0.219,-0.459 0.524,-0.808 0.913,-1.047c0.389,-0.239 0.834,-0.358 1.334,-0.358c0.495,0 0.937,0.119 1.326,0.358c0.389,0.239 0.693,0.588 0.913,1.047c0.22,0.458 0.329,1.002 0.329,1.63c0,0.628 -0.109,1.172 -0.329,1.63c-0.22,0.459 -0.524,0.808 -0.913,1.047c-0.389,0.239 -0.831,0.359 -1.326,0.359Zm0,-1.351c0.278,0 0.499,-0.135 0.663,-0.405c0.164,-0.269 0.246,-0.696 0.246,-1.28c0,-0.584 -0.082,-1.01 -0.246,-1.28c-0.164,-0.27 -0.385,-0.404 -0.663,-0.404c-0.284,0 -0.507,0.134 -0.671,0.404c-0.164,0.27 -0.246,0.696 -0.246,1.28c0,0.584 0.082,1.011 0.246,1.28c0.164,0.27 0.387,0.405 0.671,0.405Z" style="fill:#fff;fill-opacity:0.7;fill-rule:nonzero;"/><path d="M67.859,108.463c0.539,0 0.998,-0.228 1.376,-0.684l1.051,0.951c-0.284,0.356 -0.64,0.628 -1.068,0.817c-0.428,0.189 -0.909,0.284 -1.443,0.284c-0.483,0 -0.934,-0.085 -1.351,-0.255c-0.417,-0.169 -0.772,-0.408 -1.067,-0.717c-0.295,-0.308 -0.509,-0.668 -0.642,-1.08l-0.926,0l0,-0.817l0.776,0l0,-0.167l0,-0.167l-0.776,0l0,-0.817l0.926,0c0.133,-0.411 0.347,-0.771 0.642,-1.08c0.295,-0.308 0.65,-0.547 1.067,-0.717c0.417,-0.17 0.868,-0.254 1.351,-0.254c0.534,0 1.015,0.094 1.443,0.283c0.428,0.189 0.784,0.462 1.068,0.817l-1.051,0.951c-0.378,-0.456 -0.837,-0.684 -1.376,-0.684c-0.295,0 -0.559,0.06 -0.792,0.18c-0.234,0.119 -0.42,0.287 -0.559,0.504l1.784,0l0,0.817l-2.051,0c-0.006,0.039 -0.008,0.095 -0.008,0.167c0,0.072 0.002,0.128 0.008,0.167l2.051,0l0,0.817l-1.784,0c0.139,0.217 0.325,0.385 0.559,0.505c0.233,0.119 0.497,0.179 0.792,0.179Z" style="fill:#fff;fill-opacity:0.7;fill-rule:nonzero;"/><path d="M79.039,108.52c-0.313,0 -0.614,-0.05 -0.901,-0.151c-0.288,-0.1 -0.51,-0.233 -0.667,-0.398l0.175,-0.344c0.153,0.153 0.356,0.277 0.609,0.371c0.254,0.095 0.515,0.142 0.784,0.142c0.378,0 0.662,-0.069 0.851,-0.208c0.189,-0.139 0.283,-0.319 0.283,-0.54c0,-0.169 -0.051,-0.303 -0.154,-0.404c-0.102,-0.1 -0.228,-0.178 -0.376,-0.232c-0.149,-0.054 -0.356,-0.114 -0.622,-0.178c-0.317,-0.08 -0.571,-0.158 -0.76,-0.232c-0.189,-0.075 -0.35,-0.188 -0.485,-0.341c-0.135,-0.153 -0.202,-0.36 -0.202,-0.621c0,-0.213 0.056,-0.407 0.169,-0.582c0.112,-0.175 0.285,-0.315 0.518,-0.419c0.234,-0.105 0.523,-0.157 0.869,-0.157c0.241,0 0.477,0.033 0.709,0.099c0.231,0.067 0.431,0.158 0.6,0.275l-0.151,0.356c-0.177,-0.117 -0.366,-0.204 -0.567,-0.263c-0.201,-0.058 -0.398,-0.087 -0.591,-0.087c-0.37,0 -0.649,0.071 -0.835,0.214c-0.187,0.143 -0.281,0.327 -0.281,0.552c0,0.169 0.051,0.304 0.154,0.407c0.102,0.102 0.231,0.181 0.386,0.235c0.155,0.054 0.363,0.114 0.624,0.178c0.31,0.076 0.56,0.152 0.751,0.226c0.191,0.075 0.353,0.187 0.486,0.338c0.132,0.151 0.199,0.355 0.199,0.612c0,0.213 -0.058,0.407 -0.172,0.582c-0.115,0.175 -0.291,0.314 -0.528,0.416c-0.237,0.103 -0.529,0.154 -0.875,0.154Z" style="fill:#fff;fill-opacity:0.2;fill-rule:nonzero;"/><path d="M82.345,104.648l-1.484,0l0,-0.386l3.414,0l0,0.386l-1.484,0l0,3.836l-0.446,0l0,-3.836Z" style="fill:#fff;fill-opacity:0.2;fill-rule:nonzero;"/><path d="M86.772,108.52c-0.419,0 -0.798,-0.093 -1.137,-0.28c-0.34,-0.187 -0.606,-0.444 -0.797,-0.769c-0.191,-0.326 -0.286,-0.692 -0.286,-1.098c0,-0.406 0.095,-0.772 0.286,-1.098c0.191,-0.325 0.457,-0.582 0.797,-0.769c0.339,-0.187 0.718,-0.28 1.137,-0.28c0.418,0 0.795,0.092 1.13,0.277c0.336,0.185 0.601,0.442 0.794,0.769c0.193,0.328 0.289,0.695 0.289,1.101c0,0.406 -0.096,0.773 -0.289,1.101c-0.193,0.327 -0.458,0.584 -0.794,0.769c-0.335,0.185 -0.712,0.277 -1.13,0.277Zm0,-0.398c0.333,0 0.635,-0.075 0.904,-0.226c0.27,-0.151 0.481,-0.36 0.634,-0.627c0.152,-0.268 0.229,-0.566 0.229,-0.896c0,-0.33 -0.077,-0.628 -0.229,-0.896c-0.153,-0.267 -0.364,-0.476 -0.634,-0.627c-0.269,-0.151 -0.571,-0.226 -0.904,-0.226c-0.334,0 -0.637,0.075 -0.908,0.226c-0.272,0.151 -0.485,0.36 -0.64,0.627c-0.154,0.268 -0.232,0.566 -0.232,0.896c0,0.33 0.078,0.628 0.232,0.896c0.155,0.267 0.368,0.476 0.64,0.627c0.271,0.151 0.574,0.226 0.908,0.226Z" style="fill:#fff;fill-opacity:0.2;fill-rule:nonzero;"/><path d="M92.869,108.484l-0.965,-1.357c-0.108,0.012 -0.221,0.018 -0.338,0.018l-1.133,0l0,1.339l-0.447,0l0,-4.222l1.58,0c0.539,0 0.961,0.129 1.267,0.386c0.306,0.257 0.458,0.611 0.458,1.062c0,0.329 -0.083,0.608 -0.25,0.835c-0.167,0.227 -0.405,0.391 -0.715,0.491l1.032,1.448l-0.489,0Zm-1.315,-1.719c0.419,0 0.738,-0.092 0.959,-0.277c0.221,-0.185 0.332,-0.445 0.332,-0.778c0,-0.342 -0.111,-0.605 -0.332,-0.788c-0.221,-0.183 -0.54,-0.274 -0.959,-0.274l-1.121,0l0,2.117l1.121,0Z" style="fill:#fff;fill-opacity:0.2;fill-rule:nonzero;"/><path d="M95.734,107.024l0,1.46l-0.44,0l0,-1.46l-1.689,-2.762l0.476,0l1.448,2.37l1.448,-2.37l0.446,0l-1.689,2.762Z" style="fill:#fff;fill-opacity:0.2;fill-rule:nonzero;"/><path d="M97.857,107.857c0.093,0 0.169,0.031 0.229,0.093c0.061,0.062 0.091,0.14 0.091,0.232c0,0.049 -0.007,0.101 -0.021,0.157c-0.014,0.056 -0.036,0.121 -0.064,0.193l-0.253,0.832l-0.29,0l0.206,-0.874c-0.065,-0.02 -0.117,-0.057 -0.157,-0.112c-0.04,-0.054 -0.061,-0.119 -0.061,-0.196c0,-0.092 0.031,-0.17 0.091,-0.232c0.06,-0.062 0.137,-0.093 0.229,-0.093Z" style="fill:#fff;fill-opacity:0.2;fill-rule:nonzero;"/><path d="M105.143,104.262l0,4.222l-0.428,0l0,-3.378l-1.659,2.841l-0.211,0l-1.659,-2.823l0,3.36l-0.428,0l0,-4.222l0.368,0l1.834,3.13l1.815,-3.13l0.368,0Z" style="fill:#fff;fill-opacity:0.2;fill-rule:nonzero;"/><path d="M108.219,108.52c-0.547,0 -0.973,-0.157 -1.279,-0.47c-0.305,-0.314 -0.458,-0.77 -0.458,-1.369l0,-2.419l0.446,0l0,2.4c0,0.491 0.111,0.857 0.332,1.098c0.221,0.241 0.541,0.362 0.959,0.362c0.422,0 0.744,-0.121 0.965,-0.362c0.221,-0.241 0.332,-0.607 0.332,-1.098l0,-2.4l0.434,0l0,2.419c0,0.599 -0.152,1.055 -0.455,1.369c-0.304,0.313 -0.729,0.47 -1.276,0.47Z" style="fill:#fff;fill-opacity:0.2;fill-rule:nonzero;"/><path d="M111.295,104.262l0.446,0l0,3.836l2.364,0l0,0.386l-2.81,0l0,-4.222Z" style="fill:#fff;fill-opacity:0.2;fill-rule:nonzero;"/><path d="M115.276,104.648l-1.484,0l0,-0.386l3.414,0l0,0.386l-1.484,0l0,3.836l-0.446,0l0,-3.836Z" style="fill:#fff;fill-opacity:0.2;fill-rule:nonzero;"/><rect x="117.917" y="104.262" width="0.446" height="4.222" style="fill:#fff;fill-opacity:0.2;"/><path d="M121.319,104.262c0.539,0 0.961,0.129 1.266,0.386c0.306,0.257 0.459,0.611 0.459,1.062c0,0.45 -0.153,0.803 -0.459,1.058c-0.305,0.255 -0.727,0.383 -1.266,0.383l-1.134,0l0,1.333l-0.446,0l0,-4.222l1.58,0Zm-0.012,2.497c0.418,0 0.738,-0.092 0.959,-0.274c0.221,-0.183 0.332,-0.442 0.332,-0.775c0,-0.342 -0.111,-0.605 -0.332,-0.788c-0.221,-0.183 -0.541,-0.274 -0.959,-0.274l-1.122,0l0,2.111l1.122,0Z" style="fill:#fff;fill-opacity:0.2;fill-rule:nonzero;"/><path d="M124.009,104.262l0.446,0l0,3.836l2.364,0l0,0.386l-2.81,0l0,-4.222Z" style="fill:#fff;fill-opacity:0.2;fill-rule:nonzero;"/></g></g><path d="M135.074,107.932c0.036,-0.257 0.009,-0.507 -0.061,-0.74c-0.364,-2.306 -3.529,-2.581 -7.983,-3.31c-0.745,-0.122 -0.192,-0.964 0.345,-2.907c0.35,-1.263 -0.188,-3.352 -1.553,-3.542c-2.252,-0.313 -0.338,1.802 -2.953,6.012c-1.397,2.25 -3.587,0.576 -3.922,2.984l-0.762,5.481c-0.131,0.938 -0.166,1.851 1.104,2.179c1.231,0.317 0.823,1.189 2.627,1.44l9.032,1.256c0.92,0.128 1.775,-0.533 1.905,-1.473c0.055,-0.39 -0.03,-0.763 -0.206,-1.081c0.552,-0.221 0.979,-0.723 1.067,-1.362c0.055,-0.389 -0.029,-0.762 -0.205,-1.079c0.553,-0.221 0.981,-0.723 1.07,-1.364c0.065,-0.464 -0.061,-0.911 -0.315,-1.261c0.422,-0.26 0.735,-0.698 0.81,-1.233Z" style="fill:#ffdb5e;fill-rule:nonzero;"/><path d="M128.862,108.806l4.307,0.599c0.586,0.081 1.18,-0.163 1.551,-0.636c0.152,-0.195 0.122,-0.479 -0.069,-0.634c-0.19,-0.156 -0.469,-0.122 -0.622,0.073c-0.175,0.225 -0.458,0.34 -0.736,0.302l-4.41,-0.613c-0.437,-0.061 -0.742,-0.474 -0.68,-0.92c0.063,-0.446 0.468,-0.76 0.905,-0.699l2.947,0.409c0.242,0.034 0.466,-0.139 0.5,-0.386c0.035,-0.247 -0.134,-0.475 -0.376,-0.509l-2.947,-0.409c-0.92,-0.128 -1.774,0.532 -1.905,1.472c-0.073,0.524 0.1,1.021 0.422,1.385c-0.351,0.266 -0.602,0.669 -0.668,1.144c-0.073,0.526 0.102,1.024 0.425,1.388c-0.348,0.266 -0.598,0.668 -0.663,1.141c-0.08,0.573 0.13,1.117 0.512,1.485c-0.304,0.265 -0.523,0.635 -0.583,1.068c-0.131,0.94 0.511,1.809 1.431,1.937l2.745,0.381c0.586,0.082 1.18,-0.162 1.551,-0.635c0.153,-0.195 0.123,-0.479 -0.067,-0.634c-0.191,-0.154 -0.469,-0.123 -0.622,0.072c-0.177,0.225 -0.46,0.341 -0.737,0.302l-2.745,-0.381c-0.437,-0.061 -0.742,-0.474 -0.68,-0.92c0.062,-0.446 0.468,-0.76 0.905,-0.699l3.256,0.452c0.586,0.082 1.181,-0.162 1.551,-0.635c0.154,-0.196 0.123,-0.48 -0.067,-0.634c-0.192,-0.158 -0.47,-0.123 -0.622,0.072c-0.179,0.229 -0.455,0.342 -0.737,0.303l-3.536,-0.492c-0.437,-0.061 -0.741,-0.474 -0.679,-0.92c0.062,-0.447 0.468,-0.76 0.904,-0.699l4.05,0.563c0.586,0.081 1.18,-0.162 1.551,-0.635c0.154,-0.195 0.123,-0.479 -0.067,-0.635c-0.191,-0.154 -0.469,-0.122 -0.622,0.073c-0.179,0.228 -0.455,0.341 -0.737,0.302l-4.161,-0.579c-0.437,-0.06 -0.742,-0.473 -0.68,-0.919c0.063,-0.447 0.468,-0.761 0.905,-0.7Z" style="fill:#ee9547;fill-rule:nonzero;"/></g></g></svg>