<?xml version="1.0" encoding="UTF-8" standalone="no"?><!DOCTYPE svg PUBLIC "-//W3C//DTD SVG 1.1//EN" "http://www.w3.org/Graphics/SVG/1.1/DTD/svg11.dtd"><svg width="100%" height="100%" viewBox="0 0 288 88" version="1.1" xmlns="http://www.w3.org/2000/svg" xmlns:xlink="http://www.w3.org/1999/xlink" xml:space="preserve" xmlns:serif="http://www.serif.com/" style="fill-rule:evenodd;clip-rule:evenodd;stroke-linecap:round;stroke-linejoin:round;stroke-miterlimit:1.5;"><g><path d="M106.335,37.296l-16.241,0l0,-4.226l37.369,0l0,4.226l-16.242,0l0,41.99l-4.886,0l0,-41.99Z" style="fill-rule:nonzero;"/><path d="M152.947,79.682c-5.986,0 -10.651,-1.717 -13.997,-5.15c-3.345,-3.433 -5.017,-8.429 -5.017,-14.987l0,-26.475l4.885,0l0,26.277c0,5.37 1.211,9.375 3.632,12.016c2.42,2.641 5.92,3.962 10.497,3.962c4.622,0 8.143,-1.321 10.564,-3.962c2.421,-2.641 3.631,-6.646 3.631,-12.016l0,-26.277l4.754,0l0,26.475c0,6.558 -1.662,11.554 -4.985,14.987c-3.323,3.433 -7.978,5.15 -13.964,5.15Z" style="fill-rule:nonzero;"/><path d="M186.619,33.07l18.816,0c4.886,0 9.199,0.979 12.941,2.938c3.741,1.959 6.646,4.688 8.715,8.187c2.068,3.499 3.103,7.493 3.103,11.983c0,4.49 -1.035,8.484 -3.103,11.983c-2.069,3.499 -4.974,6.228 -8.715,8.187c-3.742,1.959 -8.055,2.938 -12.941,2.938l-18.816,0l0,-46.216Zm18.552,41.99c4.049,0 7.593,-0.803 10.63,-2.409c3.037,-1.607 5.392,-3.83 7.064,-6.669c1.673,-2.839 2.509,-6.107 2.509,-9.804c0,-3.697 -0.836,-6.965 -2.509,-9.804c-1.672,-2.839 -4.027,-5.062 -7.064,-6.669c-3.037,-1.606 -6.581,-2.409 -10.63,-2.409l-13.667,0l0,37.764l13.667,0Z" style="fill-rule:nonzero;"/><path d="M273.835,75.06l0,4.226l-32.682,0l0,-46.216l31.691,0l0,4.226l-26.805,0l0,16.439l23.9,0l0,4.16l-23.9,0l0,17.165l27.796,0Z" style="fill-rule:nonzero;"/><path d="M119.446,0l-5.543,17.324l-6.262,0l-2.797,-9.256l-2.945,9.256l-6.261,0l-5.544,-17.324l6.014,0l3.019,9.85l3.193,-9.85l5.37,0l3.02,9.974l3.193,-9.974l5.543,0Z" style="fill-rule:nonzero;"/><path d="M135.137,12.919l0,4.405l-14.404,0l0,-17.324l14.083,0l0,4.405l-8.341,0l0,2.03l7.326,0l0,4.207l-7.326,0l0,2.277l8.662,0Z" style="fill-rule:nonzero;"/><path d="M156.62,14.305l-6.583,0l-1.164,3.019l-5.94,0l7.574,-17.324l5.742,0l7.573,17.324l-6.039,0l-1.163,-3.019Zm-1.609,-4.207l-1.683,-4.356l-1.683,4.356l3.366,0Z" style="fill-rule:nonzero;"/><path d="M172.187,12.969l-1.584,0l0,4.355l-5.841,0l0,-17.324l8.341,0c1.6,0 2.995,0.264 4.182,0.792c1.188,0.528 2.104,1.287 2.748,2.277c0.643,0.99 0.965,2.145 0.965,3.465c0,1.237 -0.281,2.318 -0.842,3.242c-0.561,0.924 -1.369,1.658 -2.425,2.203l3.638,5.345l-6.237,0l-2.945,-4.355Zm2.921,-6.435c0,-0.644 -0.198,-1.143 -0.594,-1.498c-0.396,-0.354 -0.99,-0.532 -1.782,-0.532l-2.129,0l0,4.059l2.129,0c0.792,0 1.386,-0.177 1.782,-0.532c0.396,-0.355 0.594,-0.854 0.594,-1.497Z" style="fill-rule:nonzero;"/><path d="M197.605,12.919l0,4.405l-14.404,0l0,-17.324l14.082,0l0,4.405l-8.341,0l0,2.03l7.326,0l0,4.207l-7.326,0l0,2.277l8.663,0Z" style="fill-rule:nonzero;"/><g id="Club"><path d="M50.519,75.318c-13.373,4.778 -27.92,-0.574 -35.238,-12.074c-1.176,-1.847 -2.165,-3.854 -2.932,-6.003c-5.545,-15.522 2.555,-32.625 18.077,-38.17c15.521,-5.545 32.625,2.555 38.17,18.077" style="fill:none;stroke:#000;stroke-width:3.6px;"/><path d="M62.448,79.616c-1.092,-2.398 -1.668,-5.189 -1.668,-8.437c0,-10.908 6.542,-20.897 17.377,-28.605" style="fill:none;stroke:#000;stroke-width:3.6px;"/><circle cx="36.424" cy="36.453" r="5.535" style="stroke:#000;stroke-width:3.6px;"/></g></g></svg>