<?xml version="1.0" encoding="UTF-8" standalone="no"?><!DOCTYPE svg PUBLIC "-//W3C//DTD SVG 1.1//EN" "http://www.w3.org/Graphics/SVG/1.1/DTD/svg11.dtd"><svg width="100%" height="100%" viewBox="0 0 256 256" version="1.1" xmlns="http://www.w3.org/2000/svg" xmlns:xlink="http://www.w3.org/1999/xlink" xml:space="preserve" xmlns:serif="http://www.serif.com/" style="fill-rule:evenodd;clip-rule:evenodd;stroke-linejoin:round;stroke-miterlimit:2;"><path d="M128,0c-70.579,0 -128,57.421 -128,128c0,70.592 57.421,128 128,128c26.099,0 51.11,-7.706 72.346,-22.285l-14.477,-21.094c-16.973,11.622 -36.967,17.779 -57.869,17.779c-56.461,0 -102.4,-45.939 -102.4,-102.4c0,-56.461 45.939,-102.4 102.4,-102.4c56.461,0 102.4,45.939 102.4,102.4l0,10.01c0,17.766 -7.654,28.39 -20.48,28.39l-0.026,0.23c-0.768,-0.166 -1.6,-0.23 -2.419,-0.23l-2.675,0c-7.206,0 -17.92,-10.47 -17.92,-17.523l0,-20.877c0,-32.461 -26.406,-58.88 -58.88,-58.88c-32.474,0 -58.88,26.406 -58.88,58.88c0,32.474 26.406,58.88 58.88,58.88c15.795,0 30.08,-6.323 40.666,-16.474c8.307,12.237 22.438,21.594 36.134,21.594l0.026,-0.243c0.793,0.166 1.625,0.243 2.47,0.243l2.624,0c27.546,0 46.08,-21.683 46.08,-53.99l0,-10.01c0,-70.579 -57.421,-128 -128,-128Zm0,161.267c-18.355,0 -33.28,-14.925 -33.28,-33.28c0,-18.355 14.925,-33.28 33.28,-33.28c18.355,0 33.28,14.925 33.28,33.28c0,18.355 -14.925,33.28 -33.28,33.28Z" style="fill:currentColor;fill-rule:nonzero;"/></svg>