<?xml version="1.0" encoding="UTF-8" standalone="no"?><!DOCTYPE svg PUBLIC "-//W3C//DTD SVG 1.1//EN" "http://www.w3.org/Graphics/SVG/1.1/DTD/svg11.dtd"><svg width="100%" height="100%" viewBox="0 0 256 256" version="1.1" xmlns="http://www.w3.org/2000/svg" xmlns:xlink="http://www.w3.org/1999/xlink" xml:space="preserve" xmlns:serif="http://www.serif.com/" style="fill-rule:evenodd;clip-rule:evenodd;stroke-linejoin:round;stroke-miterlimit:2;"><path d="M76.817,155.137c2.934,-0.483 5.931,0.367 8.174,2.319c8.718,7.559 31.883,27.715 40.751,35.431c2.377,2.069 3.641,5.136 3.41,8.279c-1.075,12.919 -7.022,26.217 -17.64,36.835c-21.292,21.292 -66.366,24.054 -85.06,6.357c-7.036,-6.66 -23.5,-16.854 -26.251,-60.725c-0.047,-0.747 0.327,-1.458 0.97,-1.842c0.642,-0.384 1.445,-0.376 2.081,0.019c36.358,22.632 20.955,16.56 42.3,-9.768c8.112,-10.007 19.94,-15.005 31.265,-16.905Zm17.317,-11.398c-2.121,-1.846 -4.667,-9.602 -4.648,-12.842c0.083,-14.19 6.351,-27.637 17.164,-36.826c33.41,-28.392 78.033,-66.311 102.785,-87.345c10.648,-9.049 26.311,-8.957 36.853,0.215c0,0 0,0.001 0,0.001c10.542,9.172 12.798,24.672 5.308,36.469c-17.41,27.422 -48.797,76.859 -72.297,113.873c-7.605,11.98 -20.057,20.046 -34.099,22.09c-3.207,0.467 -10.408,-0.969 -13.361,-2.828l-37.705,-32.807Z" style="fill:currentColor;"/></svg>