<?xml version="1.0" encoding="UTF-8" standalone="no"?><!DOCTYPE svg PUBLIC "-//W3C//DTD SVG 1.1//EN" "http://www.w3.org/Graphics/SVG/1.1/DTD/svg11.dtd"><svg width="100%" height="100%" viewBox="0 0 256 256" version="1.1" xmlns="http://www.w3.org/2000/svg" xmlns:xlink="http://www.w3.org/1999/xlink" xml:space="preserve" xmlns:serif="http://www.serif.com/" style="fill-rule:evenodd;clip-rule:evenodd;stroke-linejoin:round;stroke-miterlimit:2;"><path d="M43.801,170.22c-8.483,0.003 -14.808,0.004 -14.808,0.004c-16.002,0 -28.993,-12.991 -28.993,-28.993l0,-41.991c0,-16.001 12.991,-28.993 28.993,-28.993c0,0 57.797,0.013 58.29,0.037c31.761,-0.09 64.441,-1.203 90.175,-18.521c14.56,-9.799 27.134,-22.255 40.979,-33.451c0,0 4.111,-3.417 8.294,-3.836c1.678,-0.168 2.078,-0.042 2.618,-0.009c2.665,0.334 3.087,0.596 4.212,1.089c4.269,1.873 7.421,6.038 8.035,10.696c0.101,0.771 0.089,0.968 0.117,1.743l0.187,67.708c8.34,4.359 14.1,13.659 14.1,24.428c0,10.768 -5.76,20.068 -14.099,24.427l-0.188,67.918c-0.028,0.775 -0.016,0.972 -0.117,1.742c-1.161,8.802 -12.437,14.844 -20.615,9.843c-2.311,-1.413 -2.613,-1.957 -3.65,-2.798c-19.74,-16.055 -37.399,-35.24 -61.444,-43.182c-17.09,-5.645 -35.282,-7.25 -53.691,-7.713c-5.827,32.624 3.71,39.421 8.098,47.207c11.202,19.874 -2.589,24.031 -23.621,24.031c-12.819,0 -25.48,0.289 -30.278,-4.573c-14.096,-14.284 -14.093,-54.158 -12.594,-66.813Zm170.919,-49.985l-0.175,-63.032c-11.653,9.954 -23.715,19.619 -37.544,26.084c-19.372,9.056 -40.635,12.344 -62.311,13.549c0.066,0.793 0.099,1.595 0.099,2.404l0,41.991c0,0.833 -0.035,1.659 -0.105,2.475c28.086,1.648 55.653,6.843 79.743,23.597c6.896,4.796 13.346,10.192 19.733,15.637l0.385,0.328l0.175,-63.033Z" style="fill:currentColor;"/></svg>