<?xml version="1.0" encoding="UTF-8" standalone="no"?><!DOCTYPE svg PUBLIC "-//W3C//DTD SVG 1.1//EN" "http://www.w3.org/Graphics/SVG/1.1/DTD/svg11.dtd"><svg width="100%" height="100%" viewBox="0 0 256 256" version="1.1" xmlns="http://www.w3.org/2000/svg" xmlns:xlink="http://www.w3.org/1999/xlink" xml:space="preserve" xmlns:serif="http://www.serif.com/" style="fill-rule:evenodd;clip-rule:evenodd;stroke-linejoin:round;stroke-miterlimit:2;"><g><path d="M256,106.431c0,-5.835 -4.737,-10.572 -10.573,-10.572l-182.814,0c-5.835,0 -10.573,4.737 -10.573,10.572l0,84.582c0,5.836 4.738,10.573 10.573,10.573l182.814,0c5.836,0 10.573,-4.737 10.573,-10.573l0,-84.582Z" style="fill:#fff;"/><path d="M197.376,69.435c0,-7.727 -6.274,-14 -14,-14l-117.336,0c-7.726,0 -14,6.273 -14,14c0,7.727 6.274,14 14,14l117.336,0c7.726,0 14,-6.273 14,-14Z" style="fill:#fff;"/><circle cx="22.548" cy="69.435" r="22.548" style="fill:#fff;"/></g></svg>