<?xml version="1.0" encoding="UTF-8" standalone="no"?><!DOCTYPE svg PUBLIC "-//W3C//DTD SVG 1.1//EN" "http://www.w3.org/Graphics/SVG/1.1/DTD/svg11.dtd"><svg width="100%" height="100%" viewBox="0 0 256 256" version="1.1" xmlns="http://www.w3.org/2000/svg" xmlns:xlink="http://www.w3.org/1999/xlink" xml:space="preserve" xmlns:serif="http://www.serif.com/" style="fill-rule:evenodd;clip-rule:evenodd;stroke-linecap:round;stroke-linejoin:round;stroke-miterlimit:1.5;"><g><circle cx="128" cy="128" r="77.321" style="fill:none;stroke:#000;stroke-width:10px;"/><path d="M158.897,146.229c0,6.038 -2.274,11.158 -6.822,15.362c-4.547,4.204 -11.139,6.649 -19.776,7.337l0,12.955l-7.337,0l0,-12.955c-5.579,-0.305 -10.872,-1.356 -15.878,-3.152c-5.007,-1.797 -9,-4.07 -11.981,-6.822l4.242,-8.942c2.752,2.522 6.229,4.605 10.433,6.248c4.203,1.643 8.598,2.618 13.184,2.923l0,-26.597c-5.35,-1.3 -9.802,-2.713 -13.356,-4.242c-3.554,-1.529 -6.535,-3.783 -8.943,-6.764c-2.407,-2.981 -3.611,-6.879 -3.611,-11.694c0,-6.038 2.197,-11.159 6.592,-15.362c4.395,-4.204 10.834,-6.65 19.318,-7.338l0,-13.069l7.337,0l0,12.955c4.357,0.153 8.579,0.84 12.668,2.063c4.089,1.223 7.624,2.866 10.605,4.93l-3.783,9.172c-6.191,-3.898 -12.688,-6.038 -19.49,-6.42l0,26.712c5.58,1.376 10.165,2.809 13.758,4.299c3.592,1.49 6.63,3.707 9.114,6.649c2.484,2.943 3.726,6.86 3.726,11.752Zm-48.61,-36.801c0,3.286 1.261,5.846 3.784,7.681c2.522,1.834 6.152,3.363 10.891,4.586l0,-24.764c-4.892,0.612 -8.56,2.045 -11.006,4.299c-2.446,2.255 -3.669,4.987 -3.669,8.198Zm22.012,49.641c5.121,-0.459 8.962,-1.777 11.522,-3.955c2.56,-2.179 3.841,-4.911 3.841,-8.198c0,-3.362 -1.319,-5.942 -3.956,-7.738c-2.636,-1.796 -6.439,-3.382 -11.407,-4.758l0,24.649Z" style="fill-rule:nonzero;"/></g></svg>