<?xml version="1.0" encoding="UTF-8" standalone="no"?><!DOCTYPE svg PUBLIC "-//W3C//DTD SVG 1.1//EN" "http://www.w3.org/Graphics/SVG/1.1/DTD/svg11.dtd"><svg width="100%" height="100%" viewBox="0 0 256 256" version="1.1" xmlns="http://www.w3.org/2000/svg" xmlns:xlink="http://www.w3.org/1999/xlink" xml:space="preserve" xmlns:serif="http://www.serif.com/" style="fill-rule:evenodd;clip-rule:evenodd;stroke-linejoin:round;stroke-miterlimit:2;"><path d="M213.923,163.404c0,15.251 -5.492,28.551 -16.476,39.898c-10.985,11.348 -26.644,18.837 -46.979,22.468l0,30.23l-38.4,0l0,-28.868c-13.617,-0.726 -26.644,-2.814 -39.081,-6.264c-12.437,-3.45 -22.74,-7.716 -30.91,-12.8l20.697,-46.842c9.078,5.265 19.246,9.486 30.503,12.663c11.256,3.178 22.059,4.766 32.408,4.766c8.897,0 15.251,-0.862 19.064,-2.587c3.813,-1.725 5.719,-4.312 5.719,-7.762c0,-3.994 -2.496,-6.99 -7.489,-8.987c-4.993,-1.997 -13.209,-4.176 -24.647,-6.536c-14.706,-3.087 -26.962,-6.4 -36.766,-9.94c-9.804,-3.541 -18.338,-9.351 -25.6,-17.43c-7.262,-8.08 -10.894,-19.019 -10.894,-32.817c0,-15.978 5.765,-29.685 17.294,-41.124c11.529,-11.438 28.096,-18.7 49.702,-21.787l0,-29.685l38.4,0l0,29.14c21.787,1.998 40.216,7.263 55.285,15.796l-19.336,46.57c-18.701,-9.441 -36.403,-14.161 -53.106,-14.161c-16.522,0 -24.783,3.994 -24.783,11.983c0,3.812 2.451,6.672 7.353,8.578c4.902,1.907 12.981,3.949 24.238,6.128c14.525,2.723 26.78,5.855 36.766,9.396c9.986,3.54 18.655,9.305 26.009,17.293c7.353,7.989 11.029,18.883 11.029,32.681Z" style="fill:currentColor;fill-rule:nonzero;"/></svg>