<?xml version="1.0" encoding="UTF-8" standalone="no"?><!DOCTYPE svg PUBLIC "-//W3C//DTD SVG 1.1//EN" "http://www.w3.org/Graphics/SVG/1.1/DTD/svg11.dtd"><svg width="100%" height="100%" viewBox="0 0 256 256" version="1.1" xmlns="http://www.w3.org/2000/svg" xmlns:xlink="http://www.w3.org/1999/xlink" xml:space="preserve" xmlns:serif="http://www.serif.com/" style="fill-rule:evenodd;clip-rule:evenodd;stroke-linejoin:round;stroke-miterlimit:2;"><path d="M128,17.334c61.078,0 110.666,49.588 110.666,110.666c0,61.078 -49.588,110.666 -110.666,110.666c-61.078,0 -110.666,-49.588 -110.666,-110.666c0,-61.078 49.588,-110.666 110.666,-110.666Zm80.305,114.429c-0.001,44.322 -35.984,80.305 -80.305,80.305c-44.321,0 -80.305,-35.983 -80.305,-80.305l160.61,0Zm-158.129,-32.998c0,-15.326 12.442,-27.768 27.768,-27.768c15.325,0 27.768,12.442 27.768,27.768l-55.536,0Zm100.112,0c0,-15.326 12.443,-27.768 27.768,-27.768c15.326,0 27.768,12.442 27.768,27.768l-55.536,0Z" style="fill:#fff;"/></svg>