<?xml version="1.0" encoding="UTF-8" standalone="no"?><!DOCTYPE svg PUBLIC "-//W3C//DTD SVG 1.1//EN" "http://www.w3.org/Graphics/SVG/1.1/DTD/svg11.dtd"><svg width="100%" height="100%" viewBox="0 0 256 256" version="1.1" xmlns="http://www.w3.org/2000/svg" xmlns:xlink="http://www.w3.org/1999/xlink" xml:space="preserve" xmlns:serif="http://www.serif.com/" style="fill-rule:evenodd;clip-rule:evenodd;stroke-linejoin:round;stroke-miterlimit:2;"><path d="M79.324,0l97.352,0l-16.225,155.763l-64.902,0l-16.225,-155.763Zm48.676,256c-13.942,0 -25.36,-4.207 -34.254,-12.62c-8.893,-8.413 -13.34,-18.629 -13.34,-30.648c0,-12.259 4.447,-22.415 13.34,-30.467c8.894,-8.053 20.312,-12.079 34.254,-12.079c13.942,0 25.36,4.026 34.254,12.079c8.893,8.052 13.34,18.208 13.34,30.467c0,12.019 -4.447,22.235 -13.34,30.648c-8.894,8.413 -20.312,12.62 -34.254,12.62Z" style="fill:currentColor;fill-rule:nonzero;"/></svg>