<?xml version="1.0" encoding="UTF-8" standalone="no"?><!DOCTYPE svg PUBLIC "-//W3C//DTD SVG 1.1//EN" "http://www.w3.org/Graphics/SVG/1.1/DTD/svg11.dtd"><svg width="100%" height="100%" viewBox="0 0 256 256" version="1.1" xmlns="http://www.w3.org/2000/svg" xmlns:xlink="http://www.w3.org/1999/xlink" xml:space="preserve" xmlns:serif="http://www.serif.com/" style="fill-rule:evenodd;clip-rule:evenodd;stroke-linejoin:round;stroke-miterlimit:2;"><path d="M227.556,256l-199.112,0c-15.708,0 -28.444,-12.736 -28.444,-28.444l0,-199.112c0,-15.708 12.736,-28.444 28.444,-28.444l199.112,0c15.708,0 28.444,12.736 28.444,28.444l0,199.112c0,15.708 -12.736,28.444 -28.444,28.444Zm-171.734,-158.82c5.76,0 8.576,-4.487 8.576,-8.839c0,-4.48 -2.944,-8.832 -8.576,-8.832l-32.775,0c-6.407,0 -9.991,4.736 -9.991,9.984l0,71.965c0,6.4 4.103,9.991 9.607,9.991c5.511,0 9.607,-3.591 9.607,-9.991l0,-27.911l19.847,0c6.145,-0.001 9.216,-4.481 9.216,-8.967c0,-4.352 -3.071,-8.704 -9.216,-8.704l-19.847,0l0,-18.696l23.552,0Zm33.522,36.488l28.43,34.439c2.048,2.439 5.12,3.335 7.424,3.335c5.639,0 9.607,-4.871 9.607,-9.863c0,-1.792 -0.768,-3.719 -2.56,-5.632l-21.767,-23.303c13.056,-2.048 23.687,-10.112 23.687,-24.2c0,-20.103 -12.16,-28.935 -31.879,-28.935l-22.535,0c-6.407,0 -9.863,3.84 -9.863,9.984l-0.014,0l0,71.951c0,6.4 4.103,9.991 9.607,9.991c5.511,0 9.607,-3.591 9.607,-9.991l0,-27.776l0.256,0Zm90.894,-36.488c6.009,0 9.095,-4.487 9.095,-8.839c0,-4.48 -2.944,-8.832 -9.095,-8.832l-31.751,0c-6.791,0 -9.984,4.736 -9.984,11.136l0,70.415c0,5.767 4.224,9.607 9.863,9.607l33.024,0c6.009,-0.001 9.095,-4.481 9.095,-8.832c0,-4.487 -2.943,-8.832 -9.095,-8.832l-23.68,0l0,-19.463l20.992,0c6.145,-0.001 9.337,-4.481 9.337,-8.832c0,-4.48 -3.065,-8.832 -9.337,-8.832l-20.992,0l0,-18.696l22.528,0Zm56.704,0c6.009,0 9.081,-4.487 9.081,-8.839c0,-4.48 -2.944,-8.832 -9.081,-8.832l-31.751,0c-6.791,0 -9.984,4.736 -9.984,11.136l0,70.415c0,5.767 4.224,9.607 9.849,9.607l33.038,0c6.009,-0.001 9.081,-4.481 9.081,-8.832c0,-4.487 -2.944,-8.832 -9.081,-8.832l-23.694,0l0,-19.463l20.999,0c6.152,-0.001 9.344,-4.481 9.344,-8.832c0,-4.48 -3.065,-8.832 -9.344,-8.832l-20.999,0l0,-18.696l22.542,0Zm-134.663,-0.007c7.04,0.001 11.904,3.969 11.904,11.264c0,7.175 -4.864,11.399 -11.904,11.399l-13.184,0l0,-22.663l13.184,0Z" style="fill:currentColor;fill-rule:nonzero;"/></svg>