<?xml version="1.0" encoding="UTF-8" standalone="no"?><!DOCTYPE svg PUBLIC "-//W3C//DTD SVG 1.1//EN" "http://www.w3.org/Graphics/SVG/1.1/DTD/svg11.dtd"><svg width="100%" height="100%" viewBox="0 0 256 256" version="1.1" xmlns="http://www.w3.org/2000/svg" xmlns:xlink="http://www.w3.org/1999/xlink" xml:space="preserve" xmlns:serif="http://www.serif.com/" style="fill-rule:evenodd;clip-rule:evenodd;stroke-linejoin:round;stroke-miterlimit:2;"><circle cx="24.416" cy="48.06" r="24.416" style="fill:currentColor;"/><circle cx="24.416" cy="128" r="24.416" style="fill:currentColor;"/><circle cx="24.416" cy="207.94" r="24.416" style="fill:currentColor;"/><path d="M256,119.991c0,-4.42 -3.589,-8.009 -8.009,-8.009l-160.166,0c-4.42,0 -8.009,3.589 -8.009,8.009l0,16.018c0,4.42 3.589,8.009 8.009,8.009l160.166,0c4.42,0 8.009,-3.589 8.009,-8.009l0,-16.018Z" style="fill:currentColor;"/><path d="M256,40.051c0,-4.42 -3.589,-8.009 -8.009,-8.009l-160.166,0c-4.42,0 -8.009,3.589 -8.009,8.009l0,16.018c0,4.42 3.589,8.009 8.009,8.009l160.166,0c4.42,0 8.009,-3.589 8.009,-8.009l0,-16.018Z" style="fill:currentColor;"/><path d="M256,199.931c0,-4.42 -3.589,-8.009 -8.009,-8.009l-160.166,0c-4.42,0 -8.009,3.589 -8.009,8.009l0,16.018c0,4.42 3.589,8.009 8.009,8.009l160.166,0c4.42,0 8.009,-3.589 8.009,-8.009l0,-16.018Z" style="fill:currentColor;"/></svg>