<?xml version="1.0" encoding="UTF-8" standalone="no"?><!DOCTYPE svg PUBLIC "-//W3C//DTD SVG 1.1//EN" "http://www.w3.org/Graphics/SVG/1.1/DTD/svg11.dtd"><svg width="100%" height="100%" viewBox="0 0 256 256" version="1.1" xmlns="http://www.w3.org/2000/svg" xmlns:xlink="http://www.w3.org/1999/xlink" xml:space="preserve" xmlns:serif="http://www.serif.com/" style="fill-rule:evenodd;clip-rule:evenodd;stroke-linejoin:round;stroke-miterlimit:2;"><path d="M127.173,255.997c-70.265,-0.445 -127.173,-57.628 -127.173,-127.997c0,-70.645 57.355,-128 128,-128c70.645,0 127.999,57.354 128,128l0,0.147c0,8.434 -3.351,16.523 -9.315,22.487c-5.964,5.964 -14.052,9.315 -22.487,9.315c-12.691,0 -27.526,0 -41.254,0c-10.475,0 -20.334,4.948 -26.594,13.346c-6.26,8.398 -8.185,19.26 -5.192,29.298c1.505,5.051 3.035,10.181 4.521,15.165c2.683,9.002 0.957,18.742 -4.657,26.273c-5.613,7.531 -14.455,11.967 -23.847,11.966c-0.002,0 -0.002,0 -0.002,0Zm-79.325,-127.997c8.931,0 16.182,7.251 16.182,16.182c0,8.931 -7.251,16.182 -16.182,16.182c-8.931,0 -16.182,-7.251 -16.182,-16.182c0,-8.931 7.251,-16.182 16.182,-16.182Zm16.182,-64.427c8.931,0 16.182,7.251 16.182,16.182c0,8.931 -7.251,16.182 -16.182,16.182c-8.931,0 -16.182,-7.251 -16.182,-16.182c0,-8.931 7.251,-16.182 16.182,-16.182Zm127.757,0c8.931,0 16.181,7.251 16.181,16.182c0,8.931 -7.25,16.182 -16.181,16.182c-8.931,0 -16.182,-7.251 -16.182,-16.182c0,-8.931 7.251,-16.182 16.182,-16.182Zm-63.787,-32.363c8.931,0 16.182,7.251 16.182,16.182c0,8.931 -7.251,16.181 -16.182,16.181c-8.931,0 -16.182,-7.25 -16.182,-16.181c0,-8.931 7.251,-16.182 16.182,-16.182Z" style="fill:currentColor;"/></svg>