<?xml version="1.0" encoding="UTF-8" standalone="no"?><!DOCTYPE svg PUBLIC "-//W3C//DTD SVG 1.1//EN" "http://www.w3.org/Graphics/SVG/1.1/DTD/svg11.dtd"><svg width="100%" height="100%" viewBox="0 0 256 256" version="1.1" xmlns="http://www.w3.org/2000/svg" xmlns:xlink="http://www.w3.org/1999/xlink" xml:space="preserve" xmlns:serif="http://www.serif.com/" style="fill-rule:evenodd;clip-rule:evenodd;stroke-linejoin:round;stroke-miterlimit:2;"><g><path d="M239,43c9.383,0.001 17,7.618 17,17l0,136c0,9.383 -7.617,17 -17,17l-222,0c-9.383,0 -17,-7.617 -17,-17l0,-136c0,-9.382 7.617,-16.999 17,-17l222,0Zm-9.5,150c3.588,0 6.5,-2.913 6.5,-6.5l0,-66.3l-43.04,-43.04l-82.158,82.158l-39.609,-39.61l-51.193,51.193l0,15.599c0,3.587 2.913,6.5 6.5,6.5l203,0Zm-185.816,-130c13.073,0.001 23.685,10.613 23.685,23.684c0,13.072 -10.613,23.685 -23.685,23.685c-13.071,0 -23.684,-10.613 -23.684,-23.685c0,-13.071 10.612,-23.683 23.684,-23.684l0,0Z" style="fill:#fff;"/></g></svg>