<?xml version="1.0" encoding="UTF-8" standalone="no"?><!DOCTYPE svg PUBLIC "-//W3C//DTD SVG 1.1//EN" "http://www.w3.org/Graphics/SVG/1.1/DTD/svg11.dtd"><svg width="100%" height="100%" viewBox="0 0 256 256" version="1.1" xmlns="http://www.w3.org/2000/svg" xmlns:xlink="http://www.w3.org/1999/xlink" xml:space="preserve" xmlns:serif="http://www.serif.com/" style="fill-rule:evenodd;clip-rule:evenodd;stroke-linejoin:round;stroke-miterlimit:2;"><path d="M220.201,256l-184.402,0c-19.758,0 -35.799,-16.041 -35.799,-35.799c0,-17.914 13.186,-32.772 30.373,-35.39c-8.445,-6.72 -13.862,-17.085 -13.862,-28.705c0,-20.236 16.429,-36.665 36.665,-36.665l5.509,0c-6.734,-5.774 -11.004,-14.342 -11.004,-23.899c0,-17.368 14.101,-31.47 31.47,-31.47c0,0 8.811,0 8.811,0c22.098,0 40.038,-17.94 40.038,-40.038c0,-9.015 -2.986,-17.339 -8.023,-24.034l8.043,0c26.366,0 47.771,21.406 47.771,47.771c0,5.723 -1.009,11.213 -2.858,16.301l3.916,0c17.369,0.001 31.47,14.102 31.47,31.47c0,9.557 -4.269,18.125 -11.004,23.899l5.509,0c20.237,0.001 36.665,16.429 36.665,36.665c0,11.62 -5.417,21.985 -13.862,28.705c17.187,2.618 30.373,17.476 30.373,35.39c0,19.757 -16.04,35.798 -35.799,35.799Zm-138.161,-54.874c-1.041,-1.857 -1.019,-4.126 0.057,-5.963c1.076,-1.837 3.045,-2.965 5.174,-2.965c18.985,-0.004 61.839,-0.004 81.111,-0.004c2.164,0 4.161,1.165 5.225,3.05c1.064,1.884 1.031,4.195 -0.087,6.049c-6.645,10.986 -21.008,28.014 -46.231,28.014c-25.351,0 -39.072,-17.2 -45.249,-28.181Zm13.933,-73.126c8.788,0 15.922,7.135 15.922,15.923c0,8.788 -7.134,15.923 -15.922,15.923c-8.788,0 -15.923,-7.135 -15.923,-15.923c0,-8.788 7.135,-15.923 15.923,-15.923Zm64.054,0c8.788,0 15.923,7.135 15.923,15.923c0,8.788 -7.135,15.923 -15.923,15.923c-8.788,0 -15.922,-7.135 -15.922,-15.923c0,-8.788 7.134,-15.923 15.922,-15.923Z" style="fill:currentColor;"/></svg>