<?xml version="1.0" encoding="UTF-8" standalone="no"?><!DOCTYPE svg PUBLIC "-//W3C//DTD SVG 1.1//EN" "http://www.w3.org/Graphics/SVG/1.1/DTD/svg11.dtd"><svg width="100%" height="100%" viewBox="0 0 256 256" version="1.1" xmlns="http://www.w3.org/2000/svg" xmlns:xlink="http://www.w3.org/1999/xlink" xml:space="preserve" xmlns:serif="http://www.serif.com/" style="fill-rule:evenodd;clip-rule:evenodd;stroke-linejoin:round;stroke-miterlimit:2;"><path d="M233.229,136.362c0.026,0.998 0.038,2 0.038,3.004c0,64.372 -52.262,116.634 -116.633,116.634c-64.372,0 -116.634,-52.262 -116.634,-116.634c0,-64.371 52.262,-116.633 116.634,-116.633c1.004,0 2.006,0.012 3.004,0.038c-1.961,7.515 -3.004,15.398 -3.004,23.524c0,51.367 41.704,93.071 93.071,93.071c8.126,0 16.009,-1.043 23.524,-3.004Zm-46.323,15.753c-0.244,38.576 -31.638,69.82 -70.272,69.82c-38.786,0 -70.275,-31.489 -70.275,-70.275l140.549,0l-0.002,0.455Zm-117.107,-82.141c12.936,0 23.439,10.502 23.439,23.439c0,12.936 -10.503,23.439 -23.439,23.439c-12.937,0 -23.44,-10.503 -23.44,-23.439c0,-12.937 10.503,-23.439 23.44,-23.439Zm92.082,-34.823l35.151,0l0,-35.151l23.505,0l0,35.151l35.151,0l0,23.504l-35.151,0l0,35.151l-23.505,0l0,-35.151l-35.151,0l0,-23.504Z" style="fill:currentColor;"/></svg>