<?xml version="1.0" encoding="UTF-8" standalone="no"?><!DOCTYPE svg PUBLIC "-//W3C//DTD SVG 1.1//EN" "http://www.w3.org/Graphics/SVG/1.1/DTD/svg11.dtd"><svg width="100%" height="100%" viewBox="0 0 20 20" version="1.1" xmlns="http://www.w3.org/2000/svg" xmlns:xlink="http://www.w3.org/1999/xlink" xml:space="preserve" xmlns:serif="http://www.serif.com/" style="fill-rule:evenodd;clip-rule:evenodd;stroke-linejoin:round;stroke-miterlimit:2;"><path d="M19.627,9.794c-0.001,-0.31 -0.176,-0.593 -0.452,-0.733l-5.753,-2.881l-2.876,-5.763c-0.278,-0.556 -1.185,-0.556 -1.463,0l-2.876,5.763l-5.753,2.881c-0.277,0.138 -0.454,0.423 -0.454,0.733c0,0.31 0.177,0.595 0.454,0.733l5.753,2.881l2.876,5.763c0.139,0.277 0.423,0.452 0.732,0.452c0.309,0 0.593,-0.175 0.731,-0.452l2.876,-5.763l5.753,-2.88c0.277,-0.14 0.452,-0.424 0.452,-0.734Z" style="fill:currentColor;fill-rule:nonzero;"/></svg>