<?xml version="1.0" encoding="UTF-8" standalone="no"?><!DOCTYPE svg PUBLIC "-//W3C//DTD SVG 1.1//EN" "http://www.w3.org/Graphics/SVG/1.1/DTD/svg11.dtd"><svg width="100%" height="100%" viewBox="0 0 256 256" version="1.1" xmlns="http://www.w3.org/2000/svg" xmlns:xlink="http://www.w3.org/1999/xlink" xml:space="preserve" xmlns:serif="http://www.serif.com/" style="fill-rule:evenodd;clip-rule:evenodd;stroke-linecap:round;stroke-linejoin:round;stroke-miterlimit:1.5;"><g><path d="M248.764,97.809c0,-16.663 -13.528,-30.191 -30.191,-30.191l-181.146,0c-16.663,0 -30.191,13.528 -30.191,30.191l0,60.382c0,16.663 13.528,30.191 30.191,30.191l181.146,0c16.663,0 30.191,-13.528 30.191,-30.191l0,-60.382Z" style="fill:none;stroke:#000;stroke-width:10px;"/><path d="M128,67.618l0,120.764" style="fill:none;stroke:#000;stroke-width:10px;"/><path d="M82.744,143.601l-29.045,0l-5.726,13.444l-11.12,0l26.14,-58.09l10.623,0l26.223,58.09l-11.286,0l-5.809,-13.444Zm-3.568,-8.464l-10.954,-25.394l-10.872,25.394l21.826,0Z" style="fill-rule:nonzero;"/><path d="M219.147,151.242l-4.375,5.555c-9.041,-2.917 -17.367,-7.417 -24.98,-13.499c-6.6,6 -14.947,10.582 -25.042,13.747l-4.5,-5.524c8.379,-2.048 16.643,-6.247 24.794,-12.598c-5.13,-5.172 -8.844,-11.782 -11.14,-19.829c-0.828,3.062 -2.503,6.175 -5.027,9.34l-5.462,-4.561c2.773,-3.062 4.79,-6.31 6.051,-9.744l-7.323,0l0,-6.485l24.297,0l0,-8.689l6.672,0l0,8.689l24.266,0l0,6.485l-11.823,0c-1.448,9.765 -5.13,17.946 -11.047,24.546c8.131,6.516 16.343,10.705 24.639,12.567Zm-20.263,-37.113l-19.519,0c2.255,9.454 5.71,16.198 10.365,20.232c5.027,-5.689 8.078,-12.433 9.154,-20.232Z" style="fill-rule:nonzero;"/></g></svg>