<?xml version="1.0" encoding="UTF-8" standalone="no"?><!DOCTYPE svg PUBLIC "-//W3C//DTD SVG 1.1//EN" "http://www.w3.org/Graphics/SVG/1.1/DTD/svg11.dtd"><svg width="100%" height="100%" viewBox="0 0 256 256" version="1.1" xmlns="http://www.w3.org/2000/svg" xmlns:xlink="http://www.w3.org/1999/xlink" xml:space="preserve" xmlns:serif="http://www.serif.com/" style="fill-rule:evenodd;clip-rule:evenodd;stroke-linejoin:round;stroke-miterlimit:2;"><path d="M101.12,98.377l-64,0l-12.617,29.623l-24.503,0l57.6,-128l23.406,0l57.783,128l-24.869,0l-12.8,-29.623Zm-7.863,-18.651l-24.137,-55.955l-23.954,55.955l48.091,0Z" style="fill:currentColor;fill-rule:nonzero;"/><path d="M256,243.214l-9.641,12.239c-19.92,-6.427 -38.268,-16.342 -55.043,-29.744c-14.541,13.22 -32.934,23.317 -55.179,30.291l-9.915,-12.171c18.462,-4.513 36.673,-13.766 54.633,-27.761c-11.305,-11.396 -19.487,-25.96 -24.547,-43.692c-1.824,6.747 -5.516,13.607 -11.077,20.581l-12.034,-10.051c6.108,-6.746 10.552,-13.903 13.333,-21.47l-16.137,0l0,-14.291l53.539,0l0,-19.145l14.7,0l0,19.145l53.471,0l0,14.291l-26.052,0c-3.191,21.516 -11.305,39.544 -24.342,54.085c17.915,14.359 36.012,23.59 54.291,27.693Zm-44.65,-81.778l-43.008,0c4.969,20.832 12.581,35.692 22.837,44.581c11.077,-12.536 17.801,-27.396 20.171,-44.581Z" style="fill:currentColor;fill-rule:nonzero;"/></svg>